<?xml version="1.0" encoding="UTF-8"?>
<svg id="Layer_1" xmlns="http://www.w3.org/2000/svg" version="1.1" viewBox="0 0 1200 200">
  <!-- Generator: Adobe Illustrator 29.5.1, SVG Export Plug-In . SVG Version: 2.1.0 Build 141)  -->
  <g>
    <path d="M15.44,116.12l11.15-2.35c1.18-.25,2.18-.72,3-1.41.82-.68,1.37-1.51,1.63-2.5l19.51-74.38-22.1-.27c-1.02-.01-1.81.2-2.35.64-.54.44-1.04.99-1.51,1.66l-10.33,14.7-5.14-.06,6.58-24.48,93.86,1.16-6.58,24.48-5.14-.06-2.25-14.86c-.1-.67-.31-1.23-.64-1.69-.33-.45-.98-.68-1.95-.7l-20.95-.26-19.51,74.38c-.27,1.03-.12,1.89.44,2.59.56.7,1.29,1.17,2.21,1.4l11.41,2.62-1.11,4.01-51.34-.63,1.11-4.01Z"/>
    <path d="M137.92,57.03l-14.44,55.05c-.21.85-.09,1.54.37,2.08.46.54,1.09.93,1.91,1.16l8.35,2.32-1.03,3.95-43.13-.53,1.03-3.95,8-2.12c.97-.26,1.81-.65,2.5-1.18.7-.53,1.15-1.19,1.36-2l14.44-55.05c.47-1.65-.23-2.73-2.12-3.25l-8.42-2.32,1.03-3.88,43.13.53-1.03,3.88-7.92,2.12c-.92.26-1.77.66-2.54,1.21-.77.55-1.26,1.2-1.48,1.96ZM129.08,86.38l1.74-6.62,35.22.43-1.74,6.62-35.22-.43ZM156.41,112.49l14.44-55.05c.26-.85.19-1.54-.21-2.08-.41-.54-1.04-.93-1.91-1.16l-8.42-2.32,1.03-3.88,43.13.53-1.03,3.88-8,2.12c-.92.26-1.76.66-2.5,1.21-.75.55-1.23,1.2-1.44,1.96l-14.44,55.05c-.21.85-.1,1.54.33,2.08.43.54,1.05.93,1.87,1.16l8.42,2.32-1.03,3.95-43.13-.53,1.03-3.95,8-2.12c.97-.26,1.81-.65,2.5-1.18.69-.53,1.15-1.19,1.36-2Z"/>
    <path d="M191.45,118.36l8-2.12c.97-.26,1.81-.65,2.5-1.18s1.15-1.19,1.36-2l14.44-55.05c.47-1.65-.23-2.73-2.12-3.25l-8.42-2.32,1.03-3.88,72.6.9-5.16,19.8-4.99-.06-2.28-11.44c-.1-.54-.29-.99-.56-1.35-.28-.36-.8-.55-1.57-.56l-27.09-.33-15.94,60.53,32.62.4c.82.01,1.45-.15,1.88-.48.44-.33.86-.78,1.28-1.36l8.4-12.85,4.99.06-5.63,21.4-76.36-.94,1.03-3.95ZM229.55,87.56l1.74-6.55,17.57.22c.87.01,1.54-.14,2-.44.46-.31.88-.73,1.24-1.26l6.6-8.71,4.6.06-7.22,27.56-4.6-.06-2.08-8.68c-.1-.54-.29-.99-.56-1.35-.28-.36-.85-.55-1.72-.56l-17.57-.22Z"/>
    <path d="M345.76,126.3c-5.83-.07-12.06-.73-18.67-1.98-6.62-1.24-12.68-2.75-18.19-4.52l5.06-26.11,5.14.06,3.34,13.39c.15.63.44,1.23.87,1.79.43.57,1,1.1,1.71,1.6,2.03,1.5,4.73,2.84,8.1,4.03,3.37,1.18,6.71,2.11,10.03,2.77,3.32.67,5.87,1.01,7.67,1.03,3.68.04,7.21-.55,10.57-1.78,3.36-1.23,6.1-3.07,8.22-5.5,2.12-2.43,3.19-5.42,3.22-8.95.03-3.76-1.26-6.64-3.88-8.64-2.62-2-5.64-3.78-9.05-5.35-2.91-1.33-5.82-2.62-8.75-3.87-2.93-1.24-5.88-2.51-8.83-3.8-3.57-1.52-6.61-3.31-9.13-5.38-2.51-2.07-4.44-4.47-5.77-7.22-1.33-2.74-1.98-5.91-1.95-9.49.04-4.79,1.33-8.96,3.87-12.53,2.54-3.57,5.88-6.55,10.02-8.94,4.14-2.39,8.68-4.15,13.63-5.3,4.95-1.15,9.82-1.69,14.63-1.63,5.99.07,11.81.63,17.48,1.66,5.67,1.03,11.36,2.3,17.08,3.8l-5.73,23.88-5.14-.06-2.81-12.45c-.15-.58-.43-1.15-.83-1.69-.41-.54-.96-1.04-1.68-1.5-1.68-1.18-3.85-2.19-6.5-3.03-2.65-.84-5.27-1.5-7.85-1.98-2.58-.48-4.61-.73-6.1-.75-5.27-.06-9.7,1.42-13.28,4.47-3.58,3.04-5.39,6.89-5.43,11.54-.03,3.76,1.35,6.62,4.15,8.57,2.8,1.96,5.93,3.67,9.4,5.15,2.9,1.29,5.84,2.54,8.79,3.77,2.96,1.22,5.89,2.5,8.79,3.83,3.57,1.65,6.58,3.48,9.05,5.48,2.46,2,4.35,4.34,5.66,7.02,1.31,2.68,1.94,5.85,1.91,9.52-.05,5.5-1.6,10.12-4.65,13.87-3.05,3.74-7.03,6.74-11.93,8.98-4.91,2.24-10.19,3.86-15.85,4.84s-11.13,1.44-16.4,1.38Z"/>
    <path d="M437.19,127.02c-4.81-.06-9.55-.75-14.22-2.09-4.67-1.33-8.53-3.47-11.57-6.42-3.05-2.95-4.55-6.86-4.51-11.73,0-.76.1-1.8.3-3.12.19-1.32.39-2.36.6-3.11l10.55-40.06c.21-.76.1-1.43-.33-2.02-.43-.59-1.08-1-1.95-1.23l-8.35-2.32,1.03-3.88,43.13.53-1.03,3.88-8,2.12c-.87.21-1.68.59-2.43,1.14-.75.55-1.23,1.23-1.44,2.03l-9.36,35.92c-.27,1.12-.52,2.27-.76,3.48-.24,1.21-.37,2.39-.38,3.55-.03,2.95.57,5.45,1.78,7.5,1.21,2.05,3,3.6,5.37,4.66,2.37,1.06,5.27,1.61,8.7,1.65,3.48.04,6.55-.39,9.22-1.3,2.67-.91,4.98-2.19,6.94-3.84,1.96-1.65,3.59-3.64,4.89-5.95,1.3-2.31,2.29-4.82,2.98-7.55l9.76-37.32c.21-.76.1-1.41-.33-1.95-.43-.54-1.05-.95-1.87-1.23l-8.27-2.72,1.03-3.88,31.92.39-1.03,3.88-8.08,2.52c-.87.26-1.68.64-2.43,1.14-.75.51-1.23,1.16-1.44,1.96l-10.55,40.27c-1.11,4.19-2.92,7.87-5.43,11.04-2.51,3.17-5.54,5.8-9.09,7.91s-7.48,3.67-11.78,4.69c-4.31,1.02-8.84,1.5-13.6,1.44Z"/>
    <path d="M485.83,121.99l8.16-2.45c.92-.3,1.73-.71,2.43-1.21.7-.5,1.15-1.14,1.36-1.9l14.36-54.58c.21-.8.09-1.48-.37-2.02-.46-.54-1.07-.93-1.83-1.16l-8.96-2.59,1.03-3.88,29.93.37,24.71,45.06,4.08,7.5,11.11-42.41c.26-.85.19-1.52-.21-2.02-.41-.5-1.04-.88-1.91-1.16l-8.65-2.72,1.03-3.88,32.77.4-1.03,3.88-8,2.52c-1.03.3-1.9.7-2.62,1.21-.72.51-1.19,1.14-1.4,1.9l-13.57,51.84-5.33,12.75-11.13-.14-26.98-49.25-4.76-8.38-12.3,46.89c-.21.8-.12,1.46.29,1.98.4.52,1.07.92,1.99,1.2l8.57,2.66-1.03,3.95-32.77-.4,1.03-3.95Z"/>
    <path d="M611.81,129.18c-3.48-.04-6.8-.29-9.97-.73-3.17-.44-6.31-1.04-9.42-1.79-3.12-.75-6.31-1.62-9.57-2.6l4.25-21.55,4.83.06,2.21,10.7c.1.49.39,1,.87,1.52.48.52.95.94,1.41,1.26,1.53,1,3.42,2,5.69,2.99,2.27.99,4.62,1.8,7.04,2.44,2.42.63,4.58.96,6.48.99,3.07.04,5.94-.45,8.61-1.47,2.67-1.02,4.83-2.52,6.49-4.52,1.65-1.99,2.49-4.42,2.52-7.28.02-2.42-.87-4.41-2.67-5.97-1.8-1.57-4.08-2.92-6.83-4.08-2.35-.97-4.78-1.89-7.31-2.77-2.52-.88-5.09-1.85-7.69-2.91-2.6-1.11-5.03-2.4-7.3-3.88-2.27-1.48-4.08-3.28-5.44-5.4-1.36-2.12-2.03-4.68-2.01-7.67.04-4.16,1.2-7.78,3.51-10.86,2.3-3.08,5.32-5.63,9.05-7.64,3.73-2.01,7.77-3.51,12.13-4.48,4.36-.98,8.61-1.44,12.75-1.39,4.4.05,9.08.45,14.04,1.18,4.96.73,9.53,1.8,13.71,3.19l-5.16,19.93-4.83-.06-1.99-9.96c-.05-.4-.24-.79-.57-1.15-.33-.36-.72-.7-1.18-1.02-2.44-1.73-5.3-3.05-8.56-3.96-3.27-.91-5.72-1.38-7.35-1.4-2.66-.03-5.17.36-7.53,1.18-2.36.82-4.29,2.08-5.79,3.79-1.5,1.7-2.26,3.83-2.28,6.38-.02,2.51.92,4.6,2.83,6.27,1.9,1.68,4.28,3.12,7.14,4.32,2.14.88,4.32,1.72,6.54,2.53,2.22.81,4.53,1.68,6.92,2.6,2.96,1.16,5.7,2.48,8.22,3.96,2.52,1.49,4.56,3.32,6.13,5.51,1.57,2.19,2.34,4.94,2.31,8.25-.04,4.83-1.38,8.9-4.02,12.2-2.64,3.3-6.06,5.93-10.28,7.89-4.21,1.96-8.78,3.37-13.7,4.23s-9.66,1.26-14.21,1.2Z"/>
    <path d="M652.7,124.05l8-2.12c.97-.26,1.81-.65,2.5-1.18.7-.53,1.15-1.19,1.36-2l14.44-55.05c.47-1.65-.23-2.73-2.12-3.25l-8.42-2.32,1.03-3.88,72.6.9-5.16,19.8-4.99-.06-2.28-11.44c-.1-.54-.29-.99-.56-1.35-.28-.36-.8-.55-1.57-.56l-27.09-.33-15.94,60.53,32.62.4c.82,0,1.45-.15,1.88-.48s.86-.78,1.28-1.36l8.4-12.85,4.99.06-5.63,21.4-76.36-.94,1.03-3.95ZM690.8,93.25l1.75-6.55,17.57.22c.87.01,1.54-.14,2-.44.46-.31.88-.73,1.24-1.26l6.6-8.71,4.6.06-7.22,27.56-4.61-.06-2.07-8.68c-.1-.54-.29-.99-.56-1.35-.28-.36-.85-.55-1.72-.56l-17.57-.22Z"/>
    <path d="M745.58,125.26l10.07-2.16c1.02-.21,1.87-.59,2.54-1.14.67-.55,1.11-1.2,1.32-1.96l15.23-57.86-16.96-.21c-.87-.01-1.54.15-2,.48-.46.33-.9.78-1.32,1.36l-8.39,11.71-4.83-.06,5.31-20.2,80.2.99-5.32,20.2-4.83-.06-2.2-11.84c-.1-.54-.27-.99-.52-1.35-.25-.36-.79-.55-1.61-.56l-16.88-.21-15.23,57.86c-.21.85-.06,1.54.44,2.08s1.12.91,1.83,1.1l8.88,2.39-1.03,3.88-45.74-.56,1.03-3.88Z"/>
    <path d="M844.08,126.27l9.61-2.36c1.03-.26,1.99-.72,2.89-1.41.9-.68,1.48-1.51,1.75-2.5l18.72-71.17c.26-1.03.16-1.9-.32-2.62-.48-.72-1.23-1.2-2.25-1.44l-9.96-2.54,1.11-4.08,46.58.57c6.75.08,12.65,1,17.71,2.73s8.97,4.29,11.75,7.66c2.78,3.37,4.16,7.53,4.12,12.5-.06,6.53-1.91,12.26-5.56,17.18-3.65,4.92-8.47,8.73-14.45,11.43-5.99,2.7-12.53,4.01-19.64,3.92-1.84-.02-3.85-.25-6.02-.68-2.17-.43-4.39-1.03-6.66-1.79-2.27-.77-4.53-1.7-6.77-2.8l1.27-4.35c1.12.33,2.24.61,3.37.85,1.12.24,2.23.41,3.33.51,1.1.1,2.16.16,3.18.17,5.83.07,10.54-1.08,14.11-3.45,3.58-2.37,6.18-5.37,7.83-9,1.64-3.63,2.48-7.27,2.51-10.94.03-3-.51-5.75-1.62-8.27-1.1-2.52-3.15-4.56-6.12-6.11-2.98-1.56-7.29-2.37-12.91-2.44l-2.23-.03-19.59,74.44c-.26,1.03-.14,1.89.36,2.59.5.7,1.27,1.17,2.29,1.4l11.11,2.62-1.11,4.08-49.5-.61,1.11-4.08Z"/>
    <path d="M977.12,133.69c-7.16-.09-13.36-1.34-18.58-3.75-5.22-2.41-9.24-5.84-12.04-10.28-2.8-4.44-4.18-9.7-4.13-15.79.06-6.53,1.32-12.67,3.8-18.41,2.48-5.74,5.98-10.8,10.49-15.17,4.51-4.37,9.92-7.77,16.21-10.2,6.29-2.43,13.27-3.59,20.94-3.5,7.21.09,13.42,1.31,18.62,3.65,5.2,2.35,9.2,5.72,12,10.11s4.18,9.73,4.12,15.99c-.06,6.53-1.31,12.67-3.76,18.41-2.46,5.74-5.95,10.8-10.49,15.17-4.54,4.37-9.96,7.79-16.24,10.23s-13.27,3.63-20.94,3.53ZM979.47,127.27c4.14.05,7.75-1,10.81-3.16,3.06-2.15,5.64-4.98,7.75-8.49,2.1-3.51,3.78-7.3,5.05-11.38,1.26-4.08,2.18-8.05,2.75-11.91.57-3.86.87-7.18.89-9.95.03-3.13-.36-6.18-1.15-9.14-.79-2.96-2.29-5.41-4.5-7.34-2.21-1.93-5.44-2.92-9.68-2.97-4.2-.05-7.81,1-10.85,3.15-3.04,2.16-5.6,4.99-7.67,8.5-2.08,3.51-3.74,7.3-4.97,11.38-1.24,4.08-2.14,8.05-2.71,11.91-.57,3.86-.87,7.18-.89,9.95-.03,3.09.34,6.11,1.11,9.07.77,2.96,2.26,5.42,4.46,7.37,2.21,1.95,5.41,2.95,9.61,3Z"/>
    <path d="M1054.41,134.64c-3.48-.04-6.8-.29-9.97-.73-3.17-.44-6.31-1.04-9.42-1.79-3.12-.75-6.31-1.62-9.57-2.6l4.25-21.55,4.83.06,2.21,10.7c.1.49.39,1,.87,1.52.48.52.95.94,1.41,1.26,1.53,1,3.42,2,5.69,2.99s4.62,1.8,7.04,2.44,4.58.96,6.48.99c3.07.04,5.94-.45,8.61-1.47,2.67-1.02,4.83-2.52,6.49-4.52,1.65-1.99,2.49-4.42,2.52-7.28.02-2.42-.87-4.41-2.67-5.97-1.8-1.56-4.08-2.92-6.83-4.08-2.35-.97-4.78-1.89-7.31-2.78-2.52-.88-5.09-1.85-7.69-2.91-2.6-1.11-5.03-2.4-7.3-3.88-2.26-1.48-4.08-3.28-5.44-5.4-1.36-2.12-2.03-4.68-2.01-7.67.04-4.16,1.2-7.78,3.51-10.86,2.3-3.08,5.32-5.63,9.04-7.64,3.73-2.01,7.77-3.5,12.13-4.48,4.36-.98,8.61-1.44,12.75-1.39,4.4.05,9.08.45,14.04,1.18,4.96.73,9.53,1.8,13.71,3.19l-5.16,19.93-4.83-.06-1.99-9.96c-.05-.4-.24-.79-.57-1.15-.33-.36-.72-.7-1.18-1.02-2.44-1.73-5.29-3.05-8.56-3.96-3.27-.91-5.72-1.38-7.36-1.4-2.66-.03-5.17.36-7.53,1.18-2.36.82-4.29,2.08-5.79,3.79-1.5,1.7-2.26,3.83-2.28,6.38-.02,2.51.92,4.6,2.83,6.28,1.9,1.68,4.28,3.12,7.14,4.32,2.14.88,4.32,1.72,6.54,2.53,2.22.81,4.53,1.68,6.92,2.6,2.96,1.16,5.7,2.48,8.22,3.96,2.52,1.49,4.56,3.32,6.13,5.51,1.57,2.19,2.34,4.94,2.31,8.25-.04,4.83-1.38,8.9-4.02,12.2-2.64,3.3-6.06,5.93-10.28,7.89-4.21,1.96-8.78,3.37-13.7,4.23-4.92.86-9.66,1.26-14.21,1.2Z"/>
    <path d="M1108.89,129.74l10.07-2.16c1.02-.21,1.87-.59,2.54-1.14.67-.55,1.11-1.21,1.32-1.96l15.23-57.86-16.96-.21c-.87-.01-1.54.15-2,.48-.46.33-.9.78-1.32,1.36l-8.39,11.71-4.83-.06,5.31-20.2,80.2.99-5.31,20.2-4.83-.06-2.2-11.84c-.1-.54-.27-.99-.53-1.35-.25-.36-.79-.55-1.61-.56l-16.88-.21-15.23,57.86c-.21.85-.06,1.54.44,2.09s1.12.91,1.83,1.1l8.88,2.39-1.03,3.88-45.74-.56,1.03-3.88Z"/>
  </g>
  <g>
    <path d="M13.64,170.3l-.29-10.27h2.49l1.51,5.12c.08.26.24.52.47.77.23.25.44.44.61.56.65.45,1.41.88,2.25,1.27.85.4,1.71.72,2.6.98.89.25,1.7.38,2.43.38,2.09,0,3.77-.55,5.03-1.67,1.26-1.11,1.89-2.57,1.89-4.4,0-1.49-.4-2.66-1.2-3.51-.8-.85-1.89-1.59-3.28-2.21-1.34-.57-2.65-1.04-3.92-1.42s-2.53-.83-3.77-1.37c-1.92-.85-3.43-2.08-4.54-3.68-1.11-1.6-1.67-3.55-1.67-5.84,0-2.1.55-3.97,1.65-5.61,1.1-1.64,2.58-2.93,4.43-3.86,1.85-.94,3.88-1.4,6.09-1.4,1.31,0,2.6.09,3.86.26,1.26.17,2.47.39,3.63.64,1.16.25,2.21.52,3.15.79v9.78h-2.49l-1.41-4.84c-.08-.26-.23-.5-.44-.73s-.42-.41-.61-.55c-.4-.29-.93-.58-1.61-.85-.67-.27-1.38-.49-2.12-.66-.74-.17-1.43-.26-2.07-.26-1.95,0-3.45.5-4.5,1.5s-1.58,2.17-1.58,3.52.33,2.46.98,3.49c.65,1.02,1.89,1.88,3.71,2.57,1.25.49,2.46.92,3.65,1.29,1.19.37,2.49.86,3.89,1.47,1.1.49,2.14,1.13,3.13,1.92.98.8,1.78,1.81,2.4,3.03.61,1.22.92,2.72.92,4.49,0,1.96-.48,3.83-1.45,5.62-.97,1.79-2.48,3.23-4.54,4.34s-4.7,1.67-7.93,1.67c-1.17,0-2.4-.11-3.69-.34-1.29-.23-2.6-.52-3.91-.88-1.31-.36-2.56-.74-3.76-1.12Z"/>
    <path d="M53.53,172.33c-1.49,0-2.83-.32-4.03-.95-1.2-.63-2.15-1.63-2.86-2.99-.71-1.36-1.07-3.14-1.07-5.34v-12.8c0-.42-.1-.74-.31-.98-.21-.23-.5-.43-.86-.58l-2.54-1.12v-1.69l9.87-1.64v16.25c0,1.58.1,2.92.31,4.02.21,1.1.64,1.94,1.29,2.51.66.57,1.65.86,3,.86s2.36-.2,3.2-.61c.84-.41,1.51-.99,2-1.76v-15.27c0-.42-.1-.72-.31-.92-.21-.2-.5-.39-.89-.56l-2.61-1.09v-1.69l9.92-1.74v22.05c0,.38.1.69.3.94.2.24.5.44.9.6l2.61,1.04v1.72l-9.34,1.72h-.26v-4.58h-.17c-1.05,1.54-2.2,2.7-3.45,3.46-1.25.76-2.81,1.14-4.7,1.14Z"/>
    <path d="M74.09,171.78v-1.85l2.76-1.01c.29-.12.53-.28.72-.48.19-.2.29-.49.29-.87v-17.32c0-.42-.1-.74-.31-.98-.21-.23-.51-.43-.91-.58l-2.52-1.12v-1.69l9.51-1.64v4.37h.19c.94-1.32,1.86-2.3,2.77-2.95s1.81-1.08,2.72-1.3,1.8-.33,2.68-.33c1.49,0,2.83.32,4.05.95,1.21.63,2.18,1.63,2.89,3,.71,1.37,1.07,3.15,1.07,5.33v14.12c0,.45.1.78.3.99s.44.37.71.49l2.44,1.01v1.85h-12.94v-1.85l2.37-1.01c.29-.12.53-.29.72-.49.19-.21.29-.54.29-.99v-11.57c0-1.6-.11-2.94-.34-4.04-.22-1.1-.68-1.94-1.35-2.52-.68-.58-1.7-.87-3.06-.87-.86,0-1.78.15-2.76.44-.97.3-1.78.95-2.42,1.98v16.72c0,.38.1.67.29.86.19.19.42.36.69.49l2.13,1.01v1.85h-12.99Z"/>
    <path d="M106.98,170.67v-7.26h2.71l.81,2.65c.13.36.32.68.59.95s.52.48.75.64c.61.36,1.4.73,2.38,1.11.98.37,1.98.56,3.01.56.78,0,1.51-.14,2.19-.42.68-.28,1.23-.71,1.67-1.29.43-.58.65-1.33.65-2.25,0-1.2-.39-2.06-1.17-2.6-.78-.54-1.78-.99-3-1.35-.83-.26-1.64-.5-2.42-.73s-1.53-.45-2.25-.68c-1.81-.61-3.18-1.56-4.13-2.85-.95-1.29-1.43-2.82-1.43-4.59s.5-3.19,1.49-4.47c.99-1.28,2.3-2.28,3.94-3,1.64-.72,3.43-1.08,5.38-1.08,1.61,0,3.02.1,4.21.31s2.41.49,3.65.83l.22,7.36h-2.76l-.89-2.73c-.1-.31-.26-.59-.5-.83-.24-.24-.5-.44-.77-.6-.54-.31-1.19-.59-1.95-.85-.76-.25-1.55-.38-2.38-.38-1.04,0-1.95.29-2.73.88-.78.59-1.17,1.45-1.17,2.57,0,1.23.37,2.15,1.1,2.74.73.6,1.7,1.11,2.9,1.52.75.21,1.5.43,2.25.68.75.24,1.41.46,1.99.65,1.92.64,3.42,1.52,4.5,2.63,1.09,1.11,1.63,2.64,1.63,4.6s-.54,3.74-1.61,5.08-2.46,2.34-4.18,3-3.53.99-5.45.99-3.64-.2-5.16-.61c-1.53-.41-2.88-.81-4.06-1.21Z"/>
    <path d="M143.36,172.41c-2.4,0-4.52-.54-6.39-1.61-1.86-1.08-3.33-2.65-4.4-4.73-1.07-2.08-1.61-4.63-1.61-7.65,0-2.65.52-5.07,1.55-7.24,1.03-2.18,2.48-3.91,4.36-5.21,1.88-1.3,4.09-1.95,6.62-1.95,2.28,0,4.23.5,5.82,1.51,1.6,1.01,2.82,2.32,3.67,3.94.85,1.62,1.27,3.36,1.27,5.21,0,.23-.01.54-.04.95s-.05.81-.07,1.21c-.02.4-.05.69-.08.88h-17.13l.07-2.81h10.9c0-1.58-.15-2.96-.46-4.15-.3-1.19-.81-2.12-1.51-2.78-.7-.67-1.65-1-2.85-1s-2.1.3-2.86.91c-.76.61-1.36,1.41-1.8,2.42-.44,1.01-.75,2.11-.92,3.3-.18,1.2-.26,2.39-.26,3.59,0,2.13.28,4.01.83,5.64.55,1.63,1.45,2.9,2.68,3.81,1.24.91,2.9,1.37,4.97,1.37,1.18,0,2.26-.15,3.22-.44.97-.29,1.82-.65,2.58-1.07.75-.42,1.37-.82,1.87-1.2h.77v2.68c-1.18,1.04-2.72,2.04-4.61,2.99-1.89.95-3.96,1.43-6.19,1.43Z"/>
    <path d="M175.58,144.86l-.38,3.25h-8.39v16.67c0,.76.27,1.4.81,1.92.54.52,1.18.91,1.91,1.17.73.26,1.35.39,1.88.39s1.13-.07,1.82-.2c.69-.13,1.19-.26,1.51-.38h.77v2.05c-.35.23-.91.54-1.67.94-.76.4-1.64.76-2.65,1.08-1.01.32-2.06.48-3.16.48-1.34,0-2.57-.22-3.68-.66s-2-1.07-2.66-1.9c-.66-.82-.99-1.8-.99-2.93v-18.65h-4v-2.5c.88-.17,1.65-.36,2.3-.57.65-.21,1.17-.58,1.55-1.1.38-.53.59-1.36.66-2.48l.24-3.59,5.37-.96v7.96h8.77Z"/>
    <path d="M192.14,171.78v-1.9l3.45-1.25c.3-.09.54-.24.72-.47s.26-.53.26-.91v-27.8c0-.38-.09-.68-.26-.9s-.42-.36-.72-.43l-3.45-1.27v-1.87h14.88c2.36,0,4.52.35,6.46,1.04,1.94.69,3.49,1.79,4.64,3.29,1.15,1.5,1.73,3.46,1.73,5.87,0,2.53-.5,4.72-1.5,6.57-1,1.85-2.36,3.27-4.1,4.27-1.73,1-3.71,1.5-5.93,1.5-.81,0-1.77-.21-2.85-.62-1.09-.42-1.98-.88-2.68-1.38v-2.11c.45.17,1.08.3,1.9.39s1.6.13,2.34.13c1.28,0,2.31-.29,3.1-.86.79-.57,1.39-1.27,1.81-2.11s.69-1.66.83-2.5c.14-.83.2-1.52.2-2.05,0-1.4-.21-2.72-.62-3.95-.42-1.23-1.14-2.22-2.18-2.96-1.04-.75-2.5-1.12-4.38-1.12h-2.76v28.9c0,.4.1.71.31.94.21.23.45.37.72.44l3.74,1.25v1.9h-15.65Z"/>
    <path d="M229.16,172.33c-1.44,0-2.68-.36-3.73-1.08-1.05-.72-1.85-1.66-2.42-2.81-.57-1.15-.85-2.37-.85-3.65,0-1.73.38-3.2,1.15-4.4.77-1.2,1.76-2.16,2.97-2.9,1.21-.74,2.5-1.27,3.85-1.61,1.35-.34,2.61-.51,3.77-.51.22,0,.58.03,1.08.08.5.05.99.1,1.5.16.5.05.85.09,1.04.1l.02-3.41c.02-1.82-.28-3.09-.9-3.82s-1.58-1.09-2.89-1.09c-.73,0-1.49.17-2.28.51-.78.34-1.55.75-2.29,1.25s-1.44.98-2.08,1.47-1.19.88-1.64,1.2h-1.13l-.43-5.49c.91-.38,1.85-.75,2.83-1.09.97-.35,2.05-.64,3.22-.87,1.17-.23,2.48-.35,3.92-.35,1.6,0,3.15.25,4.65.75,1.5.5,2.74,1.39,3.71,2.65.97,1.27,1.45,3.04,1.41,5.33l-.07,13.73c0,.59.19,1.07.57,1.44s.87.56,1.46.56c.25,0,.6-.06,1.03-.17.43-.11.82-.23,1.17-.35h.55v2.11c-.32.26-.81.57-1.47.92-.66.36-1.36.67-2.1.94-.73.27-1.42.4-2.06.4-1.6,0-2.83-.35-3.69-1.05-.86-.7-1.29-1.88-1.29-3.52h-.22c-.81,1.33-1.72,2.33-2.72,2.99-1,.66-1.99,1.09-2.97,1.29s-1.88.3-2.7.3ZM232.44,168.22c.85,0,1.76-.19,2.73-.57.97-.38,1.76-1.05,2.35-2v-7.52c-1.79,0-3.36.17-4.71.52-1.35.35-2.4.92-3.14,1.73-.74.81-1.11,1.91-1.11,3.32,0,1.18.2,2.1.6,2.76.4.66.9,1.12,1.51,1.38.61.26,1.2.39,1.77.39Z"/>
    <path d="M249.91,171.78v-1.85l2.76-1.01c.29-.1.53-.26.72-.47.19-.21.29-.5.29-.88v-16.85c0-.54-.09-.95-.28-1.25-.18-.29-.48-.53-.9-.7l-2.78-1.2v-1.69l9.73-1.64v5.85h.14c.8-1.3,1.58-2.4,2.36-3.3s1.59-1.59,2.46-2.05c.86-.47,1.79-.7,2.78-.7.85,0,1.6.09,2.25.27.65.18,1.29.48,1.92.9v7.54h-3.28l-.79-1.98c-.13-.35-.44-.65-.93-.92-.5-.27-1.01-.4-1.53-.4-.66,0-1.27.12-1.86.35s-1.13.58-1.64,1.03c-.51.45-1.03,1.01-1.56,1.69v15.06c0,.71.34,1.16,1.01,1.35l3.5,1.01v1.85h-14.35Z"/>
    <path d="M273.53,171.78v-1.85l2.71-1.01c.32-.12.57-.29.74-.49.18-.21.26-.49.26-.86v-30.07c0-.42-.1-.73-.31-.95-.21-.22-.5-.4-.86-.56l-2.76-1.35v-1.69l10.04-1.07v26.4l9.42-10.27-2.8-1.41v-1.85h10.71v1.85l-2.83,1.09c-.35.12-.68.3-.99.55-.31.24-.6.49-.87.75l-5.73,5.67,8.27,13.16c.19.28.44.52.74.74.3.22.62.39.96.53l2.13.83v1.85h-11.91v-1.85l1.77-1.04-6.25-10.01-2.66,1.35v7.33c0,.38.1.67.29.86.19.19.43.36.72.49l2.25,1.01v1.85h-13.03Z"/>
    <path d="M305.88,149.34l-1.39-1.98c1.45-1.14,2.57-2.27,3.35-3.37s1.31-2.19,1.58-3.26c-.96-.59-1.73-1.09-2.32-1.51-.59-.42-1.02-.86-1.28-1.34-.26-.48-.4-1.09-.4-1.83,0-.5.14-1.04.41-1.6s.67-1.04,1.19-1.42c.52-.38,1.15-.57,1.9-.57,1.65,0,2.82.56,3.53,1.69.71,1.13,1.07,2.61,1.07,4.45,0,1.28-.24,2.47-.73,3.55s-1.13,2.07-1.92,2.95c-.79.88-1.63,1.68-2.5,2.38-.88.7-1.71,1.32-2.49,1.86Z"/>
    <path d="M315.63,170.67v-7.26h2.71l.81,2.65c.13.36.32.68.59.95s.52.48.75.64c.61.36,1.4.73,2.38,1.11.98.37,1.98.56,3.01.56.78,0,1.51-.14,2.19-.42.68-.28,1.23-.71,1.67-1.29.43-.58.65-1.33.65-2.25,0-1.2-.39-2.06-1.17-2.6-.78-.54-1.78-.99-3-1.35-.83-.26-1.64-.5-2.42-.73s-1.53-.45-2.25-.68c-1.81-.61-3.18-1.56-4.13-2.85-.95-1.29-1.43-2.82-1.43-4.59s.5-3.19,1.49-4.47c.99-1.28,2.3-2.28,3.94-3,1.64-.72,3.43-1.08,5.38-1.08,1.61,0,3.02.1,4.21.31s2.41.49,3.65.83l.22,7.36h-2.76l-.89-2.73c-.1-.31-.26-.59-.5-.83-.24-.24-.5-.44-.77-.6-.54-.31-1.19-.59-1.95-.85-.76-.25-1.55-.38-2.38-.38-1.04,0-1.95.29-2.73.88-.78.59-1.17,1.45-1.17,2.57,0,1.23.37,2.15,1.1,2.74.73.6,1.7,1.11,2.9,1.52.75.21,1.5.43,2.25.68.75.24,1.41.46,1.99.65,1.92.64,3.42,1.52,4.5,2.63,1.09,1.11,1.63,2.64,1.63,4.6s-.54,3.74-1.61,5.08-2.46,2.34-4.18,3-3.53.99-5.45.99-3.64-.2-5.16-.61c-1.53-.41-2.88-.81-4.06-1.21Z"/>
    <path d="M353.37,169.94l2.71-1.01c.34-.12.58-.28.74-.48s.24-.49.24-.87v-30.04c0-.42-.1-.74-.3-.96-.2-.22-.49-.43-.87-.62l-2.76-1.3v-1.69l10.04-1.07v15.14l-.07,1.72c.93-1.39,1.84-2.41,2.74-3.07s1.8-1.1,2.68-1.31c.89-.22,1.78-.33,2.67-.33,1.47,0,2.81.31,4.04.94,1.22.62,2.2,1.62,2.92,2.99.73,1.37,1.09,3.16,1.09,5.36v14.12c0,.45.1.78.29.99.19.21.42.37.69.49l2.47,1.01v1.85h-12.94v-1.85l2.37-1.01c.29-.1.52-.26.71-.48s.28-.55.28-1v-11.57c0-1.63-.12-3-.35-4.1-.23-1.1-.69-1.93-1.38-2.5-.69-.56-1.71-.84-3.07-.84-.85,0-1.76.15-2.73.44-.97.3-1.78.95-2.42,1.98v16.72c0,.38.1.67.29.86.19.19.43.36.72.49l2.13,1.01v1.85h-12.94v-1.85Z"/>
    <path d="M384.66,183.49l.48-5.67h1.15c.27.12.64.26,1.1.42s.95.3,1.46.44c.51.14.98.25,1.4.34s.73.13.92.13c.4,0,.79-.04,1.19-.13s.71-.23.95-.42c.46-.36.85-.8,1.16-1.3s.64-1.19.98-2.05c.34-.87.75-1.99,1.23-3.35l-2.28-3.77-7.81-19.4c-.13-.35-.31-.61-.55-.78-.24-.17-.53-.34-.86-.49l-1.89-.83v-1.85h12.84v1.85l-3.45,1.14,5.37,13.55,1.1,3.15h.29l5.56-16.15-3.31-1.69v-1.85h9.75v1.85l-1.96,1.3c-.3.21-.58.4-.84.57-.26.17-.45.42-.57.73l-9.58,27.21c-.8,2.25-1.69,3.96-2.67,5.12-.98,1.16-2.02,1.93-3.1,2.32-1.09.38-2.2.57-3.33.57-.48,0-1.03-.05-1.65-.14-.62-.1-1.22-.22-1.8-.38s-1-.29-1.27-.42Z"/>
    <path d="M412.67,184.42v-1.85l2.83-1.07c.34-.1.59-.26.75-.46.17-.2.25-.48.25-.85v-29.96c0-.42-.1-.74-.3-.96-.2-.23-.5-.42-.9-.6l-2.54-1.12v-1.69l9.51-1.64v4.47h.22c.7-1.11,1.48-2.01,2.34-2.71s1.77-1.2,2.74-1.51c.97-.31,2.01-.47,3.11-.47,2.06,0,3.82.57,5.28,1.72,1.46,1.14,2.58,2.7,3.35,4.66s1.16,4.2,1.16,6.71c0,2.76-.46,5.28-1.39,7.56s-2.27,4.1-4.03,5.46-3.86,2.04-6.3,2.04c-1.45,0-2.7-.28-3.75-.84-1.05-.56-1.88-1.21-2.5-1.94l.07,1.43v9.39c0,.36.1.65.29.85.19.2.44.35.74.46l3.47,1.07v1.85h-14.42ZM422.59,150.85v16.46c.4.31.9.56,1.5.74.6.18,1.21.33,1.85.43.63.1,1.14.16,1.52.16,1.53,0,2.79-.45,3.76-1.34.97-.89,1.69-2.08,2.16-3.55.46-1.47.69-3.09.69-4.84,0-2.05-.22-3.87-.67-5.46-.45-1.59-1.15-2.86-2.12-3.78s-2.23-1.39-3.8-1.39c-1.05,0-2.02.23-2.89.7-.87.47-1.54,1.09-2,1.87Z"/>
    <path d="M456.52,172.41c-2.4,0-4.52-.54-6.39-1.61-1.86-1.08-3.33-2.65-4.4-4.73-1.07-2.08-1.61-4.63-1.61-7.65,0-2.65.52-5.07,1.55-7.24,1.03-2.18,2.48-3.91,4.36-5.21,1.88-1.3,4.09-1.95,6.62-1.95,2.28,0,4.23.5,5.82,1.51,1.6,1.01,2.82,2.32,3.67,3.94.85,1.62,1.27,3.36,1.27,5.21,0,.23-.01.54-.04.95s-.05.81-.07,1.21c-.02.4-.05.69-.08.88h-17.13l.07-2.81h10.9c0-1.58-.15-2.96-.46-4.15-.3-1.19-.81-2.12-1.51-2.78-.7-.67-1.65-1-2.85-1s-2.1.3-2.86.91c-.76.61-1.36,1.41-1.8,2.42-.44,1.01-.75,2.11-.92,3.3-.18,1.2-.26,2.39-.26,3.59,0,2.13.28,4.01.83,5.64.55,1.63,1.45,2.9,2.68,3.81,1.24.91,2.9,1.37,4.97,1.37,1.18,0,2.26-.15,3.22-.44.97-.29,1.82-.65,2.58-1.07.75-.42,1.37-.82,1.87-1.2h.77v2.68c-1.18,1.04-2.72,2.04-4.61,2.99-1.89.95-3.96,1.43-6.19,1.43Z"/>
    <path d="M470.87,171.78v-1.85l2.76-1.01c.29-.1.53-.26.72-.47.19-.21.29-.5.29-.88v-16.85c0-.54-.09-.95-.28-1.25-.18-.29-.48-.53-.9-.7l-2.78-1.2v-1.69l9.73-1.64v5.85h.14c.8-1.3,1.58-2.4,2.36-3.3s1.59-1.59,2.46-2.05c.86-.47,1.79-.7,2.78-.7.85,0,1.6.09,2.25.27.65.18,1.29.48,1.92.9v7.54h-3.28l-.79-1.98c-.13-.35-.44-.65-.93-.92-.5-.27-1.01-.4-1.53-.4-.66,0-1.27.12-1.86.35s-1.13.58-1.64,1.03c-.51.45-1.03,1.01-1.56,1.69v15.06c0,.71.34,1.16,1.01,1.35l3.5,1.01v1.85h-14.35Z"/>
    <path d="M494.42,171.78v-1.85l3.16-1.04c.3-.14.55-.31.73-.51.18-.2.28-.48.28-.84v-30.01c0-.42-.1-.75-.31-.99-.21-.24-.5-.44-.89-.6l-3.19-1.3v-1.69l10.49-1.07v35.66c0,.38.1.67.29.87.19.2.42.36.69.48l3.02,1.04v1.85h-14.28Z"/>
    <path d="M524.32,172.49c-2.56,0-4.78-.57-6.67-1.72-1.89-1.14-3.35-2.77-4.38-4.89-1.03-2.12-1.55-4.64-1.55-7.57,0-2.72.51-5.16,1.53-7.31,1.02-2.15,2.5-3.85,4.43-5.11,1.93-1.26,4.23-1.89,6.9-1.89,2.88,0,5.24.66,7.1,1.98,1.86,1.32,3.24,3.06,4.15,5.21.9,2.16,1.35,4.5,1.35,7.01,0,2.67-.51,5.08-1.53,7.24-1.02,2.16-2.5,3.87-4.43,5.14s-4.23,1.9-6.9,1.9ZM524.66,169.49c1.17,0,2.14-.33,2.91-1,.77-.67,1.38-1.53,1.82-2.6.44-1.07.75-2.23.92-3.49.18-1.26.26-2.49.26-3.71,0-1.94-.2-3.81-.6-5.59-.4-1.79-1.06-3.25-1.99-4.4-.93-1.14-2.17-1.72-3.74-1.72-1.18,0-2.16.33-2.92.99s-1.37,1.52-1.82,2.58c-.45,1.06-.75,2.21-.92,3.46-.17,1.25-.25,2.47-.25,3.67,0,1.33.09,2.69.28,4.07.18,1.38.52,2.65.99,3.82.48,1.17,1.13,2.12,1.94,2.83.81.72,1.85,1.08,3.11,1.08Z"/>
    <path d="M561.61,165.2h.79v2.78c-1.13,1.01-2.53,1.99-4.19,2.96-1.66.97-3.59,1.46-5.77,1.46-2.43,0-4.5-.6-6.23-1.81s-3.04-2.83-3.95-4.88c-.91-2.05-1.37-4.34-1.37-6.89,0-2.08.34-4.02,1.03-5.81.69-1.79,1.65-3.36,2.89-4.69,1.24-1.33,2.69-2.38,4.35-3.12,1.66-.75,3.47-1.12,5.42-1.12,1.26,0,2.35.13,3.27.38.92.25,1.7.54,2.34.86.64.32,1.16.59,1.56.82l-.46,5.67h-1.15c-.81-.59-1.67-1.19-2.58-1.81s-1.83-1.14-2.79-1.57-1.95-.65-2.97-.65c-.43,0-.88.13-1.35.38-.47.25-.89.63-1.26,1.13-.29.38-.58.93-.89,1.65-.3.72-.55,1.62-.74,2.72-.19,1.09-.29,2.38-.29,3.85,0,3.33.65,5.91,1.95,7.74,1.3,1.83,3.26,2.74,5.88,2.74.91,0,1.77-.15,2.58-.46.81-.3,1.55-.67,2.22-1.09s1.25-.84,1.73-1.24Z"/>
    <path d="M572.24,172.33c-1.44,0-2.68-.36-3.73-1.08-1.05-.72-1.85-1.66-2.42-2.81-.57-1.15-.85-2.37-.85-3.65,0-1.73.38-3.2,1.15-4.4.77-1.2,1.76-2.16,2.97-2.9,1.21-.74,2.5-1.27,3.85-1.61,1.35-.34,2.61-.51,3.77-.51.22,0,.58.03,1.08.08.5.05.99.1,1.5.16.5.05.85.09,1.04.1l.02-3.41c.02-1.82-.28-3.09-.9-3.82s-1.58-1.09-2.89-1.09c-.73,0-1.49.17-2.28.51-.78.34-1.55.75-2.29,1.25s-1.44.98-2.08,1.47-1.19.88-1.64,1.2h-1.13l-.43-5.49c.91-.38,1.85-.75,2.83-1.09.97-.35,2.05-.64,3.22-.87,1.17-.23,2.48-.35,3.92-.35,1.6,0,3.15.25,4.65.75,1.5.5,2.74,1.39,3.71,2.65.97,1.27,1.45,3.04,1.41,5.33l-.07,13.73c0,.59.19,1.07.57,1.44s.87.56,1.46.56c.25,0,.6-.06,1.03-.17.43-.11.82-.23,1.17-.35h.55v2.11c-.32.26-.81.57-1.47.92-.66.36-1.36.67-2.1.94-.73.27-1.42.4-2.06.4-1.6,0-2.83-.35-3.69-1.05-.86-.7-1.29-1.88-1.29-3.52h-.22c-.81,1.33-1.72,2.33-2.72,2.99-1,.66-1.99,1.09-2.97,1.29s-1.88.3-2.7.3ZM575.53,168.22c.85,0,1.76-.19,2.73-.57.97-.38,1.76-1.05,2.35-2v-7.52c-1.79,0-3.36.17-4.71.52-1.35.35-2.4.92-3.14,1.73-.74.81-1.11,1.91-1.11,3.32,0,1.18.2,2.1.6,2.76.4.66.9,1.12,1.51,1.38.61.26,1.2.39,1.77.39Z"/>
    <path d="M592.42,171.78v-1.85l3.16-1.04c.3-.14.55-.31.73-.51.18-.2.28-.48.28-.84v-30.01c0-.42-.1-.75-.31-.99-.21-.24-.5-.44-.89-.6l-3.19-1.3v-1.69l10.49-1.07v35.66c0,.38.1.67.29.87s.42.36.7.48l3.02,1.04v1.85h-14.28Z"/>
    <path d="M611.99,181.72l-1.58-2.08c1.45-1.18,2.61-2.43,3.46-3.75.85-1.32,1.42-2.52,1.69-3.62-.97-.59-1.76-1.11-2.37-1.56-.61-.45-1.05-.93-1.33-1.44-.28-.51-.42-1.15-.42-1.91,0-.5.14-1.04.43-1.6.29-.56.7-1.05,1.25-1.46s1.2-.61,1.96-.61c1.69,0,2.9.58,3.63,1.74.73,1.16,1.09,2.68,1.09,4.55,0,1.34-.26,2.59-.78,3.77-.52,1.18-1.19,2.27-2.01,3.26-.82,1-1.69,1.89-2.59,2.69-.9.8-1.71,1.46-2.43,2Z"/>
    <path d="M657.11,144.86l-.38,3.25h-8.39v16.67c0,.76.27,1.4.81,1.92.54.52,1.18.91,1.91,1.17.73.26,1.35.39,1.88.39s1.13-.07,1.82-.2c.69-.13,1.19-.26,1.51-.38h.77v2.05c-.35.23-.91.54-1.67.94-.76.4-1.64.76-2.65,1.08-1.01.32-2.06.48-3.16.48-1.34,0-2.57-.22-3.68-.66s-2-1.07-2.66-1.9c-.66-.82-1-1.8-1-2.93v-18.65h-4v-2.5c.88-.17,1.65-.36,2.3-.57.66-.21,1.17-.58,1.55-1.1.38-.53.59-1.36.66-2.48l.24-3.59,5.37-.96v7.96h8.77Z"/>
    <path d="M659.15,171.78v-1.85l2.76-1.01c.29-.1.53-.26.72-.47s.29-.5.29-.88v-16.85c0-.54-.09-.95-.28-1.25s-.48-.53-.9-.7l-2.78-1.2v-1.69l9.73-1.64v5.85h.14c.8-1.3,1.58-2.4,2.36-3.3.77-.9,1.59-1.59,2.46-2.05.86-.47,1.79-.7,2.78-.7.85,0,1.6.09,2.25.27.65.18,1.29.48,1.92.9v7.54h-3.28l-.79-1.98c-.13-.35-.44-.65-.93-.92-.5-.27-1.01-.4-1.53-.4-.66,0-1.27.12-1.86.35s-1.13.58-1.64,1.03c-.51.45-1.03,1.01-1.56,1.69v15.06c0,.71.33,1.16,1.01,1.35l3.5,1.01v1.85h-14.35Z"/>
    <path d="M683.35,171.78v-1.85l3.21-1.04c.32-.12.57-.28.75-.48s.28-.49.28-.87v-17.09c0-.4-.1-.72-.31-.96-.21-.24-.5-.43-.89-.57l-2.97-1.2v-1.69l10.28-1.38v22.89c0,.38.1.68.29.88.19.21.43.36.72.47l3.11,1.04v1.85h-14.47ZM690.27,139.77c-.7,0-1.36-.18-1.96-.53-.61-.36-1.1-.83-1.47-1.42-.38-.59-.56-1.27-.56-2.03,0-1.16.4-2.1,1.19-2.81.79-.71,1.73-1.07,2.82-1.07,1.18,0,2.16.33,2.95,1,.78.67,1.17,1.57,1.17,2.69,0,.8-.19,1.51-.56,2.13-.38.62-.87,1.12-1.5,1.48s-1.31.55-2.06.55Z"/>
    <path d="M699.9,171.78v-1.85l3.16-1.04c.3-.14.55-.31.73-.51.18-.2.28-.48.28-.84v-30.01c0-.42-.1-.75-.31-.99-.21-.24-.5-.44-.89-.6l-3.19-1.3v-1.69l10.49-1.07v35.66c0,.38.1.67.29.87s.42.36.69.48l3.02,1.04v1.85h-14.28Z"/>
    <path d="M716.84,171.78v-1.85l3.21-1.04c.32-.12.57-.28.75-.48s.28-.49.28-.87v-17.09c0-.4-.1-.72-.31-.96-.21-.24-.5-.43-.89-.57l-2.97-1.2v-1.69l10.28-1.38v22.89c0,.38.1.68.29.88.19.21.43.36.72.47l3.11,1.04v1.85h-14.47ZM723.77,139.77c-.7,0-1.36-.18-1.96-.53-.61-.36-1.1-.83-1.47-1.42-.38-.59-.56-1.27-.56-2.03,0-1.16.4-2.1,1.19-2.81.79-.71,1.73-1.07,2.82-1.07,1.18,0,2.16.33,2.95,1,.78.67,1.17,1.57,1.17,2.69,0,.8-.19,1.51-.56,2.13-.38.62-.87,1.12-1.5,1.48s-1.31.55-2.06.55Z"/>
    <path d="M733.9,171.78v-1.85l2.75-1.01c.29-.12.53-.28.72-.48.19-.2.29-.49.29-.87v-17.32c0-.42-.1-.74-.31-.98-.21-.23-.51-.43-.91-.58l-2.52-1.12v-1.69l9.51-1.64v4.37h.19c.94-1.32,1.87-2.3,2.77-2.95s1.81-1.08,2.72-1.3,1.8-.33,2.68-.33c1.49,0,2.83.32,4.05.95s2.18,1.63,2.89,3c.71,1.37,1.07,3.15,1.07,5.33v14.12c0,.45.1.78.3.99.2.21.43.37.71.49l2.44,1.01v1.85h-12.94v-1.85l2.37-1.01c.29-.12.53-.29.72-.49s.29-.54.29-.99v-11.57c0-1.6-.11-2.94-.33-4.04-.22-1.1-.67-1.94-1.35-2.52-.68-.58-1.7-.87-3.06-.87-.86,0-1.78.15-2.75.44-.97.3-1.78.95-2.42,1.98v16.72c0,.38.1.67.29.86.19.19.42.36.69.49l2.13,1.01v1.85h-12.99Z"/>
    <path d="M777.82,162.42c-.93,0-1.75-.06-2.48-.18s-1.31-.26-1.76-.42c-.37.12-.72.4-1.04.84s-.49.99-.49,1.65c0,.71.2,1.26.61,1.65.41.39.88.64,1.43.74h8.34c2.28,0,4.08.38,5.39,1.14,1.31.76,2.23,1.71,2.77,2.85.53,1.13.8,2.27.8,3.39,0,2.03-.62,3.82-1.85,5.38-1.23,1.56-2.9,2.77-5.01,3.64-2.11.87-4.47,1.3-7.09,1.3-2.25,0-4.27-.26-6.05-.79-1.78-.53-3.17-1.3-4.18-2.33-1.01-1.02-1.51-2.27-1.51-3.75,0-1.72.52-3.03,1.57-3.95,1.05-.92,2.45-1.6,4.21-2.05v-.23c-.66-.16-1.31-.45-1.98-.87-.66-.42-1.23-.99-1.7-1.69-.47-.7-.71-1.52-.71-2.46,0-1.04.25-1.92.75-2.64.5-.72,1.13-1.29,1.89-1.7.76-.42,1.5-.73,2.24-.94v-.16c-.7-.43-1.41-.98-2.11-1.64-.7-.66-1.29-1.47-1.77-2.44s-.72-2.12-.72-3.46c0-1.73.45-3.31,1.35-4.72s2.16-2.53,3.76-3.36c1.61-.82,3.49-1.24,5.64-1.24,1.04,0,2.03.08,2.96.23.93.16,1.84.33,2.72.52h8.77l-.29,3.67-6.18-.78v.16c.8.78,1.38,1.65,1.75,2.6.37.95.55,1.97.55,3.04,0,2.58-.93,4.72-2.78,6.42-1.85,1.7-4.46,2.55-7.81,2.55ZM778.61,181.43c1.17,0,2.31-.18,3.44-.55,1.13-.36,2.05-.96,2.78-1.78s1.09-1.9,1.09-3.24c0-.97-.34-1.86-1.03-2.68-.69-.82-1.81-1.22-3.38-1.22h-7.96c-.38.29-.77.78-1.17,1.44-.4.67-.6,1.58-.6,2.74,0,1.04.24,1.9.71,2.58.47.68,1.06,1.21,1.77,1.61s1.46.68,2.25.85c.79.16,1.49.25,2.1.25ZM777.94,159.95c.96,0,1.75-.28,2.37-.83s1.09-1.34,1.4-2.35c.31-1.01.47-2.23.47-3.65,0-2.06-.38-3.66-1.14-4.8s-1.8-1.7-3.13-1.7c-.83,0-1.55.25-2.17.74s-1.09,1.23-1.44,2.2-.52,2.17-.52,3.59c0,2.17.36,3.85,1.08,5.03s1.74,1.78,3.07,1.78Z"/>
    <path d="M805.76,172.33c-1.49,0-2.83-.32-4.03-.95s-2.15-1.63-2.86-2.99c-.71-1.36-1.07-3.14-1.07-5.34v-12.8c0-.42-.1-.74-.31-.98-.21-.23-.5-.43-.86-.58l-2.54-1.12v-1.69l9.87-1.64v16.25c0,1.58.1,2.92.31,4.02.21,1.1.64,1.94,1.29,2.51.65.57,1.65.86,3,.86s2.36-.2,3.2-.61c.84-.41,1.51-.99,2-1.76v-15.27c0-.42-.1-.72-.31-.92-.21-.2-.5-.39-.89-.56l-2.61-1.09v-1.69l9.92-1.74v22.05c0,.38.1.69.3.94.2.24.5.44.9.6l2.61,1.04v1.72l-9.34,1.72h-.26v-4.58h-.17c-1.05,1.54-2.2,2.7-3.45,3.46-1.25.76-2.81,1.14-4.7,1.14Z"/>
    <path d="M833.69,172.33c-1.44,0-2.68-.36-3.73-1.08-1.05-.72-1.85-1.66-2.42-2.81-.57-1.15-.85-2.37-.85-3.65,0-1.73.38-3.2,1.15-4.4s1.76-2.16,2.97-2.9c1.21-.74,2.5-1.27,3.85-1.61,1.35-.34,2.61-.51,3.77-.51.22,0,.58.03,1.08.08.5.05.99.1,1.5.16.5.05.85.09,1.04.1l.02-3.41c.02-1.82-.28-3.09-.9-3.82s-1.58-1.09-2.89-1.09c-.74,0-1.49.17-2.28.51-.78.34-1.55.75-2.29,1.25-.74.49-1.44.98-2.08,1.47-.65.49-1.19.88-1.64,1.2h-1.13l-.43-5.49c.91-.38,1.85-.75,2.83-1.09.97-.35,2.05-.64,3.22-.87,1.17-.23,2.48-.35,3.92-.35,1.6,0,3.15.25,4.65.75,1.5.5,2.74,1.39,3.71,2.65s1.45,3.04,1.41,5.33l-.07,13.73c0,.59.19,1.07.58,1.44.38.37.87.56,1.46.56.25,0,.6-.06,1.03-.17.43-.11.82-.23,1.17-.35h.55v2.11c-.32.26-.81.57-1.47.92s-1.36.67-2.1.94c-.74.27-1.42.4-2.06.4-1.6,0-2.83-.35-3.69-1.05s-1.29-1.88-1.29-3.52h-.22c-.81,1.33-1.72,2.33-2.72,2.99-1,.66-1.99,1.09-2.97,1.29s-1.88.3-2.7.3ZM836.98,168.22c.85,0,1.76-.19,2.73-.57.97-.38,1.76-1.05,2.35-2v-7.52c-1.79,0-3.36.17-4.71.52-1.35.35-2.4.92-3.14,1.73-.74.81-1.11,1.91-1.11,3.32,0,1.18.2,2.1.6,2.76.4.66.9,1.12,1.51,1.38.61.26,1.2.39,1.77.39Z"/>
    <path d="M853.87,171.78v-1.85l3.16-1.04c.3-.14.55-.31.73-.51.18-.2.28-.48.28-.84v-30.01c0-.42-.1-.75-.31-.99-.21-.24-.5-.44-.89-.6l-3.19-1.3v-1.69l10.49-1.07v35.66c0,.38.1.67.29.87s.42.36.69.48l3.02,1.04v1.85h-14.28Z"/>
    <path d="M885.18,171.78v-1.85l2.75-1.01c.29-.12.53-.28.72-.48.19-.2.29-.49.29-.87v-17.32c0-.42-.1-.74-.31-.98-.21-.23-.51-.43-.91-.58l-2.52-1.12v-1.69l9.51-1.64v4.37h.19c.94-1.32,1.87-2.3,2.77-2.95s1.81-1.08,2.72-1.3,1.8-.33,2.68-.33c1.49,0,2.83.32,4.05.95s2.18,1.63,2.89,3c.71,1.37,1.07,3.15,1.07,5.33v14.12c0,.45.1.78.3.99.2.21.43.37.71.49l2.44,1.01v1.85h-12.94v-1.85l2.37-1.01c.29-.12.53-.29.72-.49s.29-.54.29-.99v-11.57c0-1.6-.11-2.94-.33-4.04-.22-1.1-.67-1.94-1.35-2.52-.68-.58-1.7-.87-3.06-.87-.86,0-1.78.15-2.75.44-.97.3-1.78.95-2.42,1.98v16.72c0,.38.1.67.29.86.19.19.42.36.69.49l2.13,1.01v1.85h-12.99Z"/>
    <path d="M929.82,172.41c-2.4,0-4.53-.54-6.39-1.61-1.86-1.08-3.33-2.65-4.4-4.73-1.07-2.08-1.61-4.63-1.61-7.65,0-2.65.51-5.07,1.54-7.24,1.03-2.18,2.48-3.91,4.36-5.21,1.88-1.3,4.08-1.95,6.62-1.95,2.28,0,4.22.5,5.82,1.51,1.6,1.01,2.82,2.32,3.67,3.94s1.27,3.36,1.27,5.21c0,.23-.01.54-.04.95-.02.41-.05.81-.07,1.21-.02.4-.05.69-.08.88h-17.13l.07-2.81h10.9c0-1.58-.15-2.96-.46-4.15-.3-1.19-.81-2.12-1.51-2.78-.7-.67-1.65-1-2.85-1s-2.11.3-2.86.91c-.76.61-1.36,1.41-1.8,2.42-.44,1.01-.75,2.11-.92,3.3s-.26,2.39-.26,3.59c0,2.13.28,4.01.83,5.64.55,1.63,1.45,2.9,2.68,3.81,1.24.91,2.9,1.37,4.97,1.37,1.18,0,2.26-.15,3.22-.44.97-.29,1.82-.65,2.58-1.07.75-.42,1.37-.82,1.87-1.2h.77v2.68c-1.18,1.04-2.72,2.04-4.61,2.99-1.89.95-3.96,1.43-6.19,1.43Z"/>
    <path d="M953.76,172.02l-7.79-23.23c-.11-.33-.3-.6-.55-.81s-.55-.39-.89-.55l-1.82-.83v-1.85h12.7v1.85l-3.52,1.14,4.19,13.11.96,3.88h.26l4.38-13.99,2.28-5.98h3.28l5.3,16.05,1.05,3.9h.26l5.06-16.41-3.35-1.69v-1.85h9.75v1.85l-1.87,1.3c-.33.21-.63.42-.89.62-.25.21-.44.48-.55.81l-5.63,16.98-2.49,5.7h-3.57l-5.2-15.55-.82-3.67h-.19l-4.24,13.52-2.52,5.7h-3.59Z"/>
    <path d="M987.9,170.67v-7.26h2.71l.81,2.65c.13.36.32.68.59.95s.51.48.75.64c.61.36,1.4.73,2.38,1.11.98.37,1.98.56,3.01.56.78,0,1.51-.14,2.19-.42s1.23-.71,1.67-1.29c.43-.58.65-1.33.65-2.25,0-1.2-.39-2.06-1.17-2.6-.78-.54-1.78-.99-3-1.35-.83-.26-1.64-.5-2.42-.73-.78-.23-1.53-.45-2.25-.68-1.8-.61-3.18-1.56-4.13-2.85-.95-1.29-1.43-2.82-1.43-4.59s.5-3.19,1.49-4.47c.99-1.28,2.3-2.28,3.94-3,1.64-.72,3.43-1.08,5.38-1.08,1.61,0,3.01.1,4.21.31,1.19.21,2.41.49,3.65.83l.22,7.36h-2.75l-.89-2.73c-.1-.31-.26-.59-.5-.83-.24-.24-.5-.44-.77-.6-.54-.31-1.19-.59-1.95-.85-.76-.25-1.55-.38-2.38-.38-1.04,0-1.95.29-2.73.88-.78.59-1.17,1.45-1.17,2.57,0,1.23.37,2.15,1.1,2.74.73.6,1.7,1.11,2.9,1.52.75.21,1.5.43,2.25.68.75.24,1.41.46,1.99.65,1.92.64,3.42,1.52,4.5,2.63,1.09,1.11,1.63,2.64,1.63,4.6s-.54,3.74-1.6,5.08c-1.07,1.34-2.46,2.34-4.18,3s-3.53.99-5.45.99-3.64-.2-5.16-.61-2.88-.81-4.06-1.21Z"/>
    <path d="M1011.36,184.42v-1.85l2.83-1.07c.34-.1.59-.26.75-.46.17-.2.25-.48.25-.85v-29.96c0-.42-.1-.74-.3-.96-.2-.23-.5-.42-.9-.6l-2.54-1.12v-1.69l9.51-1.64v4.47h.21c.7-1.11,1.48-2.01,2.34-2.71.85-.69,1.77-1.2,2.74-1.51.97-.31,2.01-.47,3.12-.47,2.06,0,3.82.57,5.28,1.72,1.46,1.14,2.58,2.7,3.35,4.66.77,1.96,1.16,4.2,1.16,6.71,0,2.76-.46,5.28-1.39,7.56-.93,2.28-2.27,4.1-4.03,5.46-1.76,1.36-3.86,2.04-6.3,2.04-1.45,0-2.7-.28-3.75-.84-1.05-.56-1.88-1.21-2.5-1.94l.07,1.43v9.39c0,.36.1.65.29.85.19.2.44.35.74.46l3.47,1.07v1.85h-14.42ZM1021.28,150.85v16.46c.4.31.9.56,1.5.74.6.18,1.21.33,1.84.43.63.1,1.14.16,1.52.16,1.53,0,2.79-.45,3.76-1.34.97-.89,1.69-2.08,2.16-3.55.46-1.47.69-3.09.69-4.84,0-2.05-.22-3.87-.67-5.46-.45-1.59-1.15-2.86-2.12-3.78-.97-.93-2.23-1.39-3.8-1.39-1.05,0-2.02.23-2.89.7-.87.47-1.54,1.09-2,1.87Z"/>
    <path d="M1050.03,172.33c-1.44,0-2.68-.36-3.73-1.08-1.05-.72-1.85-1.66-2.42-2.81-.57-1.15-.85-2.37-.85-3.65,0-1.73.38-3.2,1.15-4.4s1.76-2.16,2.97-2.9c1.21-.74,2.5-1.27,3.85-1.61,1.35-.34,2.61-.51,3.77-.51.22,0,.58.03,1.08.08.5.05.99.1,1.5.16.5.05.85.09,1.04.1l.02-3.41c.02-1.82-.28-3.09-.9-3.82s-1.58-1.09-2.89-1.09c-.74,0-1.49.17-2.28.51-.78.34-1.55.75-2.29,1.25-.74.49-1.44.98-2.08,1.47-.65.49-1.19.88-1.64,1.2h-1.13l-.43-5.49c.91-.38,1.85-.75,2.83-1.09.97-.35,2.05-.64,3.22-.87,1.17-.23,2.48-.35,3.92-.35,1.6,0,3.15.25,4.65.75,1.5.5,2.74,1.39,3.71,2.65s1.45,3.04,1.41,5.33l-.07,13.73c0,.59.19,1.07.58,1.44.38.37.87.56,1.46.56.25,0,.6-.06,1.03-.17.43-.11.82-.23,1.17-.35h.55v2.11c-.32.26-.81.57-1.47.92s-1.36.67-2.1.94c-.74.27-1.42.4-2.06.4-1.6,0-2.83-.35-3.69-1.05s-1.29-1.88-1.29-3.52h-.22c-.81,1.33-1.72,2.33-2.72,2.99-1,.66-1.99,1.09-2.97,1.29s-1.88.3-2.7.3ZM1053.31,168.22c.85,0,1.76-.19,2.73-.57.97-.38,1.76-1.05,2.35-2v-7.52c-1.79,0-3.36.17-4.71.52-1.35.35-2.4.92-3.14,1.73-.74.81-1.11,1.91-1.11,3.32,0,1.18.2,2.1.6,2.76.4.66.9,1.12,1.51,1.38.61.26,1.2.39,1.77.39Z"/>
    <path d="M1070.35,184.42v-1.85l2.83-1.07c.34-.1.59-.26.75-.46.17-.2.25-.48.25-.85v-29.96c0-.42-.1-.74-.3-.96-.2-.23-.5-.42-.9-.6l-2.54-1.12v-1.69l9.51-1.64v4.47h.21c.7-1.11,1.48-2.01,2.34-2.71.85-.69,1.77-1.2,2.74-1.51.97-.31,2.01-.47,3.12-.47,2.06,0,3.82.57,5.28,1.72,1.46,1.14,2.58,2.7,3.35,4.66.77,1.96,1.16,4.2,1.16,6.71,0,2.76-.46,5.28-1.39,7.56-.93,2.28-2.27,4.1-4.03,5.46-1.76,1.36-3.86,2.04-6.3,2.04-1.45,0-2.7-.28-3.75-.84-1.05-.56-1.88-1.21-2.5-1.94l.07,1.43v9.39c0,.36.1.65.29.85.19.2.44.35.74.46l3.47,1.07v1.85h-14.42ZM1080.27,150.85v16.46c.4.31.9.56,1.5.74.6.18,1.21.33,1.84.43.63.1,1.14.16,1.52.16,1.53,0,2.79-.45,3.76-1.34.97-.89,1.69-2.08,2.16-3.55.46-1.47.69-3.09.69-4.84,0-2.05-.22-3.87-.67-5.46-.45-1.59-1.15-2.86-2.12-3.78-.97-.93-2.23-1.39-3.8-1.39-1.05,0-2.02.23-2.89.7-.87.47-1.54,1.09-2,1.87Z"/>
    <path d="M1114.2,172.41c-2.4,0-4.53-.54-6.39-1.61-1.86-1.08-3.33-2.65-4.4-4.73-1.07-2.08-1.61-4.63-1.61-7.65,0-2.65.51-5.07,1.54-7.24,1.03-2.18,2.48-3.91,4.36-5.21,1.88-1.3,4.08-1.95,6.62-1.95,2.28,0,4.22.5,5.82,1.51,1.6,1.01,2.82,2.32,3.67,3.94s1.27,3.36,1.27,5.21c0,.23-.01.54-.04.95-.02.41-.05.81-.07,1.21-.02.4-.05.69-.08.88h-17.13l.07-2.81h10.9c0-1.58-.15-2.96-.46-4.15-.3-1.19-.81-2.12-1.51-2.78-.7-.67-1.65-1-2.85-1s-2.11.3-2.86.91c-.76.61-1.36,1.41-1.8,2.42-.44,1.01-.75,2.11-.92,3.3s-.26,2.39-.26,3.59c0,2.13.28,4.01.83,5.64.55,1.63,1.45,2.9,2.68,3.81,1.24.91,2.9,1.37,4.97,1.37,1.18,0,2.26-.15,3.22-.44.97-.29,1.82-.65,2.58-1.07.75-.42,1.37-.82,1.87-1.2h.77v2.68c-1.18,1.04-2.72,2.04-4.61,2.99-1.89.95-3.96,1.43-6.19,1.43Z"/>
    <path d="M1128.55,171.78v-1.85l2.76-1.01c.29-.1.53-.26.72-.47s.29-.5.29-.88v-16.85c0-.54-.09-.95-.28-1.25s-.48-.53-.9-.7l-2.78-1.2v-1.69l9.73-1.64v5.85h.14c.8-1.3,1.58-2.4,2.36-3.3.77-.9,1.59-1.59,2.46-2.05.86-.47,1.79-.7,2.78-.7.85,0,1.6.09,2.25.27.65.18,1.29.48,1.92.9v7.54h-3.28l-.79-1.98c-.13-.35-.44-.65-.93-.92-.5-.27-1.01-.4-1.53-.4-.66,0-1.27.12-1.86.35s-1.13.58-1.64,1.03c-.51.45-1.03,1.01-1.56,1.69v15.06c0,.71.33,1.16,1.01,1.35l3.5,1.01v1.85h-14.35Z"/>
  </g>
</svg>