<?xml version="1.0" encoding="UTF-8"?><svg id="Layer_1" xmlns="http://www.w3.org/2000/svg" viewBox="0 0 300 600"><defs><style>.cls-1{fill:#ff0;stroke:#000;stroke-miterlimit:10;stroke-width:2px;}</style></defs><rect class="cls-1" x="0" width="300" height="600" rx="12" ry="12"/><path d="M24.24,240.12l-2.66,8.05h-3.42l8.7-25.61h3.99l8.74,25.61h-3.53l-2.74-8.05h-9.08ZM32.63,237.54l-2.51-7.37c-.57-1.67-.95-3.19-1.33-4.67h-.08c-.38,1.52-.8,3.08-1.29,4.64l-2.51,7.41h7.71Z"/><path d="M55.89,247.49c-.87.46-2.81,1.06-5.28,1.06-5.55,0-9.16-3.76-9.16-9.38s3.88-9.76,9.88-9.76c1.98,0,3.72.49,4.64.95l-.76,2.58c-.8-.46-2.05-.87-3.88-.87-4.22,0-6.5,3.12-6.5,6.95,0,4.26,2.74,6.88,6.38,6.88,1.9,0,3.15-.49,4.1-.91l.57,2.51Z"/><path d="M61.44,239.59c.08,4.52,2.96,6.38,6.31,6.38,2.39,0,3.84-.42,5.09-.95l.57,2.39c-1.18.53-3.19,1.14-6.12,1.14-5.66,0-9.04-3.72-9.04-9.27s3.27-9.92,8.62-9.92c6,0,7.6,5.28,7.6,8.66,0,.68-.08,1.22-.11,1.56h-12.92ZM71.24,237.2c.04-2.13-.87-5.43-4.64-5.43-3.38,0-4.86,3.12-5.13,5.43h9.76ZM72.04,221.85l-4.64,5.43h-2.39l3.34-5.43h3.69Z"/><path d="M78.62,235.53c0-2.17-.04-4.03-.15-5.74h2.93l.11,3.61h.15c.84-2.47,2.85-4.03,5.09-4.03.38,0,.65.04.95.11v3.15c-.34-.08-.68-.11-1.14-.11-2.36,0-4.03,1.79-4.48,4.29-.08.46-.15.99-.15,1.56v9.8h-3.31v-12.65Z"/><path d="M103.77,247.49c-.87.46-2.81,1.06-5.28,1.06-5.55,0-9.16-3.76-9.16-9.38s3.88-9.76,9.88-9.76c1.98,0,3.72.49,4.63.95l-.76,2.58c-.8-.46-2.05-.87-3.88-.87-4.22,0-6.5,3.12-6.5,6.95,0,4.26,2.74,6.88,6.38,6.88,1.9,0,3.15-.49,4.1-.91l.57,2.51Z"/><path d="M117.87,248.18l-.27-2.32h-.11c-1.03,1.44-3,2.74-5.62,2.74-3.72,0-5.62-2.62-5.62-5.28,0-4.45,3.95-6.88,11.06-6.84v-.38c0-1.52-.42-4.26-4.18-4.26-1.71,0-3.5.53-4.79,1.37l-.76-2.2c1.52-.99,3.72-1.63,6.04-1.63,5.62,0,6.99,3.84,6.99,7.52v6.88c0,1.6.08,3.15.3,4.41h-3.04ZM117.37,238.79c-3.65-.08-7.79.57-7.79,4.14,0,2.17,1.44,3.19,3.15,3.19,2.39,0,3.91-1.52,4.45-3.08.11-.34.19-.72.19-1.06v-3.19Z"/><path d="M129.88,224.51v5.28h4.79v2.55h-4.79v9.92c0,2.28.65,3.57,2.51,3.57.87,0,1.52-.11,1.94-.23l.15,2.51c-.65.27-1.67.46-2.96.46-1.56,0-2.81-.49-3.61-1.41-.95-.99-1.29-2.62-1.29-4.79v-10.03h-2.85v-2.55h2.85v-4.41l3.27-.87Z"/><path d="M140.06,239.59c.08,4.52,2.96,6.38,6.31,6.38,2.39,0,3.84-.42,5.09-.95l.57,2.39c-1.18.53-3.19,1.14-6.12,1.14-5.66,0-9.04-3.72-9.04-9.27s3.27-9.92,8.62-9.92c6,0,7.6,5.28,7.6,8.66,0,.68-.08,1.22-.11,1.56h-12.92ZM149.86,237.2c.04-2.13-.87-5.43-4.64-5.43-3.38,0-4.86,3.12-5.13,5.43h9.76Z"/><path d="M175.47,248.18l-.27-2.32h-.11c-1.03,1.44-3,2.74-5.62,2.74-3.72,0-5.62-2.62-5.62-5.28,0-4.45,3.95-6.88,11.06-6.84v-.38c0-1.52-.42-4.26-4.18-4.26-1.71,0-3.5.53-4.79,1.37l-.76-2.2c1.52-.99,3.72-1.63,6.04-1.63,5.62,0,6.99,3.84,6.99,7.52v6.88c0,1.6.08,3.15.3,4.41h-3.04ZM174.98,238.79c-3.65-.08-7.79.57-7.79,4.14,0,2.17,1.44,3.19,3.15,3.19,2.39,0,3.91-1.52,4.45-3.08.11-.34.19-.72.19-1.06v-3.19Z"/><path d="M195.69,224.51v5.28h4.79v2.55h-4.79v9.92c0,2.28.65,3.57,2.51,3.57.87,0,1.52-.11,1.94-.23l.15,2.51c-.65.27-1.67.46-2.96.46-1.56,0-2.81-.49-3.61-1.41-.95-.99-1.29-2.62-1.29-4.79v-10.03h-2.85v-2.55h2.85v-4.41l3.27-.87Z"/><path d="M219.63,243.16c0,1.9.04,3.57.15,5.02h-2.96l-.19-3h-.08c-.87,1.48-2.81,3.42-6.08,3.42-2.89,0-6.35-1.6-6.35-8.05v-10.75h3.34v10.18c0,3.5,1.06,5.85,4.1,5.85,2.24,0,3.8-1.56,4.41-3.04.19-.49.3-1.1.3-1.71v-11.28h3.34v13.37Z"/><path d="M224.72,244.76c.99.65,2.74,1.33,4.41,1.33,2.43,0,3.57-1.22,3.57-2.74,0-1.6-.95-2.47-3.42-3.38-3.31-1.18-4.86-3-4.86-5.21,0-2.96,2.39-5.4,6.35-5.4,1.86,0,3.5.53,4.52,1.14l-.83,2.43c-.72-.46-2.05-1.06-3.76-1.06-1.98,0-3.08,1.14-3.08,2.51,0,1.52,1.1,2.2,3.5,3.12,3.19,1.22,4.83,2.81,4.83,5.55,0,3.23-2.51,5.51-6.88,5.51-2.01,0-3.88-.49-5.17-1.25l.84-2.55Z"/><path d="M33.09,293.09c-.87.46-2.81,1.06-5.28,1.06-5.55,0-9.16-3.76-9.16-9.38s3.88-9.76,9.88-9.76c1.98,0,3.72.49,4.64.95l-.76,2.58c-.8-.46-2.05-.87-3.88-.87-4.22,0-6.5,3.12-6.5,6.95,0,4.26,2.74,6.88,6.38,6.88,1.9,0,3.15-.49,4.1-.91l.57,2.51Z"/><path d="M37.01,266.8h3.34v26.98h-3.34v-26.98Z"/><path d="M49.7,270.22c.04,1.14-.8,2.05-2.13,2.05-1.18,0-2.01-.91-2.01-2.05s.87-2.09,2.09-2.09,2.05.91,2.05,2.09ZM45.97,293.78v-18.39h3.34v18.39h-3.34Z"/><path d="M56.73,285.19c.08,4.52,2.96,6.38,6.31,6.38,2.39,0,3.84-.42,5.09-.95l.57,2.39c-1.18.53-3.19,1.14-6.12,1.14-5.66,0-9.04-3.72-9.04-9.27s3.27-9.92,8.62-9.92c6,0,7.6,5.28,7.6,8.66,0,.68-.08,1.22-.11,1.56h-12.92ZM66.53,282.8c.04-2.13-.87-5.43-4.64-5.43-3.38,0-4.86,3.12-5.13,5.43h9.76Z"/><path d="M73.9,280.37c0-1.9-.04-3.46-.15-4.98h2.96l.19,3.04h.08c.91-1.75,3.04-3.46,6.08-3.46,2.55,0,6.5,1.52,6.5,7.83v10.98h-3.34v-10.6c0-2.96-1.1-5.43-4.26-5.43-2.2,0-3.91,1.56-4.48,3.42-.15.42-.23.99-.23,1.56v11.06h-3.34v-13.41Z"/><path d="M98.87,270.11v5.28h4.79v2.55h-4.79v9.92c0,2.28.65,3.57,2.51,3.57.87,0,1.52-.11,1.94-.23l.15,2.51c-.65.27-1.67.46-2.96.46-1.56,0-2.81-.49-3.61-1.41-.95-.99-1.29-2.62-1.29-4.79v-10.03h-2.85v-2.55h2.85v-4.41l3.27-.87Z"/><path d="M109.05,285.19c.08,4.52,2.96,6.38,6.31,6.38,2.39,0,3.84-.42,5.09-.95l.57,2.39c-1.18.53-3.19,1.14-6.12,1.14-5.66,0-9.04-3.72-9.04-9.27s3.27-9.92,8.62-9.92c6,0,7.6,5.28,7.6,8.66,0,.68-.08,1.22-.11,1.56h-12.92ZM118.85,282.8c.04-2.13-.87-5.43-4.64-5.43-3.38,0-4.86,3.12-5.13,5.43h9.76Z"/><path d="M125.77,290.36c.99.65,2.74,1.33,4.41,1.33,2.43,0,3.57-1.22,3.57-2.74,0-1.6-.95-2.47-3.42-3.38-3.31-1.18-4.86-3-4.86-5.21,0-2.96,2.39-5.4,6.34-5.4,1.86,0,3.5.53,4.52,1.14l-.84,2.43c-.72-.46-2.05-1.06-3.76-1.06-1.98,0-3.08,1.14-3.08,2.51,0,1.52,1.1,2.2,3.5,3.12,3.19,1.22,4.83,2.81,4.83,5.55,0,3.23-2.51,5.51-6.88,5.51-2.01,0-3.88-.49-5.17-1.25l.84-2.55Z"/><path d="M165.21,266.8v22.23c0,1.63.04,3.5.15,4.75h-3l-.15-3.19h-.08c-1.03,2.05-3.27,3.61-6.27,3.61-4.45,0-7.87-3.76-7.87-9.35-.04-6.12,3.76-9.88,8.25-9.88,2.81,0,4.71,1.33,5.55,2.81h.08v-10.98h3.34ZM161.87,282.87c0-.42-.04-.99-.15-1.41-.49-2.13-2.32-3.88-4.83-3.88-3.46,0-5.51,3.04-5.51,7.1,0,3.72,1.82,6.8,5.43,6.8,2.24,0,4.29-1.48,4.9-3.99.11-.46.15-.91.15-1.44v-3.19Z"/><path d="M172.62,285.19c.08,4.52,2.96,6.38,6.31,6.38,2.39,0,3.84-.42,5.09-.95l.57,2.39c-1.18.53-3.19,1.14-6.12,1.14-5.66,0-9.04-3.72-9.04-9.27s3.27-9.92,8.62-9.92c6,0,7.6,5.28,7.6,8.66,0,.68-.08,1.22-.11,1.56h-12.92ZM182.43,282.8c.04-2.13-.87-5.43-4.63-5.43-3.38,0-4.86,3.12-5.13,5.43h9.76Z"/><path d="M19.64,335.35c1.48.91,3.65,1.67,5.93,1.67,3.38,0,5.36-1.79,5.36-4.37,0-2.39-1.37-3.76-4.83-5.09-4.18-1.48-6.76-3.65-6.76-7.26,0-3.99,3.31-6.95,8.28-6.95,2.62,0,4.52.61,5.66,1.25l-.91,2.7c-.84-.46-2.55-1.22-4.86-1.22-3.5,0-4.83,2.09-4.83,3.84,0,2.39,1.56,3.57,5.09,4.94,4.33,1.67,6.54,3.76,6.54,7.52,0,3.95-2.93,7.37-8.97,7.37-2.47,0-5.17-.72-6.54-1.63l.84-2.77Z"/><path d="M54.1,334.36c0,1.9.04,3.57.15,5.02h-2.96l-.19-3h-.08c-.87,1.48-2.81,3.42-6.08,3.42-2.89,0-6.35-1.6-6.35-8.05v-10.75h3.34v10.18c0,3.5,1.06,5.85,4.1,5.85,2.24,0,3.8-1.56,4.41-3.04.19-.49.3-1.1.3-1.71v-11.28h3.34v13.37Z"/><path d="M59.65,325.97c0-1.9-.04-3.46-.15-4.98h2.96l.19,3.04h.08c.91-1.75,3.04-3.46,6.08-3.46,2.55,0,6.5,1.52,6.5,7.83v10.98h-3.34v-10.6c0-2.96-1.1-5.43-4.26-5.43-2.2,0-3.91,1.56-4.48,3.42-.15.42-.23.99-.23,1.56v11.06h-3.34v-13.41Z"/><path d="M80.29,335.96c.99.65,2.74,1.33,4.41,1.33,2.43,0,3.57-1.22,3.57-2.74,0-1.6-.95-2.47-3.42-3.38-3.31-1.18-4.86-3-4.86-5.21,0-2.96,2.39-5.4,6.35-5.4,1.86,0,3.5.53,4.52,1.14l-.84,2.43c-.72-.46-2.05-1.06-3.76-1.06-1.98,0-3.08,1.14-3.08,2.51,0,1.52,1.1,2.2,3.5,3.12,3.19,1.22,4.83,2.81,4.83,5.55,0,3.23-2.51,5.51-6.88,5.51-2.01,0-3.88-.49-5.17-1.25l.84-2.55Z"/><path d="M97.65,330.79c.08,4.52,2.96,6.38,6.31,6.38,2.39,0,3.84-.42,5.09-.95l.57,2.39c-1.18.53-3.19,1.14-6.12,1.14-5.66,0-9.04-3.72-9.04-9.27s3.27-9.92,8.62-9.92c6,0,7.6,5.28,7.6,8.66,0,.68-.08,1.22-.11,1.56h-12.92ZM107.46,328.4c.04-2.13-.87-5.43-4.63-5.43-3.38,0-4.86,3.12-5.13,5.43h9.76Z"/><path d="M118.86,315.71v5.28h4.79v2.55h-4.79v9.92c0,2.28.65,3.57,2.51,3.57.87,0,1.52-.11,1.94-.23l.15,2.51c-.65.27-1.67.46-2.96.46-1.56,0-2.81-.49-3.61-1.41-.95-.99-1.29-2.62-1.29-4.79v-10.03h-2.85v-2.55h2.85v-4.41l3.27-.87Z"/><path d="M135.58,314.07c1.6-.27,3.69-.49,6.34-.49,3.27,0,5.66.76,7.18,2.13,1.41,1.22,2.24,3.08,2.24,5.36s-.68,4.14-1.98,5.47c-1.75,1.86-4.6,2.81-7.83,2.81-.99,0-1.9-.04-2.66-.23v10.26h-3.3v-25.3ZM138.88,326.42c.72.19,1.63.27,2.74.27,3.99,0,6.42-1.94,6.42-5.47s-2.39-5.02-6.04-5.02c-1.44,0-2.55.11-3.12.27v9.95Z"/><path d="M164.87,339.38l-.27-2.32h-.11c-1.03,1.44-3,2.74-5.62,2.74-3.72,0-5.62-2.62-5.62-5.28,0-4.45,3.95-6.88,11.06-6.84v-.38c0-1.52-.42-4.26-4.18-4.26-1.71,0-3.5.53-4.79,1.37l-.76-2.2c1.52-.99,3.72-1.63,6.04-1.63,5.62,0,6.99,3.84,6.99,7.52v6.88c0,1.6.08,3.15.3,4.41h-3.04ZM164.38,329.99c-3.65-.08-7.79.57-7.79,4.14,0,2.17,1.44,3.19,3.15,3.19,2.39,0,3.91-1.52,4.45-3.08.11-.34.19-.72.19-1.06v-3.19Z"/><path d="M173.01,326.73c0-2.17-.04-4.03-.15-5.74h2.93l.11,3.61h.15c.84-2.47,2.85-4.03,5.09-4.03.38,0,.65.04.95.11v3.15c-.34-.08-.68-.11-1.14-.11-2.36,0-4.03,1.79-4.48,4.29-.08.46-.15.99-.15,1.56v9.8h-3.31v-12.65Z"/><path d="M188.89,329.42h.08c.46-.65,1.1-1.44,1.63-2.09l5.39-6.34h4.03l-7.1,7.56,8.09,10.83h-4.07l-6.34-8.81-1.71,1.9v6.92h-3.31v-26.98h3.31v17.02Z"/><path d="M213.32,330.79c.08,4.52,2.96,6.38,6.31,6.38,2.39,0,3.84-.42,5.09-.95l.57,2.39c-1.18.53-3.19,1.14-6.12,1.14-5.66,0-9.04-3.72-9.04-9.27s3.27-9.92,8.62-9.92c6,0,7.6,5.28,7.6,8.66,0,.68-.08,1.22-.11,1.56h-12.92ZM223.13,328.4c.04-2.13-.87-5.43-4.64-5.43-3.38,0-4.86,3.12-5.13,5.43h9.76Z"/><path d="M230.5,325.97c0-1.9-.04-3.46-.15-4.98h2.96l.19,3.04h.08c.91-1.75,3.04-3.46,6.08-3.46,2.55,0,6.5,1.52,6.5,7.83v10.98h-3.34v-10.6c0-2.96-1.1-5.43-4.26-5.43-2.2,0-3.91,1.56-4.48,3.42-.15.42-.23.99-.23,1.56v11.06h-3.34v-13.41Z"/><path d="M19.53,381.56c.99.65,2.74,1.33,4.41,1.33,2.43,0,3.57-1.22,3.57-2.74,0-1.6-.95-2.47-3.42-3.38-3.31-1.18-4.86-3-4.86-5.21,0-2.96,2.39-5.39,6.35-5.39,1.86,0,3.5.53,4.52,1.14l-.84,2.43c-.72-.46-2.05-1.06-3.76-1.06-1.98,0-3.08,1.14-3.08,2.51,0,1.52,1.1,2.2,3.5,3.12,3.19,1.22,4.83,2.81,4.83,5.55,0,3.23-2.51,5.51-6.88,5.51-2.01,0-3.88-.49-5.17-1.25l.84-2.54Z"/><path d="M50.42,379.96c0,1.9.04,3.57.15,5.01h-2.96l-.19-3h-.08c-.87,1.48-2.81,3.42-6.08,3.42-2.89,0-6.35-1.6-6.35-8.05v-10.75h3.34v10.18c0,3.5,1.06,5.85,4.1,5.85,2.24,0,3.8-1.56,4.41-3.04.19-.49.3-1.1.3-1.71v-11.28h3.34v13.37Z"/><path d="M67.75,361.42c.04,1.14-.8,2.05-2.13,2.05-1.18,0-2.01-.91-2.01-2.05s.87-2.09,2.09-2.09,2.05.91,2.05,2.09ZM64.02,384.98v-18.39h3.34v18.39h-3.34Z"/><path d="M88.8,358v22.23c0,1.63.04,3.5.15,4.75h-3l-.15-3.19h-.08c-1.03,2.05-3.27,3.61-6.27,3.61-4.45,0-7.86-3.76-7.86-9.35-.04-6.12,3.76-9.88,8.24-9.88,2.81,0,4.71,1.33,5.55,2.81h.08v-10.98h3.34ZM85.45,374.07c0-.42-.04-.99-.15-1.41-.49-2.13-2.32-3.88-4.83-3.88-3.46,0-5.51,3.04-5.51,7.11,0,3.72,1.82,6.8,5.43,6.8,2.24,0,4.29-1.48,4.9-3.99.11-.46.15-.91.15-1.44v-3.19Z"/><path d="M98.07,361.42c.04,1.14-.8,2.05-2.13,2.05-1.18,0-2.01-.91-2.01-2.05s.87-2.09,2.09-2.09,2.05.91,2.05,2.09ZM94.35,384.98v-18.39h3.34v18.39h-3.34Z"/><path d="M119.88,375.63c0,6.8-4.71,9.76-9.16,9.76-4.98,0-8.81-3.65-8.81-9.46,0-6.16,4.03-9.76,9.12-9.76s8.85,3.84,8.85,9.46ZM105.29,375.82c0,4.03,2.32,7.07,5.59,7.07s5.58-3,5.58-7.14c0-3.12-1.56-7.07-5.51-7.07s-5.66,3.65-5.66,7.14Z"/><path d="M124.1,371.57c0-1.9-.04-3.46-.15-4.98h2.93l.15,2.96h.11c1.03-1.75,2.74-3.38,5.78-3.38,2.51,0,4.41,1.52,5.21,3.69h.08c.57-1.03,1.29-1.82,2.05-2.39,1.1-.83,2.32-1.29,4.07-1.29,2.43,0,6.04,1.6,6.04,7.98v10.83h-3.27v-10.41c0-3.53-1.29-5.66-3.99-5.66-1.9,0-3.38,1.41-3.95,3.04-.15.46-.27,1.06-.27,1.67v11.36h-3.27v-11.02c0-2.92-1.29-5.05-3.84-5.05-2.09,0-3.61,1.67-4.14,3.34-.19.49-.27,1.06-.27,1.63v11.09h-3.27v-13.41Z"/><path d="M165.97,384.98l-.27-2.32h-.11c-1.03,1.44-3,2.74-5.62,2.74-3.72,0-5.62-2.62-5.62-5.28,0-4.45,3.95-6.88,11.06-6.84v-.38c0-1.52-.42-4.25-4.18-4.25-1.71,0-3.5.53-4.79,1.37l-.76-2.2c1.52-.99,3.72-1.63,6.04-1.63,5.62,0,6.99,3.84,6.99,7.52v6.88c0,1.6.08,3.15.3,4.41h-3.04ZM165.48,375.59c-3.65-.08-7.79.57-7.79,4.14,0,2.17,1.44,3.19,3.15,3.19,2.39,0,3.91-1.52,4.45-3.08.11-.34.19-.72.19-1.06v-3.19Z"/><path d="M173.31,383c0-1.41.95-2.39,2.28-2.39s2.24.99,2.24,2.39-.87,2.39-2.28,2.39c-1.33,0-2.24-1.03-2.24-2.39Z"/><path d="M22.57,493.93l-2.03,6.15h-2.61l6.64-19.55h3.05l6.67,19.55h-2.7l-2.09-6.15h-6.93ZM28.98,491.96l-1.91-5.63c-.44-1.28-.73-2.44-1.02-3.57h-.06c-.29,1.16-.61,2.35-.99,3.54l-1.91,5.66h5.89Z"/><path d="M36.99,489.84c0-1.45-.03-2.64-.12-3.8h2.26l.15,2.32h.06c.7-1.33,2.32-2.64,4.64-2.64,1.94,0,4.96,1.16,4.96,5.98v8.38h-2.55v-8.09c0-2.26-.84-4.15-3.25-4.15-1.68,0-2.99,1.19-3.42,2.61-.12.32-.17.75-.17,1.19v8.44h-2.55v-10.24Z"/><path d="M64.83,496.25c0,1.45.03,2.73.12,3.83h-2.26l-.15-2.29h-.06c-.67,1.13-2.15,2.61-4.64,2.61-2.2,0-4.84-1.22-4.84-6.15v-8.21h2.55v7.77c0,2.67.81,4.47,3.13,4.47,1.71,0,2.9-1.19,3.36-2.32.15-.38.23-.84.23-1.3v-8.62h2.55v10.21ZM63.09,479.98l-3.54,4.15h-1.83l2.55-4.15h2.81Z"/><path d="M69.06,489.84c0-1.45-.03-2.64-.12-3.8h2.26l.15,2.32h.06c.7-1.33,2.32-2.64,4.64-2.64,1.94,0,4.96,1.16,4.96,5.98v8.38h-2.55v-8.09c0-2.26-.84-4.15-3.25-4.15-1.68,0-2.99,1.19-3.42,2.61-.12.32-.17.75-.17,1.19v8.44h-2.55v-10.24Z"/><path d="M95.16,499.56c-.67.35-2.15.81-4.03.81-4.23,0-6.99-2.87-6.99-7.17s2.96-7.45,7.54-7.45c1.51,0,2.84.38,3.54.72l-.58,1.97c-.61-.35-1.57-.67-2.96-.67-3.22,0-4.96,2.38-4.96,5.31,0,3.25,2.09,5.25,4.87,5.25,1.45,0,2.41-.38,3.13-.7l.44,1.91Z"/><path d="M100.99,482.09c.03.87-.61,1.57-1.62,1.57-.9,0-1.54-.7-1.54-1.57s.67-1.6,1.6-1.6,1.57.7,1.57,1.6ZM98.15,500.08v-14.04h2.55v14.04h-2.55Z"/><path d="M112.71,500.08l-.2-1.77h-.09c-.78,1.1-2.29,2.09-4.29,2.09-2.84,0-4.29-2-4.29-4.03,0-3.39,3.02-5.25,8.44-5.22v-.29c0-1.16-.32-3.25-3.19-3.25-1.31,0-2.67.41-3.65,1.04l-.58-1.68c1.16-.75,2.84-1.25,4.61-1.25,4.29,0,5.34,2.93,5.34,5.74v5.25c0,1.22.06,2.41.23,3.37h-2.32ZM112.33,492.91c-2.79-.06-5.95.44-5.95,3.16,0,1.65,1.1,2.44,2.41,2.44,1.83,0,2.99-1.16,3.39-2.35.09-.26.15-.55.15-.81v-2.44Z"/><path d="M121.87,482.01v4.03h3.66v1.94h-3.66v7.57c0,1.74.49,2.73,1.92,2.73.67,0,1.16-.09,1.48-.17l.12,1.92c-.49.2-1.28.35-2.26.35-1.19,0-2.15-.38-2.75-1.07-.73-.75-.99-2-.99-3.66v-7.66h-2.18v-1.94h2.18v-3.37l2.49-.67Z"/><path d="M129.64,493.52c.06,3.45,2.26,4.87,4.82,4.87,1.83,0,2.93-.32,3.89-.72l.44,1.83c-.9.41-2.44.87-4.67.87-4.32,0-6.9-2.84-6.9-7.08s2.49-7.57,6.58-7.57c4.58,0,5.8,4.03,5.8,6.61,0,.52-.06.93-.09,1.19h-9.86ZM137.12,491.7c.03-1.62-.67-4.15-3.54-4.15-2.58,0-3.71,2.38-3.92,4.15h7.45Z"/><path d="M150.32,493.52c.06,3.45,2.26,4.87,4.82,4.87,1.83,0,2.93-.32,3.89-.72l.44,1.83c-.9.41-2.44.87-4.67.87-4.32,0-6.9-2.84-6.9-7.08s2.49-7.57,6.58-7.57c4.58,0,5.8,4.03,5.8,6.61,0,.52-.06.93-.09,1.19h-9.86ZM157.8,491.7c.03-1.62-.67-4.15-3.54-4.15-2.58,0-3.71,2.38-3.92,4.15h7.45Z"/><path d="M163.43,489.84c0-1.45-.03-2.64-.12-3.8h2.26l.15,2.32h.06c.7-1.33,2.32-2.64,4.64-2.64,1.94,0,4.96,1.16,4.96,5.98v8.38h-2.55v-8.09c0-2.26-.84-4.15-3.25-4.15-1.68,0-2.99,1.19-3.42,2.61-.12.32-.17.75-.17,1.19v8.44h-2.55v-10.24Z"/><path d="M23.12,517.47h-5.95v-2.15h14.47v2.15h-5.98v17.4h-2.55v-17.4Z"/><path d="M33.53,514.28h2.55v8.76h.06c.41-.72,1.04-1.36,1.83-1.8.75-.44,1.65-.73,2.61-.73,1.89,0,4.9,1.16,4.9,6v8.35h-2.55v-8.06c0-2.26-.84-4.18-3.25-4.18-1.65,0-2.96,1.16-3.42,2.55-.15.35-.17.73-.17,1.22v8.47h-2.55v-20.59Z"/><path d="M51.05,528.32c.06,3.45,2.26,4.87,4.81,4.87,1.83,0,2.93-.32,3.89-.72l.44,1.83c-.9.41-2.44.87-4.67.87-4.32,0-6.9-2.84-6.9-7.08s2.49-7.57,6.58-7.57c4.58,0,5.8,4.03,5.8,6.61,0,.52-.06.93-.09,1.19h-9.86ZM58.53,526.5c.03-1.62-.67-4.15-3.54-4.15-2.58,0-3.71,2.38-3.92,4.15h7.45Z"/><path d="M70.05,531.8c1.13.7,2.78,1.28,4.52,1.28,2.58,0,4.09-1.36,4.09-3.33,0-1.83-1.04-2.87-3.68-3.89-3.19-1.13-5.16-2.78-5.16-5.54,0-3.05,2.52-5.31,6.32-5.31,2,0,3.45.46,4.32.96l-.7,2.06c-.64-.35-1.94-.93-3.71-.93-2.67,0-3.68,1.6-3.68,2.93,0,1.83,1.19,2.73,3.89,3.77,3.31,1.28,4.99,2.87,4.99,5.74,0,3.02-2.23,5.63-6.85,5.63-1.89,0-3.94-.55-4.99-1.25l.64-2.12Z"/><path d="M96.35,531.05c0,1.45.03,2.73.12,3.83h-2.26l-.15-2.29h-.06c-.67,1.13-2.15,2.61-4.64,2.61-2.2,0-4.84-1.22-4.84-6.15v-8.21h2.55v7.77c0,2.67.81,4.47,3.13,4.47,1.71,0,2.9-1.19,3.36-2.32.15-.38.23-.84.23-1.3v-8.62h2.55v10.21Z"/><path d="M100.58,524.64c0-1.45-.03-2.64-.12-3.8h2.26l.15,2.32h.06c.7-1.33,2.32-2.64,4.64-2.64,1.94,0,4.96,1.16,4.96,5.98v8.38h-2.55v-8.09c0-2.26-.84-4.15-3.25-4.15-1.68,0-2.99,1.19-3.42,2.61-.12.32-.17.75-.17,1.19v8.44h-2.55v-10.24Z"/><path d="M116.33,532.27c.75.49,2.09,1.01,3.36,1.01,1.86,0,2.73-.93,2.73-2.09,0-1.22-.72-1.89-2.61-2.58-2.52-.9-3.71-2.29-3.71-3.97,0-2.26,1.83-4.12,4.84-4.12,1.42,0,2.67.41,3.45.87l-.64,1.86c-.55-.35-1.57-.81-2.87-.81-1.51,0-2.35.87-2.35,1.92,0,1.16.84,1.68,2.67,2.38,2.44.93,3.68,2.15,3.68,4.24,0,2.47-1.91,4.21-5.25,4.21-1.54,0-2.96-.38-3.95-.96l.64-1.94Z"/><path d="M129.58,528.32c.06,3.45,2.26,4.87,4.82,4.87,1.83,0,2.93-.32,3.89-.72l.44,1.83c-.9.41-2.44.87-4.67.87-4.32,0-6.9-2.84-6.9-7.08s2.49-7.57,6.58-7.57c4.58,0,5.8,4.03,5.8,6.61,0,.52-.06.93-.09,1.19h-9.86ZM137.07,526.5c.03-1.62-.67-4.15-3.54-4.15-2.58,0-3.71,2.38-3.92,4.15h7.45Z"/><path d="M145.76,516.81v4.03h3.65v1.94h-3.65v7.57c0,1.74.49,2.73,1.91,2.73.67,0,1.16-.09,1.48-.17l.12,1.92c-.49.2-1.28.35-2.26.35-1.19,0-2.15-.38-2.76-1.07-.73-.75-.99-2-.99-3.66v-7.66h-2.18v-1.94h2.18v-3.37l2.5-.67Z"/><path d="M158.52,515.56c1.22-.2,2.81-.38,4.84-.38,2.5,0,4.32.58,5.48,1.62,1.07.93,1.71,2.35,1.71,4.09s-.52,3.16-1.51,4.18c-1.33,1.42-3.51,2.15-5.98,2.15-.75,0-1.45-.03-2.03-.17v7.83h-2.52v-19.32ZM161.05,524.99c.55.15,1.25.2,2.09.2,3.05,0,4.9-1.48,4.9-4.18s-1.83-3.83-4.61-3.83c-1.1,0-1.94.09-2.38.2v7.6Z"/><path d="M185.84,527.74c0,5.19-3.6,7.46-6.99,7.46-3.8,0-6.73-2.79-6.73-7.22,0-4.7,3.08-7.46,6.96-7.46s6.76,2.93,6.76,7.22ZM174.71,527.89c0,3.07,1.77,5.39,4.26,5.39s4.26-2.29,4.26-5.45c0-2.38-1.19-5.4-4.21-5.4s-4.32,2.79-4.32,5.45Z"/><path d="M188.71,532.27c.75.49,2.09,1.01,3.36,1.01,1.86,0,2.73-.93,2.73-2.09,0-1.22-.72-1.89-2.61-2.58-2.52-.9-3.71-2.29-3.71-3.97,0-2.26,1.83-4.12,4.84-4.12,1.42,0,2.67.41,3.45.87l-.64,1.86c-.55-.35-1.57-.81-2.87-.81-1.51,0-2.35.87-2.35,1.92,0,1.16.84,1.68,2.67,2.38,2.44.93,3.68,2.15,3.68,4.24,0,2.47-1.91,4.21-5.25,4.21-1.54,0-2.96-.38-3.95-.96l.64-1.94Z"/><path d="M203.62,516.81v4.03h3.65v1.94h-3.65v7.57c0,1.74.49,2.73,1.91,2.73.67,0,1.16-.09,1.48-.17l.12,1.92c-.49.2-1.28.35-2.26.35-1.19,0-2.15-.38-2.76-1.07-.73-.75-.99-2-.99-3.66v-7.66h-2.18v-1.94h2.18v-3.37l2.5-.67Z"/><path d="M216.29,514.28h2.55v8.76h.06c.41-.72,1.04-1.36,1.83-1.8.75-.44,1.65-.73,2.61-.73,1.89,0,4.9,1.16,4.9,6v8.35h-2.55v-8.06c0-2.26-.84-4.18-3.25-4.18-1.65,0-2.96,1.16-3.42,2.55-.14.35-.17.73-.17,1.22v8.47h-2.55v-20.59Z"/><path d="M245.09,527.74c0,5.19-3.6,7.46-6.99,7.46-3.8,0-6.73-2.79-6.73-7.22,0-4.7,3.08-7.46,6.96-7.46s6.76,2.93,6.76,7.22ZM233.95,527.89c0,3.07,1.77,5.39,4.26,5.39s4.26-2.29,4.26-5.45c0-2.38-1.19-5.4-4.21-5.4s-4.32,2.79-4.32,5.45Z"/><path d="M249.03,520.84l3.08,8.3c.32.93.67,2.03.9,2.87h.06c.26-.84.55-1.91.9-2.93l2.78-8.24h2.7l-3.83,10.01c-1.83,4.82-3.08,7.28-4.82,8.79-1.25,1.1-2.49,1.54-3.13,1.65l-.64-2.15c.64-.2,1.48-.61,2.23-1.25.7-.55,1.57-1.54,2.15-2.84.12-.26.2-.46.2-.61s-.06-.35-.17-.67l-5.19-12.94h2.78Z"/><path d="M260.02,533.37c0-1.07.72-1.83,1.74-1.83s1.71.75,1.71,1.83-.67,1.83-1.74,1.83c-1.01,0-1.71-.78-1.71-1.83Z"/><path d="M132.59,82.63v-25.65h3.22v10.74h11.97v-10.74h3.25v25.65h-3.25v-12.11h-11.97v12.11h-3.22Z"/><path d="M159.36,59.7c-.63,0-1.14-.19-1.52-.58-.39-.39-.58-.9-.58-1.56s.19-1.13.58-1.5c.38-.37.89-.56,1.52-.56s1.14.19,1.54.56c.4.37.59.88.59,1.5s-.2,1.17-.59,1.56c-.4.38-.91.58-1.54.58ZM157.75,82.63v-19h3.22v19h-3.22Z"/><path d="M169.79,83.08c-.63,0-1.17-.23-1.63-.68-.45-.46-.68-1.03-.68-1.73,0-.75.23-1.34.68-1.79.46-.44,1-.67,1.63-.67s1.2.22,1.64.67c.44.44.67,1.04.67,1.79,0,.7-.22,1.28-.67,1.73s-.99.68-1.64.68ZM168.71,74.89l-.46-14.84-.07-3.64h3.22l-.07,3.64-.42,14.84h-2.21Z"/><path d="M86.79,127.29c-1.33,0-2.48-.26-3.46-.77-.98-.51-1.74-1.24-2.29-2.17-.55-.93-.82-2.04-.82-3.33,0-1,.21-1.92.63-2.75.42-.83.93-1.61,1.54-2.34.61-.74,1.2-1.48,1.79-2.22.58-.75,1.05-1.55,1.4-2.42.35-.86.46-1.84.31-2.94h2.83c.16,1.24.09,2.32-.23,3.25-.31.93-.75,1.79-1.31,2.56s-1.13,1.51-1.71,2.22c-.58.71-1.08,1.42-1.5,2.13-.42.71-.63,1.49-.63,2.33,0,.68.15,1.31.44,1.91.29.6.72,1.06,1.28,1.4.56.34,1.25.51,2.06.51.86,0,1.68-.21,2.45-.63s1.46-.97,2.06-1.65l1.85,1.68c-.84.91-1.81,1.67-2.92,2.29s-2.36.93-3.76.93ZM87.21,105.07c-.65,0-1.2-.23-1.65-.7-.44-.47-.67-1.06-.67-1.79s.22-1.31.67-1.77c.44-.46.99-.68,1.65-.68s1.2.23,1.65.68c.44.46.67,1.04.67,1.77s-.22,1.32-.67,1.79c-.44.47-.99.7-1.65.7Z"/><path d="M106.22,120.08c-2.15,0-4.04-.54-5.69-1.63-1.64-1.08-2.93-2.63-3.87-4.64-.93-2.01-1.4-4.38-1.4-7.1s.47-5.12,1.4-7.09c.93-1.97,2.22-3.48,3.87-4.53,1.65-1.05,3.54-1.57,5.69-1.57s4.04.53,5.69,1.59c1.65,1.06,2.93,2.57,3.87,4.53.93,1.96,1.4,4.32,1.4,7.07s-.47,5.1-1.4,7.1c-.93,2.01-2.22,3.55-3.87,4.64-1.64,1.08-3.54,1.63-5.69,1.63ZM106.22,117.39c1.54,0,2.88-.43,4.03-1.29,1.14-.86,2.03-2.1,2.66-3.71.63-1.61.95-3.5.95-5.67s-.32-4-.95-5.55-1.52-2.74-2.66-3.57c-1.14-.83-2.49-1.24-4.03-1.24s-2.85.41-4.01,1.24c-1.16.83-2.05,2.02-2.68,3.57s-.95,3.4-.95,5.55.32,4.06.95,5.67c.63,1.61,1.52,2.85,2.68,3.71,1.15.86,2.49,1.29,4.01,1.29ZM114.06,126.07c-1.61,0-3.06-.28-4.34-.84s-2.36-1.34-3.24-2.33c-.88-.99-1.55-2.11-2.01-3.34l3.36-.28c.35.91.85,1.67,1.49,2.27.64.61,1.4,1.06,2.28,1.37.88.3,1.81.46,2.82.46.58,0,1.1-.04,1.54-.1.44-.07.83-.16,1.16-.28l.63,2.49c-.37.16-.89.3-1.54.42-.65.12-1.37.17-2.13.17Z"/><path d="M127.99,120.08c-2.01,0-3.48-.63-4.43-1.89-.95-1.26-1.42-3.1-1.42-5.53v-12.04h3.22v11.65c0,1.75.28,3.03.84,3.83.56.81,1.47,1.21,2.73,1.21.98,0,1.86-.26,2.62-.77.77-.51,1.61-1.33,2.52-2.45v-13.48h3.18v19h-2.66l-.25-2.98h-.1c-.89,1.03-1.83,1.85-2.82,2.48-.99.63-2.14.95-3.45.95Z"/><path d="M151.36,120.08c-1.7,0-3.24-.4-4.62-1.19s-2.47-1.93-3.27-3.41c-.8-1.48-1.21-3.26-1.21-5.34,0-1.56.23-2.96.7-4.18.47-1.23,1.1-2.27,1.91-3.15s1.72-1.54,2.75-2c1.03-.46,2.08-.68,3.15-.68,1.63,0,3.01.36,4.13,1.08,1.12.72,1.98,1.76,2.57,3.1.6,1.34.89,2.92.89,4.74,0,.35-.01.68-.04.98s-.06.58-.1.84h-12.81c.07,1.35.38,2.53.93,3.52.55.99,1.28,1.76,2.19,2.31s1.97.82,3.19.82c.93,0,1.78-.13,2.54-.4.76-.27,1.5-.64,2.22-1.1l1.12,2.13c-.82.54-1.74.99-2.77,1.37-1.03.37-2.18.56-3.46.56ZM145.38,108.6h10.18c0-1.91-.41-3.38-1.24-4.39-.83-1.02-1.99-1.52-3.48-1.52-.89,0-1.72.23-2.5.7-.78.47-1.43,1.13-1.96,2-.52.86-.86,1.94-1,3.22ZM150.21,97.23l-1.65-1.61,5.53-6.51,2.21,2.1-6.09,6.02Z"/><path d="M176.84,120.08c-1.33,0-2.39-.26-3.18-.79-.79-.52-1.36-1.27-1.7-2.22-.34-.96-.51-2.06-.51-3.32v-10.54h-2.83v-2.42l3.01-.17.35-5.35h2.66v5.35h5.18v2.59h-5.18v10.64c0,1.14.22,2.04.65,2.68.43.64,1.2.96,2.29.96.35,0,.72-.05,1.12-.16.4-.1.75-.23,1.05-.37l.63,2.42c-.54.19-1.11.35-1.71.49-.61.14-1.21.21-1.82.21Z"/><path d="M187.52,120.08c-1.05,0-2-.21-2.84-.63-.84-.42-1.5-1.03-1.98-1.84-.48-.8-.72-1.78-.72-2.92,0-2.08.93-3.67,2.78-4.78,1.86-1.11,4.81-1.88,8.87-2.33,0-.82-.11-1.59-.33-2.33-.22-.73-.61-1.33-1.17-1.78-.56-.46-1.36-.68-2.42-.68s-2.13.22-3.1.65c-.97.43-1.84.89-2.61,1.38l-1.23-2.2c.58-.37,1.26-.75,2.03-1.14.77-.39,1.61-.71,2.52-.96s1.88-.39,2.91-.39c1.54,0,2.79.33,3.76.98.97.65,1.68,1.56,2.13,2.71.46,1.16.68,2.53.68,4.11v11.69h-2.62l-.28-2.27h-.1c-.89.75-1.86,1.39-2.92,1.92s-2.19.81-3.38.81ZM188.43,117.49c.91,0,1.78-.21,2.61-.63s1.7-1.04,2.61-1.85v-5.28c-2.12.23-3.82.57-5.08,1-1.26.43-2.16.96-2.7,1.58-.54.62-.8,1.35-.8,2.19,0,1.1.33,1.87.98,2.33s1.45.68,2.38.68Z"/><path d="M206.21,120.08c-.79,0-1.44-.16-1.93-.49-.49-.33-.85-.81-1.08-1.45s-.35-1.41-.35-2.29v-24.08h3.22v24.29c0,.49.09.84.26,1.05s.38.31.61.31c.09,0,.19,0,.28-.02.09-.01.22-.03.38-.05l.46,2.45c-.23.07-.49.13-.77.19-.28.06-.64.09-1.08.09Z"/><path d="M215.8,111.89c-.16-1.21-.09-2.3.23-3.26.31-.96.75-1.82,1.31-2.59.56-.77,1.14-1.5,1.73-2.21.59-.7,1.1-1.41,1.5-2.12.41-.71.61-1.49.61-2.33,0-.7-.14-1.34-.42-1.91-.28-.57-.7-1.03-1.26-1.36-.56-.34-1.26-.51-2.1-.51s-1.68.19-2.45.58-1.46.94-2.07,1.66l-1.82-1.68c.82-.93,1.79-1.7,2.91-2.31s2.38-.91,3.78-.91,2.48.25,3.46.75c.98.5,1.74,1.22,2.28,2.15.54.93.8,2.04.8,3.33,0,1.05-.21,1.98-.63,2.8-.42.82-.93,1.59-1.54,2.31-.61.72-1.2,1.46-1.79,2.22-.58.76-1.05,1.56-1.4,2.42-.35.85-.46,1.84-.31,2.96h-2.83ZM217.3,120.08c-.63,0-1.17-.23-1.61-.68s-.67-1.03-.67-1.73c0-.75.22-1.34.67-1.79.44-.44.98-.67,1.61-.67s1.21.22,1.66.67c.46.44.68,1.04.68,1.79,0,.7-.23,1.28-.68,1.73s-1.01.68-1.66.68Z"/><path d="M109,134.37l2.48.73c-.75,1.98-1.63,3.94-2.66,5.86-1.03,1.93-2.13,3.74-3.32,5.44-1.19,1.7-2.43,3.21-3.71,4.52-.07-.21-.19-.48-.37-.8s-.36-.66-.56-1c-.2-.34-.38-.6-.54-.79,1.17-1.14,2.29-2.46,3.36-3.96,1.07-1.49,2.06-3.1,2.97-4.81s1.69-3.45,2.35-5.2ZM105.36,143.36l2.49-2.48.04.04v25.44h-2.52v-23ZM116.07,134.37l2.59.59c-.47,1.84-1.01,3.66-1.64,5.44-.63,1.79-1.33,3.45-2.1,5.01-.77,1.55-1.61,2.91-2.52,4.08-.14-.14-.34-.32-.61-.54-.27-.22-.54-.43-.81-.63-.27-.2-.51-.37-.72-.51.89-1.07,1.69-2.33,2.42-3.76.72-1.44,1.37-2.98,1.94-4.62.57-1.65,1.06-3.33,1.45-5.06ZM115.47,149.21l2.55.52c-.35,1.54-.79,3.04-1.33,4.5-.54,1.46-1.13,2.82-1.77,4.09-.64,1.27-1.32,2.4-2.05,3.38-.16-.14-.38-.3-.67-.49-.28-.19-.56-.36-.84-.52-.28-.16-.53-.3-.74-.42,1.07-1.33,2.02-2.98,2.85-4.95.83-1.97,1.49-4.01,1.98-6.11ZM115.72,140.98h15.75v2.45h-16.73l.98-2.45ZM121.18,141.96h2.59v21.28c0,.72-.09,1.29-.28,1.71s-.51.75-.98.98c-.49.21-1.12.35-1.87.42s-1.69.1-2.78.1c-.07-.37-.19-.82-.37-1.35-.17-.52-.37-.96-.58-1.31.84.02,1.6.04,2.29.04s1.15-.01,1.38-.04c.21,0,.36-.03.45-.1.09-.07.14-.22.14-.45v-21.28ZM126.29,149.73l2.38-.77c.68,1.24,1.31,2.56,1.89,3.96.58,1.4,1.1,2.78,1.54,4.15s.76,2.58.95,3.66l-2.52.88c-.16-1.07-.46-2.3-.89-3.68-.43-1.38-.93-2.78-1.5-4.2-.57-1.42-1.18-2.75-1.84-3.99ZM130.7,140.98h.39l.45-.1,1.79.38c-.23,1.28-.49,2.62-.77,4.01-.28,1.39-.54,2.56-.77,3.52l-2.24-.42c.12-.61.24-1.31.38-2.1.14-.79.28-1.62.42-2.47.14-.85.26-1.66.35-2.43v-.39Z"/><path d="M147.15,141.4h.46l.46-.1,1.64.42c-.4,4.46-1.13,8.29-2.2,11.5-1.07,3.21-2.46,5.88-4.17,8.02-1.7,2.13-3.71,3.86-6.02,5.16-.09-.23-.24-.48-.44-.74s-.4-.51-.61-.75c-.21-.24-.41-.45-.59-.61,2.1-1.05,3.95-2.57,5.55-4.57,1.6-2,2.9-4.47,3.9-7.42s1.68-6.4,2.03-10.34v-.56ZM136.19,141.4h11.69v2.45h-11.69v-2.45ZM137,153.41c.4-1.19.8-2.57,1.21-4.13.41-1.56.79-3.21,1.16-4.95.36-1.74.69-3.47,1-5.2.3-1.73.55-3.36.74-4.9l2.59.17c-.21,1.61-.48,3.31-.8,5.09-.33,1.78-.69,3.57-1.08,5.35-.4,1.78-.81,3.49-1.23,5.11-.42,1.62-.83,3.07-1.22,4.36l-2.34-.91ZM137,153.41l1.61-1.89c1.07.7,2.16,1.45,3.27,2.24,1.11.79,2.19,1.62,3.24,2.49,1.05.86,2,1.7,2.85,2.52.85.82,1.55,1.59,2.08,2.31l-1.79,2.21c-.54-.72-1.22-1.51-2.07-2.36-.84-.85-1.77-1.72-2.8-2.61s-2.09-1.75-3.18-2.59c-1.1-.84-2.17-1.61-3.22-2.31ZM149.77,149.1h18.58v2.48h-18.58v-2.48ZM151.35,136.82h13.79v2.42h-13.79v-2.42ZM157.89,145.04h2.7v18.27c0,.75-.11,1.33-.33,1.75s-.61.73-1.17.94c-.54.19-1.25.31-2.14.37-.89.06-2.02.08-3.39.05-.07-.35-.2-.76-.38-1.24-.19-.48-.37-.89-.56-1.24.7,0,1.36,0,1.98.02.62.01,1.16.02,1.61.02h.96c.28-.02.47-.09.58-.19.1-.1.16-.27.16-.51v-18.23ZM164.19,136.82h.67l.63-.17,1.82,1.29c-.65,1-1.41,2.04-2.28,3.1-.86,1.06-1.77,2.07-2.71,3.03-.95.96-1.9,1.8-2.85,2.52-.16-.23-.4-.5-.72-.81-.31-.3-.6-.55-.86-.73.79-.65,1.59-1.42,2.38-2.31.79-.89,1.53-1.8,2.22-2.75.69-.94,1.25-1.8,1.7-2.57v-.6Z"/><path d="M172.35,136.99h2.1v23.52h-2.1v-23.52ZM173.47,136.99h6.26v20.09h-6.26v-2.52h4.17v-15.02h-4.17v-2.55ZM181.8,135.52h6.09v2.31h-3.96v28.56h-2.13v-30.87ZM187.36,135.52h.35l.31-.07,1.58.8c-.35,1.47-.75,3.07-1.21,4.81-.46,1.74-.93,3.51-1.42,5.3.98,1.63,1.69,3.07,2.13,4.3.44,1.24.67,2.4.67,3.5,0,.93-.1,1.8-.3,2.61-.2.8-.52,1.39-.96,1.77-.19.16-.41.3-.68.4s-.54.17-.82.19c-.26.05-.55.08-.89.09-.34.01-.67,0-1-.02-.02-.3-.08-.66-.18-1.07-.09-.41-.23-.76-.42-1.07.3.05.6.07.89.07h.72c.37,0,.67-.09.88-.28.23-.19.4-.55.49-1.08.09-.54.14-1.1.14-1.68,0-1.03-.21-2.12-.63-3.27s-1.11-2.56-2.07-4.22c.51-2.01.97-3.96,1.38-5.85s.75-3.56,1.03-5v-.25ZM190.2,135.87h13.16v2.48h-13.16v-2.48ZM190.79,142.35h5.35v2.38h-3.54v14.77h-1.82v-17.15ZM195.41,142.35h1.89v14.73h-5.67v-2.38h3.78v-12.35ZM199.47,136.68h2.17v26.29c0,.7-.09,1.27-.26,1.7-.17.43-.51.76-1,1-.47.21-1.12.34-1.94.4-.83.06-1.85.09-3.06.09,0-.23-.05-.5-.14-.81s-.2-.61-.31-.93c-.12-.31-.25-.59-.39-.82.98.05,1.86.07,2.64.07s1.31-.01,1.59-.04c.47,0,.7-.23.7-.7v-26.25Z"/></svg>