<?xml version="1.0" encoding="UTF-8"?><svg id="Layer_1" xmlns="http://www.w3.org/2000/svg" viewBox="0 0 300 600"><defs><style>.cls-1{fill:#ff0;stroke:#000;stroke-miterlimit:10;stroke-width:2px;}</style></defs><rect class="cls-1" y="0" width="300" height="600" rx="12" ry="12"/><path d="M23.02,222.19h2.81v13.79c0,1.44-.06,2.99-.19,4.64-.13,1.65-.36,3.31-.7,5-.34,1.69-.86,3.3-1.56,4.85s-1.62,2.95-2.75,4.22c-.13-.2-.33-.42-.61-.67-.28-.24-.56-.48-.84-.7s-.53-.39-.76-.49c1.06-1.19,1.9-2.48,2.51-3.88.61-1.39,1.06-2.83,1.37-4.31.3-1.48.5-2.96.59-4.43.09-1.47.13-2.88.13-4.22v-13.79ZM24.43,240.12h24.81v2.7h-24.81v-2.7ZM24.66,222.19h24.59v2.74h-24.59v-2.74ZM24.66,231.04h24.51v2.7h-24.51v-2.7ZM34.95,223.21h2.89v30.93h-2.89v-30.93ZM48.1,222.19h2.81v28.42c0,.91-.13,1.61-.4,2.09-.27.48-.72.85-1.35,1.1-.63.23-1.52.37-2.66.42-1.14.05-2.61.06-4.41.04-.08-.35-.21-.8-.4-1.35-.19-.54-.39-1.01-.59-1.39.89.02,1.74.04,2.57.06s1.54.01,2.15,0c.61-.01,1.03-.02,1.25-.02.38-.03.65-.1.8-.23s.23-.37.23-.72v-28.42Z"/><path d="M65.32,219.68l2.66.8c-.81,2.13-1.77,4.24-2.89,6.33s-2.32,4.05-3.61,5.89c-1.29,1.84-2.62,3.46-3.99,4.88-.08-.2-.21-.48-.4-.84-.19-.35-.39-.71-.61-1.06-.21-.35-.41-.63-.59-.84,1.27-1.24,2.48-2.67,3.65-4.29,1.17-1.62,2.25-3.36,3.25-5.23,1-1.86,1.84-3.74,2.53-5.64ZM61.29,229.44l2.77-2.74.04.04v27.66h-2.81v-24.97ZM65.51,235.22l22.88-8.85,1.06,2.51-22.84,8.89-1.1-2.55ZM70.33,223.33h2.81v25.38c0,.73.08,1.29.23,1.67s.46.64.93.78c.47.14,1.15.21,2.03.21h9.77c.79,0,1.38-.15,1.79-.44.4-.29.7-.84.87-1.63s.3-1.94.38-3.44c.35.23.78.45,1.29.67.51.22.96.37,1.37.48-.15,1.75-.4,3.13-.74,4.16-.34,1.03-.89,1.75-1.63,2.19-.75.43-1.83.65-3.25.65h-9.92c-1.52,0-2.72-.15-3.59-.46-.87-.3-1.48-.84-1.82-1.6-.34-.76-.51-1.84-.51-3.23v-25.38ZM78.77,219.6h2.7v26.41h-2.7v-26.41ZM87.39,227.01h-.3l.65-.57.53-.42,1.98.8-.15.49c0,2.28-.01,4.38-.04,6.31-.03,1.93-.07,3.55-.13,4.88s-.16,2.27-.28,2.83c-.15.86-.43,1.5-.82,1.9-.39.41-.88.7-1.46.87-.53.13-1.17.21-1.9.25-.74.04-1.39.04-1.98.02-.03-.41-.1-.87-.23-1.39-.13-.52-.28-.94-.46-1.27.53.03,1.09.04,1.67.04h1.22c.33,0,.6-.06.82-.19.21-.13.39-.44.51-.95.1-.4.18-1.21.23-2.41.05-1.2.09-2.75.11-4.64s.04-4.07.04-6.56Z"/><path d="M101.76,219.76l2.66.72c-.63,2.18-1.38,4.35-2.22,6.5-.85,2.15-1.79,4.19-2.81,6.1-1.03,1.91-2.12,3.62-3.29,5.11-.08-.23-.21-.53-.4-.89-.19-.37-.38-.73-.57-1.1s-.37-.67-.55-.89c.99-1.29,1.93-2.77,2.83-4.45.9-1.67,1.72-3.46,2.47-5.36.75-1.9,1.37-3.81,1.88-5.74ZM98.76,229.29l2.62-2.62.08.08v27.7h-2.7v-25.16ZM106.05,227.2h2.77v27.28h-2.77v-27.28ZM107.69,220.74l2.21-1.18c.56.73,1.13,1.55,1.71,2.43.58.89,1.13,1.75,1.63,2.6.51.85.91,1.6,1.22,2.26l-2.36,1.37c-.28-.66-.66-1.42-1.14-2.28-.48-.86-1.01-1.75-1.58-2.66-.57-.91-1.13-1.76-1.69-2.55ZM115.06,220.93h11.44v2.58h-11.44v-2.58ZM125.39,220.93h2.85v29.94c0,.86-.11,1.52-.34,1.98-.23.46-.63.81-1.22,1.06-.58.2-1.37.33-2.38.38-1,.05-2.25.08-3.74.08-.05-.35-.17-.8-.34-1.35-.18-.55-.37-.99-.57-1.35,1.09.02,2.11.04,3.06.06.95.01,1.58,0,1.88-.02.3-.03.51-.1.63-.21.11-.11.17-.34.17-.67v-29.91Z"/><path d="M134.51,225.65h2.62v27.85h-2.62v-27.85ZM136,236.21h10.49v2.51h-10.49v-2.51ZM136.19,225.65h11.55v24.85h-11.55v-2.58h8.93v-19.72h-8.93v-2.55ZM140.33,219.45l3.08.53c-.38,1.19-.79,2.39-1.24,3.61-.44,1.22-.85,2.25-1.24,3.12l-2.32-.57c.23-.63.45-1.34.67-2.13.21-.78.42-1.58.61-2.39.19-.81.34-1.53.44-2.17ZM153.93,219.38l2.74.61c-.46,1.9-1.01,3.76-1.65,5.57-.65,1.81-1.36,3.52-2.13,5.11-.77,1.6-1.59,3-2.45,4.22-.18-.15-.41-.34-.7-.55-.29-.21-.59-.42-.89-.61-.3-.19-.57-.35-.8-.48.89-1.14,1.7-2.45,2.43-3.93.73-1.48,1.39-3.07,1.98-4.77s1.08-3.42,1.48-5.17ZM152.18,235.37l2.24-1.25c.71.89,1.45,1.86,2.22,2.93.77,1.06,1.5,2.09,2.17,3.08.67.99,1.21,1.86,1.62,2.62l-2.43,1.52c-.38-.78-.89-1.69-1.54-2.72s-1.34-2.08-2.09-3.15c-.75-1.08-1.48-2.08-2.19-3.02ZM153.17,225.53h11.67v2.62h-11.67v-2.62ZM163.81,225.53h2.7v.89c0,.24-.01.42-.04.55-.15,4.36-.3,8.04-.44,11.06-.14,3.02-.31,5.48-.51,7.39-.2,1.91-.44,3.4-.7,4.46-.27,1.06-.59,1.82-.97,2.28-.43.56-.88.94-1.35,1.16-.47.21-1.04.36-1.73.44-.63.05-1.46.07-2.49.06-1.03-.01-2.08-.06-3.17-.13-.03-.41-.12-.87-.28-1.41-.17-.53-.39-.98-.67-1.33,1.27.1,2.41.17,3.44.19,1.03.03,1.77.04,2.22.04.38,0,.69-.04.93-.13.24-.09.48-.26.7-.51.3-.33.58-1.01.82-2.03.24-1.03.45-2.49.63-4.39.18-1.9.34-4.33.49-7.28.15-2.95.29-6.52.42-10.7v-.61Z"/><path d="M170.92,231.42h6.8v2.77h-6.8v-2.77ZM172.93,222.3l1.82-1.75c.68.56,1.4,1.18,2.15,1.86.75.68,1.46,1.36,2.13,2.01.67.66,1.2,1.25,1.58,1.79l-1.94,2.05c-.41-.56-.92-1.18-1.56-1.88-.63-.7-1.32-1.41-2.05-2.13-.74-.72-1.44-1.37-2.13-1.96ZM176.27,253.35c-.08-.25-.2-.54-.36-.85-.17-.32-.35-.63-.55-.93-.2-.3-.38-.56-.53-.76.28-.2.58-.53.89-.97.32-.44.48-1.06.48-1.84v-16.57h2.66v19.11c-.51.38-.94.72-1.29,1.01-.36.29-.66.59-.91.91-.25.32-.38.61-.38.89ZM176.27,253.35l-.42-2.66.84-1.18,6.73-4.45c.08.35.19.77.34,1.23s.29.85.42,1.16c-1.6,1.09-2.88,1.98-3.86,2.68-.98.7-1.74,1.25-2.28,1.65-.54.41-.94.72-1.18.93-.24.21-.44.42-.59.63ZM181.37,235.41h24.24v2.58h-24.24v-2.58ZM182.7,220.9h21.62v2.55h-21.62v-2.55ZM184.07,227.74h15.77v2.47h-15.77v-2.47ZM184.52,241.15h18.51v13.22h-2.81v-10.68h-12.96v10.79h-2.74v-13.34ZM185.89,250.5h15.46v2.51h-15.46v-2.51ZM190.68,221.88l2.85.3c-.28,1.57-.62,3.26-1.03,5.07-.41,1.81-.8,3.56-1.2,5.24-.39,1.69-.74,3.13-1.04,4.35h-3c.28-.94.58-2.03.89-3.27s.63-2.53.93-3.88.59-2.69.87-4.05c.28-1.35.52-2.62.72-3.78ZM199.15,227.74h.27l.46-.15,2.01.19c-.1,1.42-.24,2.94-.4,4.56-.16,1.62-.34,3.1-.51,4.45l-2.7-.19c.13-.94.25-1.93.36-2.98.11-1.05.21-2.07.3-3.06.09-.99.16-1.81.21-2.47v-.34Z"/><path d="M209.26,225.23h34.09v2.51h-34.09v-2.51ZM214.43,242.52h23.71v11.82h-2.89v-9.39h-18.01v9.5h-2.81v-11.93ZM214.81,230.85h22.91v2.36h-22.91v-2.36ZM214.81,236.55h22.91v2.36h-22.91v-2.36ZM216.25,250.42h20.1v2.43h-20.1v-2.43ZM222.86,220.29l2.78-.84c.73.81,1.47,1.71,2.2,2.7.73.99,1.27,1.86,1.6,2.62l-2.89.95c-.33-.73-.84-1.61-1.54-2.64-.7-1.03-1.41-1.96-2.15-2.79Z"/><path d="M248.74,255.51l-.84-2.01c1.54-.63,2.73-1.44,3.55-2.43.82-.99,1.24-2.2,1.24-3.65l-.68-3.19,2.05,2.89c-.28.33-.6.55-.95.67s-.71.17-1.06.17c-.79,0-1.46-.23-2.01-.68s-.84-1.13-.84-2.01.29-1.6.85-2.05c.57-.46,1.25-.68,2.03-.68,1.06,0,1.87.4,2.41,1.2.54.8.82,1.86.82,3.17,0,2.05-.6,3.83-1.79,5.32-1.19,1.49-2.79,2.6-4.79,3.31Z"/><path d="M18.65,291.92c1.32-.18,2.84-.4,4.58-.67,1.74-.27,3.58-.55,5.53-.85,1.95-.3,3.9-.61,5.85-.91l.15,2.47c-2.76.46-5.52.92-8.26,1.41-2.75.48-5.17.91-7.28,1.29l-.57-2.74ZM18.99,266.76h14.29v2.58h-14.29v-2.58ZM21.05,268.05h2.58v24.32h-2.58v-24.32ZM22.64,274.74h7.37v2.39h-7.37v-2.39ZM22.64,282.57h7.37v2.43h-7.37v-2.43ZM29.1,268.05h2.51v32.03h-2.51v-32.03ZM41.38,275.01h2.85v5.28c0,1.42-.1,2.97-.29,4.65-.19,1.69-.61,3.41-1.25,5.19-.65,1.77-1.64,3.54-2.98,5.3-1.34,1.76-3.15,3.41-5.43,4.96-.23-.3-.55-.65-.97-1.05-.42-.39-.82-.72-1.2-.97,2.21-1.39,3.93-2.89,5.19-4.48,1.25-1.6,2.17-3.2,2.75-4.83.58-1.62.95-3.19,1.1-4.69.15-1.51.23-2.88.23-4.12v-5.24ZM33.47,282.57h20.06v2.66h-20.06v-2.66ZM34.42,273.03h17.67v2.62h-17.67v-2.62ZM35.64,266.88l2.32-1.14c.78.86,1.54,1.83,2.28,2.91.73,1.08,1.27,2.03,1.6,2.87l-2.43,1.29c-.36-.81-.88-1.78-1.58-2.91-.7-1.13-1.42-2.13-2.18-3.02ZM43.96,284.81c.81,2.94,2.06,5.55,3.74,7.83,1.68,2.28,3.76,3.97,6.21,5.05-.2.18-.42.4-.67.68-.24.28-.47.56-.68.85-.21.29-.4.56-.55.82-2.58-1.34-4.75-3.29-6.5-5.83s-3.08-5.48-3.99-8.8l2.43-.61ZM47.99,265.74l2.93.87c-.74,1.29-1.53,2.62-2.38,3.97-.85,1.36-1.65,2.51-2.41,3.48l-2.36-.8c.48-.68.99-1.46,1.52-2.34s1.04-1.77,1.52-2.68c.48-.91.87-1.75,1.18-2.51Z"/><path d="M66.08,288.53l2.85,1.03c-.76,1.01-1.62,2.03-2.58,3.04s-1.96,1.96-2.98,2.85c-1.03.89-2.02,1.67-2.98,2.36-.18-.18-.42-.39-.72-.63-.3-.24-.62-.47-.93-.7s-.6-.42-.85-.57c1.52-.91,3.01-2.03,4.48-3.34,1.47-1.32,2.71-2.66,3.72-4.03ZM60.11,287.74c-.03-.2-.09-.46-.19-.78-.1-.32-.21-.65-.32-.99-.12-.34-.24-.64-.36-.89.61-.08,1.34-.29,2.2-.65.86-.35,1.89-.82,3.08-1.41.66-.3,1.62-.81,2.89-1.52,1.27-.71,2.71-1.56,4.33-2.55,1.62-.99,3.3-2.08,5.04-3.27,1.73-1.19,3.39-2.43,4.96-3.72l2.2,1.82c-3.57,2.71-7.2,5.12-10.89,7.24-3.69,2.12-7.33,3.93-10.92,5.45v.11c-.41.13-.74.25-1.01.36-.27.11-.5.24-.7.38-.2.14-.3.27-.3.4ZM85.72,265.39l1.98,2.39c-1.77.43-3.78.82-6,1.16-2.23.34-4.57.64-7.01.89-2.45.25-4.92.47-7.43.65-2.51.18-4.93.32-7.26.42-.03-.35-.11-.77-.27-1.25-.15-.48-.3-.89-.46-1.22,2.31-.13,4.69-.28,7.14-.46s4.87-.39,7.24-.65c2.37-.25,4.58-.54,6.65-.85s3.87-.68,5.42-1.08ZM60.11,287.74l-.08-2.05,1.94-1.03,24.32-1.63c-.05.38-.08.79-.08,1.23s.01.8.04,1.08c-3.78.28-7.01.52-9.71.72-2.7.2-4.97.37-6.82.51-1.85.14-3.35.27-4.5.38-1.15.11-2.06.21-2.72.28-.66.08-1.17.15-1.52.23-.36.08-.65.17-.88.27ZM62.16,279.8c-.03-.18-.08-.42-.17-.74-.09-.32-.19-.64-.3-.97-.11-.33-.22-.61-.32-.84.38-.05.8-.21,1.27-.49.47-.28.98-.62,1.54-1.03.3-.2.75-.54,1.35-1.03.59-.48,1.27-1.05,2.03-1.71.76-.66,1.53-1.38,2.32-2.17.79-.78,1.52-1.58,2.2-2.39l2.43,1.37c-1.65,1.7-3.36,3.29-5.15,4.79-1.79,1.5-3.57,2.79-5.34,3.88v.08c-.38.15-.69.29-.93.42-.24.13-.46.27-.65.42-.19.15-.29.29-.29.42ZM62.16,279.8v-1.94l1.6-.84,13.15-.68c-.08.35-.14.75-.19,1.2-.05.44-.09.8-.11,1.08-3.01.15-5.43.29-7.24.42-1.81.13-3.19.23-4.14.3-.95.08-1.63.15-2.05.23s-.75.15-1.01.23ZM73.11,285.5h2.89v10.83c0,.79-.11,1.39-.32,1.82-.22.43-.64.77-1.27,1.03-.63.23-1.43.37-2.39.42s-2.14.08-3.53.08c-.08-.43-.22-.92-.44-1.46-.22-.55-.44-1.01-.67-1.39.78.03,1.51.05,2.18.08.67.03,1.25.03,1.75.02s.84-.02,1.04-.02c.33-.02.54-.08.63-.17.09-.09.13-.23.13-.44v-10.79ZM79.38,289.83l2.24-1.48c1.06.79,2.17,1.65,3.33,2.58,1.15.94,2.24,1.86,3.27,2.77,1.03.91,1.88,1.74,2.56,2.47l-2.43,1.71c-.61-.71-1.42-1.54-2.43-2.49-1.01-.95-2.09-1.91-3.23-2.89-1.14-.98-2.24-1.87-3.31-2.68ZM80.44,280.17l2.21-1.14c.96.86,1.94,1.8,2.94,2.81,1,1.01,1.92,2.01,2.77,3,.85.99,1.53,1.86,2.03,2.62l-2.28,1.37c-.48-.79-1.15-1.68-2-2.7-.85-1.01-1.77-2.05-2.75-3.1-.99-1.05-1.96-2.01-2.93-2.87Z"/><path d="M99.9,267.71h24.93v31.77h-3.04v-28.92h-18.96v29.11h-2.93v-31.96ZM101.8,294.35h21.32v2.85h-21.32v-2.85ZM101.87,280.86h21.2v2.81h-21.2v-2.81Z"/><path d="M132.77,282.42l1.67-1.98c.73.3,1.52.67,2.36,1.1.84.43,1.63.87,2.38,1.31.75.44,1.35.88,1.81,1.31l-1.71,2.17c-.46-.41-1.05-.84-1.79-1.31-.74-.47-1.51-.94-2.34-1.41-.82-.47-1.62-.87-2.38-1.2ZM133.52,267.79h33.44v2.55h-33.44v-2.55ZM133.56,297.73c.71-.76,1.49-1.67,2.36-2.72.86-1.05,1.75-2.17,2.66-3.34.91-1.18,1.76-2.34,2.55-3.48l1.75,2.01c-.71,1.06-1.48,2.17-2.3,3.31-.82,1.14-1.65,2.26-2.49,3.36s-1.66,2.12-2.47,3.06l-2.05-2.2ZM135.35,275.05l1.63-1.94c.71.33,1.47.72,2.3,1.18.82.46,1.61.91,2.36,1.37s1.36.87,1.84,1.25l-1.71,2.17c-.48-.38-1.09-.81-1.82-1.29-.74-.48-1.51-.96-2.32-1.44-.81-.48-1.57-.91-2.28-1.29ZM142.15,265.13h2.77v8.44h-2.77v-8.44ZM150.97,272.31l2.81.57c-1.06,1.72-2.38,3.48-3.93,5.26-1.56,1.79-3.38,3.45-5.45,5-.23-.28-.54-.59-.95-.95-.4-.35-.76-.62-1.06-.8,1.98-1.32,3.7-2.8,5.17-4.45,1.47-1.65,2.61-3.19,3.42-4.64ZM162.25,275.16h.53l.49-.11,1.79,1.1c-1.01,1.72-2.31,3.3-3.88,4.73-1.57,1.43-3.31,2.71-5.21,3.84-1.9,1.13-3.88,2.11-5.93,2.94-2.05.84-4.08,1.52-6.08,2.05-.13-.35-.33-.77-.61-1.23-.28-.47-.56-.84-.84-1.12,1.9-.4,3.83-.98,5.79-1.73,1.96-.75,3.84-1.63,5.64-2.64,1.8-1.01,3.41-2.14,4.84-3.38s2.58-2.57,3.44-3.99v-.46ZM146.52,288.73h17.56v11.36h-2.81v-9.08h-12.04v9.08h-2.7v-11.36ZM150.02,277.36c.96,1.04,2.13,2.05,3.5,3.02,1.37.98,2.87,1.89,4.5,2.75,1.63.86,3.32,1.63,5.07,2.3,1.75.67,3.46,1.21,5.13,1.61-.3.3-.63.68-.97,1.14s-.61.86-.82,1.22c-1.67-.48-3.38-1.09-5.13-1.82-1.75-.73-3.45-1.58-5.11-2.55-1.66-.96-3.22-1.99-4.67-3.08-1.46-1.09-2.72-2.23-3.78-3.42l2.28-1.18ZM148.27,296.17h13.95v2.28h-13.95v-2.28ZM150.32,275.16h12.54v2.24h-12.54v-2.24ZM155.26,265.13h2.77v8.44h-2.77v-8.44Z"/><path d="M181.52,266.23l3.04.84c-.84,2.08-1.83,4.08-2.98,6.02-1.15,1.94-2.39,3.73-3.71,5.38-1.32,1.65-2.69,3.1-4.1,4.37-.18-.2-.42-.43-.74-.68-.32-.25-.65-.51-.99-.76s-.64-.46-.89-.61c1.44-1.14,2.81-2.48,4.1-4.01,1.29-1.53,2.48-3.2,3.55-5,1.08-1.8,1.98-3.65,2.72-5.55ZM175.33,297.58c-.05-.2-.14-.49-.27-.86-.13-.37-.26-.75-.4-1.16-.14-.4-.29-.73-.44-.99.51-.13,1.03-.47,1.58-1.03.54-.56,1.17-1.28,1.88-2.17.36-.43.89-1.13,1.62-2.11.72-.98,1.53-2.14,2.41-3.5.89-1.35,1.78-2.81,2.68-4.37.9-1.56,1.73-3.12,2.49-4.69l3.12,1.33c-1.22,2.2-2.5,4.38-3.86,6.54-1.36,2.15-2.75,4.19-4.18,6.1-1.43,1.91-2.88,3.63-4.35,5.15v.11c-.46.2-.83.39-1.12.55-.29.17-.56.34-.8.53-.24.19-.36.37-.36.55ZM175.33,297.58l-.04-2.39,2.01-1.14,21.32-1.22c.08.41.18.87.3,1.41s.23.96.3,1.29c-3.4.23-6.31.43-8.76.61-2.45.18-4.5.32-6.17.44-1.67.11-3.04.22-4.1.3-1.06.09-1.91.17-2.54.25-.63.08-1.12.15-1.44.23-.33.08-.62.15-.87.23ZM194.48,265.92c.63,1.32,1.39,2.66,2.28,4.03.89,1.37,1.84,2.7,2.87,3.99s2.07,2.49,3.13,3.59c1.06,1.1,2.09,2.06,3.08,2.87-.25.18-.53.41-.82.7-.29.29-.58.58-.86.87-.28.29-.52.58-.72.85-.99-.94-2.02-2.01-3.1-3.21-1.08-1.2-2.13-2.5-3.17-3.9-1.04-1.39-2.03-2.82-2.96-4.29-.94-1.47-1.77-2.93-2.51-4.37l2.77-1.14ZM192.43,286.63l2.66-1.22c1.14,1.34,2.29,2.79,3.44,4.35,1.15,1.56,2.23,3.08,3.25,4.56,1.01,1.48,1.84,2.81,2.47,3.97l-2.81,1.52c-.61-1.17-1.41-2.51-2.41-4.05-1-1.53-2.08-3.1-3.23-4.69-1.15-1.6-2.27-3.08-3.36-4.45Z"/><path d="M210.32,266.91h31.84v33.17h-2.93v-30.51h-26.11v30.51h-2.81v-33.17ZM212,295.68h28.42v2.66h-28.42v-2.66ZM220.96,280.63h2.58c-.08,1.88-.23,3.55-.47,5.02-.24,1.47-.64,2.77-1.2,3.9-.56,1.13-1.34,2.11-2.34,2.94-1,.84-2.3,1.55-3.89,2.13-.13-.3-.35-.67-.67-1.1-.32-.43-.61-.76-.89-.99,1.9-.66,3.33-1.5,4.28-2.53.95-1.03,1.6-2.31,1.96-3.84.35-1.53.57-3.38.65-5.53ZM214.69,279.91h22.84v2.43h-22.84v-2.43ZM217.16,273.37h18.16v2.39h-18.16v-2.39ZM227.88,280.63h2.51v9.46c0,.43.06.71.19.84.13.13.42.19.87.19h3.12c.3,0,.53-.09.66-.27.14-.18.24-.54.3-1.08.06-.54.11-1.37.13-2.49.25.2.6.4,1.04.59.44.19.84.32,1.2.4-.08,1.37-.22,2.43-.42,3.17-.2.75-.51,1.27-.91,1.58-.41.3-.98.46-1.71.46h-3.76c-.86,0-1.53-.1-1.99-.3-.47-.2-.79-.54-.97-1.03-.18-.48-.27-1.15-.27-2.01v-9.5Z"/><path d="M20.51,316.85h2.62v27.85h-2.62v-27.85ZM22,327.41h10.49v2.51h-10.49v-2.51ZM22.19,316.85h11.55v24.85h-11.55v-2.58h8.93v-19.72h-8.93v-2.55ZM26.33,310.65l3.08.53c-.38,1.19-.79,2.39-1.24,3.61-.44,1.22-.85,2.25-1.24,3.12l-2.32-.57c.23-.63.45-1.34.67-2.13.21-.78.42-1.58.61-2.39.19-.81.34-1.53.44-2.17ZM39.93,310.58l2.74.61c-.46,1.9-1.01,3.76-1.65,5.57-.65,1.81-1.36,3.52-2.13,5.11-.77,1.6-1.59,3-2.45,4.22-.18-.15-.41-.34-.7-.55-.29-.21-.59-.42-.89-.61-.3-.19-.57-.35-.8-.48.89-1.14,1.7-2.45,2.43-3.93.73-1.48,1.39-3.07,1.98-4.77s1.08-3.42,1.48-5.17ZM38.18,326.57l2.24-1.25c.71.89,1.45,1.86,2.22,2.93.77,1.06,1.5,2.09,2.17,3.08.67.99,1.21,1.86,1.62,2.62l-2.43,1.52c-.38-.78-.89-1.69-1.54-2.72s-1.34-2.08-2.09-3.15c-.75-1.08-1.48-2.08-2.19-3.02ZM39.17,316.73h11.67v2.62h-11.67v-2.62ZM49.81,316.73h2.7v.89c0,.24-.01.42-.04.55-.15,4.36-.3,8.04-.44,11.06-.14,3.02-.31,5.48-.51,7.39-.2,1.91-.44,3.4-.7,4.46-.27,1.06-.59,1.82-.97,2.28-.43.56-.88.94-1.35,1.16-.47.21-1.04.36-1.73.44-.63.05-1.46.07-2.49.06-1.03-.01-2.08-.06-3.17-.13-.03-.41-.12-.87-.28-1.41-.17-.53-.39-.98-.67-1.33,1.27.1,2.41.17,3.44.19,1.03.03,1.77.04,2.22.04.38,0,.69-.04.93-.13.24-.09.48-.26.7-.51.3-.33.58-1.01.82-2.03.24-1.03.45-2.49.63-4.39.18-1.9.34-4.33.49-7.28.15-2.95.29-6.52.42-10.7v-.61Z"/><path d="M59.01,312.25h2.55v14.86c0,1.39-.03,2.91-.1,4.54-.06,1.63-.2,3.29-.4,4.98-.2,1.69-.49,3.31-.88,4.88-.38,1.57-.89,3-1.52,4.29-.13-.18-.32-.36-.59-.55-.27-.19-.54-.37-.82-.55-.28-.18-.52-.32-.72-.42.76-1.65,1.32-3.46,1.67-5.45.35-1.99.58-4,.67-6.02.09-2.03.13-3.91.13-5.66v-14.9ZM60.15,312.25h13.34v2.51h-13.34v-2.51ZM63.57,344.62c-.08-.33-.2-.75-.38-1.25s-.38-.92-.61-1.25c.28-.1.55-.29.82-.57.27-.28.4-.76.4-1.44v-21.09h2.47v23.6c-.56.25-1.01.47-1.37.67-.36.19-.67.4-.93.65s-.4.48-.4.7ZM63.57,344.62l-.3-2.39,1.03-1.06,8.02-3.46c.05.38.12.79.21,1.22.09.43.17.77.25,1.03-1.85.86-3.35,1.56-4.5,2.11-1.15.54-2.04.97-2.66,1.29-.62.32-1.08.57-1.37.76-.29.19-.51.36-.66.51ZM65.28,319.01h6.61v2.39h-6.61v-2.39ZM70.6,319.01h2.32v12.16c0,.58-.06,1.05-.19,1.41-.13.35-.38.63-.76.84-.38.2-.87.32-1.48.36-.61.04-1.34.06-2.21.06-.03-.33-.1-.7-.23-1.12-.13-.42-.28-.79-.46-1.12.63.03,1.18.04,1.65.04s.78-.01.93-.04c.18,0,.29-.02.34-.08s.08-.16.08-.34v-12.16ZM81.58,323.88h2.47v7.71c0,1.17-.1,2.39-.3,3.67-.2,1.28-.6,2.55-1.2,3.8-.6,1.25-1.5,2.45-2.7,3.59-1.2,1.14-2.81,2.17-4.81,3.08-.18-.28-.42-.61-.74-.99s-.61-.68-.89-.91c1.85-.76,3.32-1.64,4.41-2.64,1.09-1,1.91-2.06,2.45-3.19.54-1.13.9-2.24,1.06-3.32.17-1.09.25-2.13.25-3.12v-7.68ZM74.97,312.44h16.34v2.47h-16.34v-2.47ZM75.88,318.71h14.21v18.05h-2.58v-15.81h-9.16v15.81h-2.47v-18.05ZM82.04,313.77l2.81.42c-.41.99-.83,2-1.27,3.04-.44,1.04-.87,1.93-1.27,2.66l-2.13-.46c.2-.53.42-1.13.67-1.81.24-.67.47-1.35.68-2.03.21-.68.39-1.29.51-1.82ZM83.4,339.53l1.56-1.6c.79.56,1.6,1.18,2.45,1.86.85.68,1.65,1.37,2.41,2.05.76.68,1.37,1.29,1.82,1.82l-1.63,1.82c-.46-.56-1.06-1.19-1.8-1.9-.75-.71-1.54-1.42-2.38-2.13-.84-.71-1.65-1.35-2.43-1.94Z"/><path d="M119.69,320.3h.53l.53-.15,1.94,1.18c-1.29,1.98-2.92,3.76-4.88,5.34-1.96,1.58-4.15,2.98-6.55,4.2-2.41,1.22-4.92,2.25-7.52,3.12-2.61.86-5.21,1.56-7.79,2.09-.08-.25-.19-.54-.34-.85-.15-.32-.32-.63-.51-.93-.19-.3-.37-.56-.55-.76,2.46-.43,4.94-1.03,7.45-1.8,2.51-.77,4.9-1.7,7.18-2.77,2.28-1.08,4.33-2.3,6.16-3.69s3.28-2.88,4.37-4.5v-.46ZM96.13,314.19h32.15v7.14h-2.89v-4.56h-26.45v4.56h-2.81v-7.14ZM107.57,317.45l3.08.57c-1.29,1.85-2.93,3.64-4.9,5.38-1.98,1.74-4.35,3.3-7.11,4.69-.15-.23-.34-.47-.55-.74s-.45-.51-.7-.74c-.25-.23-.48-.42-.68-.57,2.63-1.17,4.87-2.52,6.71-4.07,1.84-1.54,3.22-3.05,4.16-4.52ZM101.99,333.98h20.79v11.63h-2.93v-9.23h-15.05v9.27h-2.81v-11.67ZM103.51,341.96h17.82v2.39h-17.82v-2.39ZM106.05,322.05c1.49,1.9,3.46,3.57,5.89,5.02,2.43,1.44,5.19,2.64,8.27,3.59,3.08.95,6.3,1.64,9.67,2.07-.2.23-.42.5-.65.82-.23.32-.44.64-.65.97-.2.33-.38.63-.53.91-3.4-.53-6.64-1.34-9.73-2.41-3.09-1.08-5.9-2.43-8.42-4.07-2.52-1.63-4.63-3.55-6.33-5.76l2.47-1.14ZM107.27,320.3h13.22v2.24h-15.28l2.05-2.24ZM109.62,311.11l2.77-.72c.48.74.99,1.56,1.52,2.47.53.91.92,1.7,1.18,2.36l-2.89.84c-.25-.63-.63-1.42-1.12-2.36-.49-.94-.98-1.8-1.46-2.58Z"/><path d="M33.34,478.24c-.06.23-.29.35-.58.41,2.84,3.89,8.15,8.47,12.65,10.94-.49.46-.96,1.1-1.3,1.68-4.58-2.76-9.83-7.37-12.53-11.17-2.35,3.63-7.22,8.27-12.24,11.37-.26-.44-.81-1.1-1.22-1.51,5.08-2.99,10.15-7.95,12.44-11.92l2.79.2ZM39.6,493.26l.38-.09,1.39.55c-.06.17-.14.29-.26.43-1.22,2.67-3.51,7.48-5.4,11.11l-2-.55c1.57-2.96,3.45-6.87,4.7-9.6h-16.91v-1.86h18.1ZM25.24,487.55h12.97v1.83h-12.97v-1.83Z"/><path d="M72.84,491.69h-10.67c1.92,6,5.74,10.12,12.15,11.69-.43.43-1.02,1.28-1.33,1.83-6.12-1.74-9.89-5.6-12.1-11.4-1.16,4.35-4.32,8.56-12.42,11.4-.2-.49-.78-1.3-1.19-1.68,8.59-3.02,11.2-7.45,11.95-11.83h-10.53v-2h10.73c.06-.61.06-1.22.06-1.8v-5.37h-11.69v-2h25.82v2h-12.07v5.37c0,.58,0,1.19-.06,1.8h11.34v2Z"/><path d="M81.12,496.8c-.06.23-.29.32-.58.29-.64,2.26-1.77,4.79-3.1,6.29-.29-.32-.93-.93-1.31-1.22,1.16-1.36,2.15-3.68,2.73-6l2.26.64ZM90.96,482.27v1.86h-14.59v-1.86h6.32v-4.09l2.52.14c-.03.23-.17.35-.55.41v3.54h6.29ZM88.93,494.68h-4.32v8.24c0,2.15-1.04,2.2-4.55,2.2-.09-.52-.38-1.31-.64-1.83,1.39.03,2.46.03,2.84.03.35-.03.43-.14.43-.43v-8.21h-4.47v-8.09h10.7v8.09ZM80.08,488.3v4.67h6.93v-4.67h-6.93ZM87.42,496.1c1.13,1.33,2.32,3.16,2.87,4.38l-1.65.84c-.52-1.22-1.71-3.13-2.76-4.5l1.54-.73ZM97.43,502.02c0,1.22.2,1.39,1.13,1.39h1.42c1.57,0,1.65-.17,1.65-4.18.38.35,1.02.67,1.51.81-.09,4.06-.29,4.99-3.05,4.99h-1.94c-.64,0-1.36-.15-1.86-.49-.52-.35-.7-.81-.7-2.79v-9.02c-.84,4.38-2.67,8.85-6.53,12.47-.38-.38-1.16-.9-1.68-1.13,5.16-4.7,6.53-10.88,6.88-16.16h-3.95v-1.86h4.03c.03-.67.03-1.33.03-1.94v-5.95l2.49.14c-.03.2-.2.35-.58.41v5.37c0,.64,0,1.31-.03,1.97h6.79v1.86h-6.88c-.03.52-.06,1.02-.12,1.54,1.04.09,1.51.12,1.94.15-.03.2-.17.32-.58.38v12.04ZM99.2,479.13c1.51,1.42,2.96,3.39,3.6,4.82l-1.65.87c-.58-1.42-2-3.48-3.48-4.93l1.54-.75Z"/><path d="M118.16,478.87c-.09.2-.32.32-.67.32-.38,1.19-.78,2.44-1.28,3.66h15.34v1.89h-16.19c-.96,2.06-2.09,4.09-3.48,5.98l.32.09c-.06.2-.23.35-.58.38v14.01h-1.94v-11.78c-1.04,1.13-2.18,2.15-3.42,3.08-.23-.52-.75-1.33-1.07-1.77,1.68-1.22,3.19-2.7,4.5-4.35v-.2l.12.03c1.31-1.68,2.44-3.54,3.37-5.45h-7.28v-1.89h8.15c.64-1.54,1.16-3.1,1.6-4.64l2.52.67ZM123.56,493.96v8.67h8.01v1.83h-17.81v-1.83h7.83v-8.67h-6.67v-1.83h6.67v-5.83l2.52.17c-.03.2-.17.32-.55.38v5.28h6.85v1.83h-6.85Z"/><path d="M23.12,520.08h-5.95v-2.15h14.47v2.15h-5.98v17.4h-2.55v-17.4Z"/><path d="M33.53,516.89h2.55v8.76h.06c.41-.72,1.04-1.36,1.83-1.8.75-.44,1.65-.73,2.61-.73,1.89,0,4.9,1.16,4.9,6v8.35h-2.55v-8.06c0-2.26-.84-4.18-3.25-4.18-1.65,0-2.96,1.16-3.42,2.55-.14.35-.17.73-.17,1.22v8.47h-2.55v-20.59Z"/><path d="M51.05,530.93c.06,3.45,2.26,4.87,4.81,4.87,1.83,0,2.93-.32,3.89-.72l.44,1.83c-.9.41-2.44.87-4.67.87-4.32,0-6.9-2.84-6.9-7.08s2.5-7.57,6.58-7.57c4.58,0,5.8,4.03,5.8,6.61,0,.52-.06.93-.09,1.19h-9.86ZM58.53,529.11c.03-1.62-.67-4.15-3.54-4.15-2.58,0-3.71,2.38-3.92,4.15h7.46Z"/><path d="M70.05,534.41c1.13.7,2.78,1.28,4.52,1.28,2.58,0,4.09-1.36,4.09-3.33,0-1.83-1.04-2.87-3.68-3.89-3.19-1.13-5.16-2.78-5.16-5.54,0-3.05,2.52-5.31,6.32-5.31,2,0,3.45.46,4.32.96l-.7,2.06c-.64-.35-1.94-.93-3.71-.93-2.67,0-3.68,1.6-3.68,2.93,0,1.83,1.19,2.73,3.89,3.77,3.31,1.28,4.99,2.87,4.99,5.74,0,3.02-2.23,5.63-6.85,5.63-1.88,0-3.94-.55-4.99-1.25l.64-2.12Z"/><path d="M96.35,533.66c0,1.45.03,2.73.12,3.83h-2.26l-.15-2.29h-.06c-.67,1.13-2.15,2.61-4.64,2.61-2.2,0-4.84-1.22-4.84-6.15v-8.21h2.55v7.77c0,2.67.81,4.47,3.13,4.47,1.71,0,2.9-1.19,3.36-2.32.15-.38.23-.84.23-1.3v-8.62h2.55v10.21Z"/><path d="M100.58,527.25c0-1.45-.03-2.64-.12-3.8h2.26l.14,2.32h.06c.7-1.33,2.32-2.64,4.64-2.64,1.94,0,4.96,1.16,4.96,5.98v8.38h-2.55v-8.09c0-2.26-.84-4.15-3.25-4.15-1.68,0-2.99,1.19-3.42,2.61-.12.32-.17.75-.17,1.19v8.44h-2.55v-10.24Z"/><path d="M116.33,534.88c.75.49,2.09,1.01,3.37,1.01,1.86,0,2.73-.93,2.73-2.09,0-1.22-.73-1.89-2.61-2.58-2.52-.9-3.71-2.29-3.71-3.97,0-2.26,1.83-4.12,4.84-4.12,1.42,0,2.67.41,3.45.87l-.64,1.86c-.55-.35-1.57-.81-2.87-.81-1.51,0-2.35.87-2.35,1.92,0,1.16.84,1.68,2.67,2.38,2.44.93,3.68,2.15,3.68,4.24,0,2.47-1.92,4.21-5.25,4.21-1.54,0-2.96-.38-3.94-.96l.64-1.94Z"/><path d="M129.58,530.93c.06,3.45,2.26,4.87,4.81,4.87,1.83,0,2.93-.32,3.89-.72l.44,1.83c-.9.41-2.44.87-4.67.87-4.32,0-6.9-2.84-6.9-7.08s2.5-7.57,6.58-7.57c4.58,0,5.8,4.03,5.8,6.61,0,.52-.06.93-.09,1.19h-9.86ZM137.07,529.11c.03-1.62-.67-4.15-3.54-4.15-2.58,0-3.71,2.38-3.92,4.15h7.46Z"/><path d="M145.76,519.42v4.03h3.66v1.94h-3.66v7.57c0,1.74.49,2.73,1.92,2.73.67,0,1.16-.09,1.48-.17l.12,1.92c-.49.2-1.28.35-2.26.35-1.19,0-2.15-.38-2.75-1.07-.73-.75-.99-2-.99-3.66v-7.66h-2.18v-1.94h2.18v-3.37l2.49-.67Z"/><path d="M158.52,518.17c1.22-.2,2.81-.38,4.84-.38,2.49,0,4.32.58,5.48,1.62,1.07.93,1.71,2.35,1.71,4.09s-.52,3.16-1.51,4.18c-1.33,1.42-3.51,2.15-5.97,2.15-.75,0-1.45-.03-2.03-.17v7.83h-2.52v-19.32ZM161.05,527.6c.55.15,1.25.2,2.09.2,3.05,0,4.9-1.48,4.9-4.18s-1.83-3.83-4.61-3.83c-1.1,0-1.94.09-2.38.2v7.6Z"/><path d="M185.84,530.35c0,5.19-3.6,7.46-6.99,7.46-3.8,0-6.73-2.79-6.73-7.22,0-4.7,3.07-7.46,6.96-7.46s6.76,2.93,6.76,7.22ZM174.71,530.5c0,3.07,1.77,5.39,4.26,5.39s4.26-2.29,4.26-5.45c0-2.38-1.19-5.4-4.21-5.4s-4.32,2.79-4.32,5.45Z"/><path d="M188.71,534.88c.75.49,2.09,1.01,3.37,1.01,1.86,0,2.73-.93,2.73-2.09,0-1.22-.73-1.89-2.61-2.58-2.52-.9-3.71-2.29-3.71-3.97,0-2.26,1.83-4.12,4.84-4.12,1.42,0,2.67.41,3.45.87l-.64,1.86c-.55-.35-1.57-.81-2.87-.81-1.51,0-2.35.87-2.35,1.92,0,1.16.84,1.68,2.67,2.38,2.44.93,3.68,2.15,3.68,4.24,0,2.47-1.92,4.21-5.25,4.21-1.54,0-2.96-.38-3.94-.96l.64-1.94Z"/><path d="M203.62,519.42v4.03h3.66v1.94h-3.66v7.57c0,1.74.49,2.73,1.92,2.73.67,0,1.16-.09,1.48-.17l.12,1.92c-.49.2-1.28.35-2.26.35-1.19,0-2.15-.38-2.75-1.07-.73-.75-.99-2-.99-3.66v-7.66h-2.18v-1.94h2.18v-3.37l2.49-.67Z"/><path d="M31.74,571.39h13.17v1.97h-26.37v-1.97h11.17v-23.12l2.64.17c-.03.2-.2.35-.61.41v8.59h11.14v1.97h-11.14v11.98Z"/><path d="M57.06,562.4l-3.37,1.22v8.76c0,2.09-.96,2.41-4.82,2.35-.09-.46-.38-1.28-.64-1.8,1.36.03,2.61.03,2.99.03.38-.03.55-.14.55-.55v-8.12c-1.36.49-2.61.93-3.6,1.25,0,.23-.15.41-.35.46l-.81-2.29c1.31-.35,2.96-.84,4.76-1.42v-6.79h-4.41v-1.83h4.41v-5.86l2.49.14c-.03.23-.17.35-.58.41v5.31h3.34v1.83h-3.34v6.18l3.13-.99.23,1.71ZM70.89,560.45l1.31.58c-.06.15-.17.2-.26.29-1.1,3.39-2.96,6.09-5.28,8.24,2.15,1.6,4.79,2.78,7.83,3.45-.46.41-1.01,1.19-1.3,1.74-3.16-.81-5.86-2.12-8.09-3.92-2.46,1.8-5.31,3.1-8.3,3.92-.2-.49-.67-1.31-1.07-1.71,2.84-.67,5.57-1.86,7.92-3.54-1.86-1.86-3.31-4.09-4.32-6.73l1.48-.43h-2.55v-1.8h12.3l.35-.09ZM61.84,550.82v1.13c0,2.52-.75,5.69-3.97,7.8-.26-.41-.96-1.13-1.33-1.42,2.93-1.86,3.45-4.38,3.45-6.41v-2.93h9.57v7.17c0,.64.12.75.67.75h1.74c.58,0,.7-.43.75-3.57.41.32,1.16.61,1.65.75-.14,3.6-.61,4.5-2.2,4.5h-2.23c-1.74,0-2.26-.49-2.26-2.44v-5.34h-5.83ZM61.12,562.34c.93,2.29,2.29,4.32,4.03,5.98,1.86-1.62,3.34-3.63,4.32-5.98h-8.35Z"/><path d="M86.64,558.71l1.01.06c-.03.17-.03.44-.03.67-.2,10.04-.44,13.29-1.19,14.3-.61.87-1.39.93-2.96.93-.61,0-1.28,0-1.97-.06-.03-.55-.23-1.3-.49-1.8,1.25.09,2.41.12,2.87.12.44,0,.67-.06.9-.38.52-.7.75-3.65.93-12.01h-4.03c-.35,5.57-1.28,10.82-4.06,14.24-.32-.41-.99-.99-1.51-1.28,3.42-4.09,3.77-11.6,3.92-19h-3.68v-1.86h5.48v-4.79l2.5.14c-.03.2-.17.35-.58.41v4.24h5.69v1.86h-7.51c-.03,1.39-.06,2.81-.12,4.21h4.84ZM103.2,555.15h-2.15c-.78,4.82-2,8.82-3.97,12.07,1.65,2.61,3.71,4.64,6.35,5.89-.46.41-1.07,1.13-1.36,1.68-2.52-1.33-4.55-3.33-6.15-5.8-1.86,2.44-4.24,4.38-7.31,5.83-.2-.46-.7-1.25-1.04-1.65,3.13-1.39,5.51-3.36,7.31-5.98-1.33-2.52-2.32-5.42-3.07-8.64-.61,1.36-1.28,2.61-2,3.63-.35-.35-1.07-.93-1.54-1.22,2.15-2.93,3.74-8.04,4.64-13.14l2.49.55c-.06.2-.26.32-.64.32-.29,1.57-.67,3.13-1.1,4.64h9.54v1.83ZM93.11,555.15c-.06.15-.09.29-.15.44.67,3.57,1.65,6.9,3.05,9.72,1.51-2.79,2.47-6.18,3.1-10.15h-6Z"/><path d="M131.71,551.75v1.89h-21.49v6.15c0,4.44-.46,10.85-3.45,15.17-.32-.41-1.1-1.07-1.57-1.31,2.78-4.06,3.07-9.72,3.07-13.87v-8.04h10.24v-3.94l2.58.17c-.03.2-.17.35-.58.41v3.36h11.2Z"/><path d="M148.67,558.95h12.18v1.86h-26.19v-1.86h12.01v-4.93h-6.38c-.78,1.65-1.65,3.19-2.55,4.35-.41-.32-1.16-.78-1.68-1.01,1.74-2.12,3.34-5.77,4.29-9.25l2.44.67c-.06.2-.26.32-.61.32-.32,1.04-.7,2.09-1.1,3.13h5.6v-4.44l2.58.17c-.03.2-.17.35-.58.41v3.86h9.89v1.8h-9.89v4.93ZM138.98,574.75v-11.14h17.64v11.11h-2.03v-1.19h-13.63v1.22h-1.97ZM154.59,565.44h-13.63v6.27h13.63v-6.27Z"/><path d="M170.77,570.69c0,2.23-1.83,4.06-4.06,4.06s-4.06-1.83-4.06-4.06,1.83-4.06,4.06-4.06,4.06,1.89,4.06,4.06ZM169.72,570.69c0-1.68-1.33-3.02-3.02-3.02s-2.99,1.33-2.99,3.02,1.33,2.99,2.99,2.99c1.74,0,3.02-1.39,3.02-2.99Z"/><path d="M132.59,82.63v-25.65h3.22v10.74h11.97v-10.74h3.25v25.65h-3.25v-12.11h-11.97v12.11h-3.22Z"/><path d="M159.36,59.7c-.63,0-1.14-.19-1.52-.58-.39-.39-.58-.9-.58-1.56s.19-1.13.58-1.5c.38-.37.89-.56,1.52-.56s1.14.19,1.54.56c.4.37.59.88.59,1.5s-.2,1.17-.59,1.56c-.4.38-.91.58-1.54.58ZM157.75,82.63v-19h3.22v19h-3.22Z"/><path d="M169.79,83.08c-.63,0-1.17-.23-1.63-.68-.45-.46-.68-1.03-.68-1.73,0-.75.23-1.34.68-1.79.46-.44,1-.67,1.63-.67s1.2.22,1.64.67c.44.44.67,1.04.67,1.79,0,.7-.22,1.28-.67,1.73s-.99.68-1.64.68ZM168.71,74.89l-.46-14.84-.07-3.64h3.22l-.07,3.64-.42,14.84h-2.21Z"/><path d="M86.79,127.29c-1.33,0-2.48-.26-3.46-.77-.98-.51-1.74-1.24-2.29-2.17-.55-.93-.82-2.04-.82-3.33,0-1,.21-1.92.63-2.75.42-.83.93-1.61,1.54-2.34.61-.74,1.2-1.48,1.79-2.22.58-.75,1.05-1.55,1.4-2.42.35-.86.46-1.84.31-2.94h2.83c.16,1.24.09,2.32-.23,3.25-.31.93-.75,1.79-1.31,2.56-.56.77-1.13,1.51-1.71,2.22s-1.08,1.42-1.5,2.13c-.42.71-.63,1.49-.63,2.33,0,.68.15,1.31.44,1.91.29.6.72,1.06,1.28,1.4.56.34,1.25.51,2.07.51.86,0,1.68-.21,2.45-.63.77-.42,1.46-.97,2.06-1.65l1.86,1.68c-.84.91-1.81,1.67-2.92,2.29s-2.36.93-3.76.93ZM87.21,105.07c-.65,0-1.2-.23-1.64-.7-.44-.47-.67-1.06-.67-1.79s.22-1.31.67-1.77c.44-.46.99-.68,1.64-.68s1.2.23,1.65.68c.44.46.67,1.04.67,1.77s-.22,1.32-.67,1.79c-.44.47-.99.7-1.65.7Z"/><path d="M106.22,120.08c-2.15,0-4.04-.54-5.69-1.63-1.64-1.08-2.93-2.63-3.87-4.64-.93-2.01-1.4-4.38-1.4-7.1s.47-5.12,1.4-7.09c.93-1.97,2.22-3.48,3.87-4.53,1.65-1.05,3.54-1.57,5.69-1.57s4.04.53,5.69,1.59c1.65,1.06,2.93,2.57,3.87,4.53.93,1.96,1.4,4.32,1.4,7.07s-.47,5.1-1.4,7.1c-.93,2.01-2.22,3.55-3.87,4.64-1.64,1.08-3.54,1.63-5.69,1.63ZM106.22,117.39c1.54,0,2.88-.43,4.03-1.29,1.14-.86,2.03-2.1,2.66-3.71.63-1.61.95-3.5.95-5.67s-.32-4-.95-5.55-1.52-2.74-2.66-3.57c-1.14-.83-2.49-1.24-4.03-1.24s-2.85.41-4.01,1.24c-1.16.83-2.05,2.02-2.68,3.57s-.95,3.4-.95,5.55.32,4.06.95,5.67c.63,1.61,1.52,2.85,2.68,3.71,1.15.86,2.49,1.29,4.01,1.29ZM114.06,126.07c-1.61,0-3.06-.28-4.34-.84s-2.36-1.34-3.24-2.33c-.88-.99-1.55-2.11-2.01-3.34l3.36-.28c.35.91.85,1.67,1.49,2.27.64.61,1.4,1.06,2.28,1.37.88.3,1.81.46,2.82.46.58,0,1.1-.04,1.54-.1.44-.07.83-.16,1.16-.28l.63,2.49c-.37.16-.89.3-1.54.42-.65.12-1.37.17-2.13.17Z"/><path d="M127.99,120.08c-2.01,0-3.48-.63-4.43-1.89-.95-1.26-1.42-3.1-1.42-5.53v-12.04h3.22v11.65c0,1.75.28,3.03.84,3.83.56.81,1.47,1.21,2.73,1.21.98,0,1.86-.26,2.62-.77.77-.51,1.61-1.33,2.52-2.45v-13.48h3.18v19h-2.66l-.25-2.98h-.1c-.89,1.03-1.83,1.85-2.82,2.48-.99.63-2.14.95-3.45.95Z"/><path d="M151.36,120.08c-1.7,0-3.24-.4-4.62-1.19s-2.47-1.93-3.27-3.41c-.8-1.48-1.21-3.26-1.21-5.34,0-1.56.23-2.96.7-4.18.47-1.23,1.1-2.27,1.91-3.15s1.72-1.54,2.75-2c1.03-.46,2.08-.68,3.15-.68,1.63,0,3.01.36,4.13,1.08,1.12.72,1.98,1.76,2.57,3.1.6,1.34.89,2.92.89,4.74,0,.35-.01.68-.04.98s-.06.58-.1.84h-12.81c.07,1.35.38,2.53.93,3.52.55.99,1.28,1.76,2.19,2.31s1.97.82,3.19.82c.93,0,1.78-.13,2.54-.4.76-.27,1.5-.64,2.22-1.1l1.12,2.13c-.82.54-1.74.99-2.77,1.37-1.03.37-2.18.56-3.46.56ZM145.38,108.6h10.18c0-1.91-.41-3.38-1.24-4.39-.83-1.02-1.99-1.52-3.48-1.52-.89,0-1.72.23-2.5.7-.78.47-1.43,1.13-1.96,2-.52.86-.86,1.94-1,3.22ZM150.21,97.23l-1.65-1.61,5.53-6.51,2.21,2.1-6.09,6.02Z"/><path d="M176.84,120.08c-1.33,0-2.39-.26-3.18-.79-.79-.52-1.36-1.27-1.7-2.22-.34-.96-.51-2.06-.51-3.32v-10.54h-2.83v-2.42l3.01-.17.35-5.35h2.66v5.35h5.18v2.59h-5.18v10.64c0,1.14.22,2.04.65,2.68.43.64,1.2.96,2.29.96.35,0,.72-.05,1.12-.16.4-.1.75-.23,1.05-.37l.63,2.42c-.54.19-1.11.35-1.71.49-.61.14-1.21.21-1.82.21Z"/><path d="M187.52,120.08c-1.05,0-2-.21-2.84-.63-.84-.42-1.5-1.03-1.98-1.84-.48-.8-.72-1.78-.72-2.92,0-2.08.93-3.67,2.78-4.78,1.86-1.11,4.81-1.88,8.87-2.33,0-.82-.11-1.59-.33-2.33-.22-.73-.61-1.33-1.17-1.78-.56-.46-1.36-.68-2.42-.68s-2.13.22-3.1.65c-.97.43-1.84.89-2.61,1.38l-1.23-2.2c.58-.37,1.26-.75,2.03-1.14.77-.39,1.61-.71,2.52-.96s1.88-.39,2.91-.39c1.54,0,2.79.33,3.76.98.97.65,1.68,1.56,2.13,2.71.46,1.16.68,2.53.68,4.11v11.69h-2.62l-.28-2.27h-.1c-.89.75-1.86,1.39-2.92,1.92s-2.19.81-3.38.81ZM188.43,117.49c.91,0,1.78-.21,2.61-.63s1.7-1.04,2.61-1.85v-5.28c-2.12.23-3.82.57-5.08,1-1.26.43-2.16.96-2.7,1.58-.54.62-.8,1.35-.8,2.19,0,1.1.33,1.87.98,2.33s1.45.68,2.38.68Z"/><path d="M206.21,120.08c-.79,0-1.44-.16-1.93-.49-.49-.33-.85-.81-1.08-1.45s-.35-1.41-.35-2.29v-24.08h3.22v24.29c0,.49.09.84.26,1.05s.38.31.61.31c.09,0,.19,0,.28-.02.09-.01.22-.03.38-.05l.46,2.45c-.23.07-.49.13-.77.19-.28.06-.64.09-1.08.09Z"/><path d="M215.8,111.89c-.16-1.21-.09-2.3.23-3.26.31-.96.75-1.82,1.31-2.59.56-.77,1.14-1.5,1.73-2.21.59-.7,1.1-1.41,1.5-2.12.41-.71.61-1.49.61-2.33,0-.7-.14-1.34-.42-1.91-.28-.57-.7-1.03-1.26-1.36-.56-.34-1.26-.51-2.1-.51s-1.68.19-2.45.58-1.46.94-2.07,1.66l-1.82-1.68c.82-.93,1.79-1.7,2.91-2.31s2.38-.91,3.78-.91,2.48.25,3.46.75c.98.5,1.74,1.22,2.28,2.15.54.93.8,2.04.8,3.33,0,1.05-.21,1.98-.63,2.8-.42.82-.93,1.59-1.54,2.31-.61.72-1.2,1.46-1.79,2.22-.58.76-1.05,1.56-1.4,2.42-.35.85-.46,1.84-.31,2.96h-2.83ZM217.3,120.08c-.63,0-1.17-.23-1.61-.68s-.67-1.03-.67-1.73c0-.75.22-1.34.67-1.79.44-.44.98-.67,1.61-.67s1.21.22,1.66.67c.46.44.68,1.04.68,1.79,0,.7-.23,1.28-.68,1.73s-1.01.68-1.66.68Z"/><path d="M109,134.37l2.48.73c-.75,1.98-1.63,3.94-2.66,5.86-1.03,1.93-2.13,3.74-3.32,5.44-1.19,1.7-2.43,3.21-3.71,4.52-.07-.21-.19-.48-.37-.8s-.36-.66-.56-1c-.2-.34-.38-.6-.54-.79,1.17-1.14,2.29-2.46,3.36-3.96,1.07-1.49,2.06-3.1,2.97-4.81s1.69-3.45,2.35-5.2ZM105.36,143.36l2.49-2.48.04.04v25.44h-2.52v-23ZM116.07,134.37l2.59.59c-.47,1.84-1.01,3.66-1.64,5.44-.63,1.79-1.33,3.45-2.1,5.01-.77,1.55-1.61,2.91-2.52,4.08-.14-.14-.34-.32-.61-.54-.27-.22-.54-.43-.81-.63-.27-.2-.51-.37-.72-.51.89-1.07,1.69-2.33,2.42-3.76.72-1.44,1.37-2.98,1.94-4.62.57-1.65,1.06-3.33,1.45-5.06ZM115.47,149.21l2.55.52c-.35,1.54-.79,3.04-1.33,4.5-.54,1.46-1.13,2.82-1.77,4.09-.64,1.27-1.32,2.4-2.05,3.38-.16-.14-.38-.3-.67-.49-.28-.19-.56-.36-.84-.52-.28-.16-.53-.3-.74-.42,1.07-1.33,2.02-2.98,2.85-4.95.83-1.97,1.49-4.01,1.98-6.11ZM115.72,140.98h15.75v2.45h-16.73l.98-2.45ZM121.18,141.96h2.59v21.28c0,.72-.09,1.29-.28,1.71s-.51.75-.98.98c-.49.21-1.12.35-1.87.42s-1.69.1-2.78.1c-.07-.37-.19-.82-.37-1.35-.17-.52-.37-.96-.58-1.31.84.02,1.6.04,2.29.04s1.15-.01,1.38-.04c.21,0,.36-.03.45-.1.09-.07.14-.22.14-.45v-21.28ZM126.29,149.73l2.38-.77c.68,1.24,1.31,2.56,1.89,3.96.58,1.4,1.1,2.78,1.54,4.15s.76,2.58.95,3.66l-2.52.88c-.16-1.07-.46-2.3-.89-3.68-.43-1.38-.93-2.78-1.5-4.2-.57-1.42-1.18-2.75-1.84-3.99ZM130.7,140.98h.39l.45-.1,1.79.38c-.23,1.28-.49,2.62-.77,4.01-.28,1.39-.54,2.56-.77,3.52l-2.24-.42c.12-.61.24-1.31.38-2.1.14-.79.28-1.62.42-2.47.14-.85.26-1.66.35-2.43v-.39Z"/><path d="M147.15,141.4h.46l.46-.1,1.64.42c-.4,4.46-1.13,8.29-2.2,11.5-1.07,3.21-2.46,5.88-4.17,8.02-1.7,2.13-3.71,3.86-6.02,5.16-.09-.23-.24-.48-.44-.74s-.4-.51-.61-.75c-.21-.24-.41-.45-.59-.61,2.1-1.05,3.95-2.57,5.55-4.57,1.6-2,2.9-4.47,3.9-7.42s1.68-6.4,2.03-10.34v-.56ZM136.19,141.4h11.69v2.45h-11.69v-2.45ZM137,153.41c.4-1.19.8-2.57,1.21-4.13.41-1.56.79-3.21,1.16-4.95.36-1.74.69-3.47,1-5.2.3-1.73.55-3.36.74-4.9l2.59.17c-.21,1.61-.48,3.31-.8,5.09-.33,1.78-.69,3.57-1.08,5.35-.4,1.78-.81,3.49-1.23,5.11-.42,1.62-.83,3.07-1.22,4.36l-2.34-.91ZM137,153.41l1.61-1.89c1.07.7,2.16,1.45,3.27,2.24,1.11.79,2.19,1.62,3.24,2.49,1.05.86,2,1.7,2.85,2.52.85.82,1.55,1.59,2.08,2.31l-1.79,2.21c-.54-.72-1.22-1.51-2.07-2.36-.84-.85-1.77-1.72-2.8-2.61s-2.09-1.75-3.18-2.59c-1.1-.84-2.17-1.61-3.22-2.31ZM149.77,149.1h18.58v2.48h-18.58v-2.48ZM151.35,136.82h13.79v2.42h-13.79v-2.42ZM157.89,145.04h2.7v18.27c0,.75-.11,1.33-.33,1.75s-.61.73-1.17.94c-.54.19-1.25.31-2.14.37-.89.06-2.02.08-3.39.05-.07-.35-.2-.76-.38-1.24-.19-.48-.37-.89-.56-1.24.7,0,1.36,0,1.98.02.62.01,1.16.02,1.61.02h.96c.28-.02.47-.09.58-.19.1-.1.16-.27.16-.51v-18.23ZM164.19,136.82h.67l.63-.17,1.82,1.29c-.65,1-1.41,2.04-2.28,3.1-.86,1.06-1.77,2.07-2.71,3.03-.95.96-1.9,1.8-2.85,2.52-.16-.23-.4-.5-.72-.81-.31-.3-.6-.55-.86-.73.79-.65,1.59-1.42,2.38-2.31.79-.89,1.53-1.8,2.22-2.75.69-.94,1.25-1.8,1.7-2.57v-.6Z"/><path d="M172.35,136.99h2.1v23.52h-2.1v-23.52ZM173.47,136.99h6.26v20.09h-6.26v-2.52h4.17v-15.02h-4.17v-2.55ZM181.8,135.52h6.09v2.31h-3.96v28.56h-2.13v-30.87ZM187.36,135.52h.35l.31-.07,1.58.8c-.35,1.47-.75,3.07-1.21,4.81-.46,1.74-.93,3.51-1.42,5.3.98,1.63,1.69,3.07,2.13,4.3.44,1.24.67,2.4.67,3.5,0,.93-.1,1.8-.3,2.61-.2.8-.52,1.39-.96,1.77-.19.16-.41.3-.68.4s-.54.17-.82.19c-.26.05-.55.08-.89.09-.34.01-.67,0-1-.02-.02-.3-.08-.66-.18-1.07-.09-.41-.23-.76-.42-1.07.3.05.6.07.89.07h.72c.37,0,.67-.09.88-.28.23-.19.4-.55.49-1.08.09-.54.14-1.1.14-1.68,0-1.03-.21-2.12-.63-3.27s-1.11-2.56-2.07-4.22c.51-2.01.97-3.96,1.38-5.85s.75-3.56,1.03-5v-.25ZM190.2,135.87h13.16v2.48h-13.16v-2.48ZM190.79,142.35h5.35v2.38h-3.54v14.77h-1.82v-17.15ZM195.41,142.35h1.89v14.73h-5.67v-2.38h3.78v-12.35ZM199.47,136.68h2.17v26.29c0,.7-.09,1.27-.26,1.7-.17.43-.51.76-1,1-.47.21-1.12.34-1.94.4-.83.06-1.85.09-3.06.09,0-.23-.05-.5-.14-.81s-.2-.61-.31-.93c-.12-.31-.25-.59-.39-.82.98.05,1.86.07,2.64.07s1.31-.01,1.59-.04c.47,0,.7-.23.7-.7v-26.25Z"/></svg>