<?xml version="1.0" encoding="UTF-8"?><svg id="Layer_1" xmlns="http://www.w3.org/2000/svg" viewBox="0 0 320 100"><path d="M13.33,19.19l-1.26,3.82h-1.62l4.12-12.14h1.89l4.14,12.14h-1.67l-1.3-3.82h-4.3ZM17.31,17.96l-1.19-3.49c-.27-.79-.45-1.51-.63-2.21h-.04c-.18.72-.38,1.46-.61,2.2l-1.19,3.51h3.65Z"/><path d="M28.33,22.68c-.41.22-1.33.5-2.5.5-2.63,0-4.34-1.78-4.34-4.45s1.84-4.63,4.68-4.63c.94,0,1.76.23,2.2.45l-.36,1.22c-.38-.22-.97-.41-1.84-.41-2,0-3.08,1.48-3.08,3.29,0,2.02,1.3,3.26,3.02,3.26.9,0,1.49-.23,1.94-.43l.27,1.19Z"/><path d="M30.95,18.94c.04,2.14,1.4,3.03,2.99,3.03,1.13,0,1.82-.2,2.41-.45l.27,1.13c-.56.25-1.51.54-2.9.54-2.68,0-4.29-1.76-4.29-4.39s1.55-4.7,4.09-4.7c2.84,0,3.6,2.5,3.6,4.11,0,.32-.04.58-.05.74h-6.12ZM35.6,17.8c.02-1.01-.41-2.58-2.2-2.58-1.6,0-2.3,1.48-2.43,2.58h4.63ZM35.98,10.53l-2.2,2.57h-1.13l1.58-2.57h1.75Z"/><path d="M39.09,17.01c0-1.03-.02-1.91-.07-2.72h1.39l.05,1.71h.07c.4-1.17,1.35-1.91,2.41-1.91.18,0,.31.02.45.05v1.49c-.16-.04-.32-.05-.54-.05-1.12,0-1.91.85-2.12,2.03-.04.22-.07.47-.07.74v4.65h-1.57v-6Z"/><path d="M51.01,22.68c-.41.22-1.33.5-2.5.5-2.63,0-4.34-1.78-4.34-4.45s1.84-4.63,4.68-4.63c.94,0,1.76.23,2.2.45l-.36,1.22c-.38-.22-.97-.41-1.84-.41-2,0-3.08,1.48-3.08,3.29,0,2.02,1.3,3.26,3.02,3.26.9,0,1.49-.23,1.94-.43l.27,1.19Z"/><path d="M57.68,23.01l-.13-1.1h-.05c-.49.68-1.42,1.3-2.67,1.3-1.76,0-2.66-1.24-2.66-2.5,0-2.11,1.87-3.26,5.24-3.24v-.18c0-.72-.2-2.02-1.98-2.02-.81,0-1.66.25-2.27.65l-.36-1.04c.72-.47,1.76-.77,2.86-.77,2.67,0,3.31,1.82,3.31,3.57v3.26c0,.76.04,1.5.14,2.09h-1.44ZM57.45,18.56c-1.73-.04-3.69.27-3.69,1.96,0,1.03.68,1.51,1.49,1.51,1.13,0,1.85-.72,2.11-1.46.05-.16.09-.34.09-.5v-1.51Z"/><path d="M63.37,11.79v2.5h2.27v1.21h-2.27v4.7c0,1.08.31,1.69,1.19,1.69.41,0,.72-.05.92-.11l.07,1.19c-.31.13-.79.22-1.4.22-.74,0-1.33-.23-1.71-.67-.45-.47-.61-1.24-.61-2.27v-4.75h-1.35v-1.21h1.35v-2.09l1.55-.41Z"/><path d="M68.2,18.94c.04,2.14,1.4,3.03,2.99,3.03,1.13,0,1.82-.2,2.41-.45l.27,1.13c-.56.25-1.51.54-2.9.54-2.68,0-4.29-1.76-4.29-4.39s1.55-4.7,4.09-4.7c2.84,0,3.6,2.5,3.6,4.11,0,.32-.04.58-.05.74h-6.12ZM72.84,17.8c.02-1.01-.41-2.58-2.2-2.58-1.6,0-2.3,1.48-2.43,2.58h4.63Z"/><path d="M84.97,23.01l-.13-1.1h-.05c-.49.68-1.42,1.3-2.67,1.3-1.76,0-2.66-1.24-2.66-2.5,0-2.11,1.87-3.26,5.24-3.24v-.18c0-.72-.2-2.02-1.98-2.02-.81,0-1.66.25-2.27.65l-.36-1.04c.72-.47,1.76-.77,2.86-.77,2.67,0,3.31,1.82,3.31,3.57v3.26c0,.76.04,1.5.14,2.09h-1.44ZM84.74,18.56c-1.73-.04-3.69.27-3.69,1.96,0,1.03.68,1.51,1.49,1.51,1.13,0,1.85-.72,2.11-1.46.05-.16.09-.34.09-.5v-1.51Z"/><path d="M94.55,11.79v2.5h2.27v1.21h-2.27v4.7c0,1.08.31,1.69,1.19,1.69.41,0,.72-.05.92-.11l.07,1.19c-.31.13-.79.22-1.4.22-.74,0-1.33-.23-1.71-.67-.45-.47-.61-1.24-.61-2.27v-4.75h-1.35v-1.21h1.35v-2.09l1.55-.41Z"/><path d="M105.89,20.63c0,.9.02,1.69.07,2.38h-1.4l-.09-1.42h-.04c-.41.7-1.33,1.62-2.88,1.62-1.37,0-3.01-.76-3.01-3.82v-5.1h1.58v4.83c0,1.66.5,2.77,1.94,2.77,1.06,0,1.8-.74,2.09-1.44.09-.23.14-.52.14-.81v-5.35h1.58v6.34Z"/><path d="M108.3,21.39c.47.31,1.3.63,2.09.63,1.15,0,1.69-.58,1.69-1.3s-.45-1.17-1.62-1.6c-1.57-.56-2.3-1.42-2.3-2.47,0-1.41,1.13-2.56,3.01-2.56.88,0,1.66.25,2.14.54l-.4,1.15c-.34-.22-.97-.5-1.78-.5-.94,0-1.46.54-1.46,1.19,0,.72.52,1.04,1.66,1.48,1.51.58,2.29,1.33,2.29,2.63,0,1.53-1.19,2.61-3.26,2.61-.95,0-1.84-.23-2.45-.59l.4-1.21Z"/><path d="M125.67,22.68c-.41.22-1.33.5-2.5.5-2.63,0-4.34-1.78-4.34-4.45s1.84-4.63,4.68-4.63c.94,0,1.76.23,2.2.45l-.36,1.22c-.38-.22-.97-.41-1.84-.41-2,0-3.08,1.48-3.08,3.29,0,2.02,1.3,3.26,3.03,3.26.9,0,1.49-.23,1.94-.43l.27,1.19Z"/><path d="M127.52,10.22h1.58v12.78h-1.58v-12.78Z"/><path d="M133.53,11.84c.02.54-.38.97-1.01.97-.56,0-.96-.43-.96-.97s.41-.99.99-.99.97.43.97.99ZM131.77,23.01v-8.71h1.58v8.71h-1.58Z"/><path d="M136.86,18.94c.04,2.14,1.4,3.03,2.99,3.03,1.13,0,1.82-.2,2.41-.45l.27,1.13c-.56.25-1.51.54-2.9.54-2.68,0-4.29-1.76-4.29-4.39s1.55-4.7,4.09-4.7c2.84,0,3.6,2.5,3.6,4.11,0,.32-.04.58-.05.74h-6.12ZM141.51,17.8c.02-1.01-.42-2.58-2.2-2.58-1.6,0-2.3,1.48-2.43,2.58h4.63Z"/><path d="M145,16.65c0-.9-.02-1.64-.07-2.36h1.4l.09,1.44h.04c.43-.83,1.44-1.64,2.88-1.64,1.21,0,3.08.72,3.08,3.71v5.2h-1.58v-5.02c0-1.4-.52-2.58-2.02-2.58-1.04,0-1.85.74-2.12,1.62-.07.2-.11.47-.11.74v5.24h-1.58v-6.36Z"/><path d="M156.83,11.79v2.5h2.27v1.21h-2.27v4.7c0,1.08.31,1.69,1.19,1.69.41,0,.72-.05.92-.11l.07,1.19c-.31.13-.79.22-1.4.22-.74,0-1.33-.23-1.71-.67-.45-.47-.61-1.24-.61-2.27v-4.75h-1.35v-1.21h1.35v-2.09l1.55-.41Z"/><path d="M161.65,18.94c.04,2.14,1.4,3.03,2.99,3.03,1.13,0,1.82-.2,2.41-.45l.27,1.13c-.56.25-1.51.54-2.9.54-2.68,0-4.29-1.76-4.29-4.39s1.55-4.7,4.09-4.7c2.84,0,3.6,2.5,3.6,4.11,0,.32-.04.58-.05.74h-6.12ZM166.29,17.8c.02-1.01-.41-2.58-2.2-2.58-1.6,0-2.3,1.48-2.43,2.58h4.63Z"/><path d="M169.57,21.39c.47.31,1.3.63,2.09.63,1.15,0,1.69-.58,1.69-1.3s-.45-1.17-1.62-1.6c-1.57-.56-2.3-1.42-2.3-2.47,0-1.41,1.13-2.56,3.01-2.56.88,0,1.66.25,2.14.54l-.4,1.15c-.34-.22-.97-.5-1.78-.5-.94,0-1.46.54-1.46,1.19,0,.72.52,1.04,1.66,1.48,1.51.58,2.29,1.33,2.29,2.63,0,1.53-1.19,2.61-3.26,2.61-.95,0-1.84-.23-2.45-.59l.4-1.21Z"/><path d="M188.26,10.22v10.53c0,.77.02,1.66.07,2.25h-1.42l-.07-1.51h-.04c-.49.97-1.55,1.71-2.97,1.71-2.11,0-3.73-1.78-3.73-4.43-.02-2.9,1.78-4.68,3.91-4.68,1.33,0,2.23.63,2.63,1.33h.04v-5.2h1.58ZM186.67,17.84c0-.2-.02-.47-.07-.67-.23-1.01-1.1-1.84-2.29-1.84-1.64,0-2.61,1.44-2.61,3.37,0,1.76.86,3.22,2.58,3.22,1.06,0,2.03-.7,2.32-1.89.05-.22.07-.43.07-.68v-1.51Z"/><path d="M191.76,18.94c.04,2.14,1.4,3.03,2.99,3.03,1.13,0,1.82-.2,2.41-.45l.27,1.13c-.56.25-1.51.54-2.9.54-2.68,0-4.29-1.76-4.29-4.39s1.55-4.7,4.09-4.7c2.84,0,3.6,2.5,3.6,4.11,0,.32-.04.58-.05.74h-6.12ZM196.41,17.8c.02-1.01-.42-2.58-2.2-2.58-1.6,0-2.3,1.48-2.43,2.58h4.63Z"/><path d="M203.55,21.1c.7.43,1.73.79,2.81.79,1.6,0,2.54-.85,2.54-2.07,0-1.13-.65-1.78-2.29-2.41-1.98-.7-3.21-1.73-3.21-3.44,0-1.89,1.57-3.29,3.93-3.29,1.24,0,2.14.29,2.68.59l-.43,1.28c-.4-.22-1.21-.58-2.3-.58-1.66,0-2.29.99-2.29,1.82,0,1.13.74,1.69,2.41,2.34,2.05.79,3.1,1.78,3.1,3.56,0,1.87-1.39,3.49-4.25,3.49-1.17,0-2.45-.34-3.1-.77l.4-1.31Z"/><path d="M219.88,20.63c0,.9.02,1.69.07,2.38h-1.4l-.09-1.42h-.04c-.41.7-1.33,1.62-2.88,1.62-1.37,0-3.01-.76-3.01-3.82v-5.1h1.58v4.83c0,1.66.5,2.77,1.94,2.77,1.06,0,1.8-.74,2.09-1.44.09-.23.14-.52.14-.81v-5.35h1.58v6.34Z"/><path d="M222.51,16.65c0-.9-.02-1.64-.07-2.36h1.4l.09,1.44h.04c.43-.83,1.44-1.64,2.88-1.64,1.21,0,3.08.72,3.08,3.71v5.2h-1.58v-5.02c0-1.4-.52-2.58-2.02-2.58-1.04,0-1.85.74-2.12,1.62-.07.2-.11.47-.11.74v5.24h-1.58v-6.36Z"/><path d="M232.28,21.39c.47.31,1.3.63,2.09.63,1.15,0,1.69-.58,1.69-1.3s-.45-1.17-1.62-1.6c-1.57-.56-2.3-1.42-2.3-2.47,0-1.41,1.13-2.56,3.01-2.56.88,0,1.66.25,2.14.54l-.4,1.15c-.34-.22-.97-.5-1.78-.5-.94,0-1.46.54-1.46,1.19,0,.72.52,1.04,1.66,1.48,1.51.58,2.29,1.33,2.29,2.63,0,1.53-1.19,2.61-3.26,2.61-.95,0-1.84-.23-2.45-.59l.4-1.21Z"/><path d="M240.51,18.94c.04,2.14,1.4,3.03,2.99,3.03,1.13,0,1.82-.2,2.41-.45l.27,1.13c-.56.25-1.51.54-2.9.54-2.68,0-4.29-1.76-4.29-4.39s1.55-4.7,4.09-4.7c2.84,0,3.6,2.5,3.6,4.11,0,.32-.04.58-.05.74h-6.12ZM245.15,17.8c.02-1.01-.42-2.58-2.2-2.58-1.6,0-2.3,1.48-2.43,2.58h4.63Z"/><path d="M250.55,11.79v2.5h2.27v1.21h-2.27v4.7c0,1.08.31,1.69,1.19,1.69.41,0,.72-.05.92-.11l.07,1.19c-.31.13-.79.22-1.4.22-.74,0-1.33-.23-1.71-.67-.45-.47-.61-1.24-.61-2.27v-4.75h-1.35v-1.21h1.35v-2.09l1.55-.41Z"/><path d="M258.47,11.02c.76-.13,1.75-.23,3.01-.23,1.55,0,2.68.36,3.4,1.01.67.58,1.06,1.46,1.06,2.54s-.32,1.96-.94,2.59c-.83.88-2.18,1.33-3.71,1.33-.47,0-.9-.02-1.26-.11v4.86h-1.57v-11.99ZM260.04,16.87c.34.09.77.13,1.3.13,1.89,0,3.04-.92,3.04-2.59s-1.13-2.38-2.86-2.38c-.68,0-1.21.05-1.48.13v4.72Z"/><path d="M272.35,23.01l-.13-1.1h-.05c-.49.68-1.42,1.3-2.67,1.3-1.76,0-2.67-1.24-2.67-2.5,0-2.11,1.87-3.26,5.24-3.24v-.18c0-.72-.2-2.02-1.98-2.02-.81,0-1.66.25-2.27.65l-.36-1.04c.72-.47,1.76-.77,2.86-.77,2.67,0,3.31,1.82,3.31,3.57v3.26c0,.76.04,1.5.14,2.09h-1.44ZM272.11,18.56c-1.73-.04-3.69.27-3.69,1.96,0,1.03.68,1.51,1.49,1.51,1.13,0,1.85-.72,2.11-1.46.05-.16.09-.34.09-.5v-1.51Z"/><path d="M276.2,17.01c0-1.03-.02-1.91-.07-2.72h1.39l.05,1.71h.07c.4-1.17,1.35-1.91,2.41-1.91.18,0,.31.02.45.05v1.49c-.16-.04-.32-.05-.54-.05-1.12,0-1.91.85-2.12,2.03-.04.22-.07.47-.07.74v4.65h-1.57v-6Z"/><path d="M283.72,18.29h.04c.22-.31.52-.68.77-.99l2.56-3.01h1.91l-3.37,3.58,3.83,5.13h-1.93l-3.01-4.18-.81.9v3.28h-1.57v-12.78h1.57v8.07Z"/><path d="M12.2,40.54c.04,2.14,1.4,3.03,2.99,3.03,1.13,0,1.82-.2,2.41-.45l.27,1.13c-.56.25-1.51.54-2.9.54-2.68,0-4.29-1.76-4.29-4.39s1.55-4.7,4.09-4.7c2.84,0,3.6,2.5,3.6,4.11,0,.32-.04.58-.05.74h-6.12ZM16.84,39.4c.02-1.01-.41-2.58-2.2-2.58-1.6,0-2.3,1.48-2.43,2.58h4.63Z"/><path d="M20.33,38.25c0-.9-.02-1.64-.07-2.36h1.4l.09,1.44h.04c.43-.83,1.44-1.64,2.88-1.64,1.21,0,3.08.72,3.08,3.71v5.2h-1.58v-5.02c0-1.4-.52-2.58-2.02-2.58-1.04,0-1.85.74-2.12,1.62-.07.2-.11.47-.11.74v5.24h-1.58v-6.36Z"/><path d="M33.92,42.99c.47.31,1.3.63,2.09.63,1.15,0,1.69-.58,1.69-1.3s-.45-1.17-1.62-1.6c-1.57-.56-2.3-1.42-2.3-2.47,0-1.41,1.13-2.56,3.01-2.56.88,0,1.66.25,2.14.54l-.4,1.15c-.34-.22-.97-.5-1.78-.5-.94,0-1.46.54-1.46,1.19,0,.72.52,1.04,1.66,1.48,1.51.58,2.29,1.33,2.29,2.63,0,1.53-1.19,2.61-3.26,2.61-.95,0-1.84-.23-2.45-.59l.4-1.21Z"/><path d="M48.56,42.23c0,.9.02,1.69.07,2.38h-1.4l-.09-1.42h-.04c-.41.7-1.33,1.62-2.88,1.62-1.37,0-3.01-.76-3.01-3.82v-5.1h1.58v4.83c0,1.66.5,2.77,1.94,2.77,1.06,0,1.8-.74,2.09-1.44.09-.23.14-.52.14-.81v-5.35h1.58v6.34Z"/><path d="M56.76,33.44c.02.54-.38.97-1.01.97-.56,0-.95-.43-.95-.97s.41-.99.99-.99.97.43.97.99ZM55,44.61v-8.71h1.58v8.71h-1.58Z"/><path d="M66.74,31.82v10.53c0,.77.02,1.66.07,2.25h-1.42l-.07-1.51h-.04c-.49.97-1.55,1.71-2.97,1.71-2.11,0-3.73-1.78-3.73-4.43-.02-2.9,1.78-4.68,3.91-4.68,1.33,0,2.23.63,2.63,1.33h.04v-5.2h1.58ZM65.15,39.44c0-.2-.02-.47-.07-.67-.23-1.01-1.1-1.84-2.29-1.84-1.64,0-2.61,1.44-2.61,3.37,0,1.76.86,3.22,2.57,3.22,1.06,0,2.03-.7,2.32-1.89.05-.22.07-.43.07-.68v-1.51Z"/><path d="M71.13,33.44c.02.54-.38.97-1.01.97-.56,0-.95-.43-.95-.97s.41-.99.99-.99.97.43.97.99ZM69.36,44.61v-8.71h1.58v8.71h-1.58Z"/><path d="M81.46,40.18c0,3.22-2.23,4.63-4.34,4.63-2.36,0-4.18-1.73-4.18-4.48,0-2.92,1.91-4.63,4.32-4.63s4.2,1.82,4.2,4.48ZM74.55,40.27c0,1.91,1.1,3.35,2.65,3.35s2.65-1.42,2.65-3.38c0-1.48-.74-3.35-2.61-3.35s-2.68,1.73-2.68,3.39Z"/><path d="M83.46,38.25c0-.9-.02-1.64-.07-2.36h1.39l.07,1.4h.05c.49-.83,1.3-1.6,2.74-1.6,1.19,0,2.09.72,2.47,1.75h.04c.27-.49.61-.86.97-1.13.52-.4,1.1-.61,1.93-.61,1.15,0,2.86.76,2.86,3.78v5.13h-1.55v-4.93c0-1.67-.61-2.68-1.89-2.68-.9,0-1.6.67-1.87,1.44-.07.22-.13.5-.13.79v5.38h-1.55v-5.22c0-1.39-.61-2.39-1.82-2.39-.99,0-1.71.79-1.96,1.58-.09.23-.13.5-.13.77v5.26h-1.55v-6.36Z"/><path d="M103.29,44.61l-.13-1.1h-.05c-.49.68-1.42,1.3-2.67,1.3-1.76,0-2.66-1.24-2.66-2.5,0-2.11,1.87-3.26,5.24-3.24v-.18c0-.72-.2-2.02-1.98-2.02-.81,0-1.66.25-2.27.65l-.36-1.04c.72-.47,1.76-.77,2.86-.77,2.67,0,3.31,1.82,3.31,3.57v3.26c0,.76.04,1.5.14,2.09h-1.44ZM103.06,40.16c-1.73-.04-3.69.27-3.69,1.96,0,1.03.68,1.51,1.49,1.51,1.13,0,1.85-.72,2.11-1.46.05-.16.09-.34.09-.5v-1.51Z"/><path d="M106.77,43.67c0-.67.45-1.13,1.08-1.13s1.06.47,1.06,1.13-.41,1.13-1.08,1.13c-.63,0-1.06-.49-1.06-1.13Z"/><path d="M35.96,83.61l-1.26,3.82h-1.62l4.12-12.14h1.89l4.14,12.14h-1.67l-1.3-3.82h-4.3ZM39.94,82.39l-1.19-3.49c-.27-.79-.45-1.51-.63-2.21h-.04c-.18.72-.38,1.46-.61,2.2l-1.19,3.51h3.65Z"/><path d="M44.91,81.07c0-.9-.02-1.64-.07-2.36h1.4l.09,1.44h.04c.43-.83,1.44-1.64,2.88-1.64,1.21,0,3.08.72,3.08,3.71v5.2h-1.58v-5.02c0-1.4-.52-2.58-2.02-2.58-1.04,0-1.85.74-2.12,1.62-.07.2-.11.47-.11.74v5.24h-1.58v-6.36Z"/><path d="M62.19,85.05c0,.9.02,1.69.07,2.38h-1.4l-.09-1.42h-.04c-.41.7-1.33,1.62-2.88,1.62-1.37,0-3.01-.76-3.01-3.82v-5.1h1.58v4.83c0,1.66.5,2.77,1.94,2.77,1.06,0,1.8-.74,2.09-1.44.09-.23.14-.52.14-.81v-5.35h1.58v6.34ZM61.11,74.95l-2.2,2.57h-1.13l1.58-2.57h1.75Z"/><path d="M64.82,81.07c0-.9-.02-1.64-.07-2.36h1.4l.09,1.44h.04c.43-.83,1.44-1.64,2.88-1.64,1.21,0,3.08.72,3.08,3.71v5.2h-1.58v-5.02c0-1.4-.52-2.58-2.02-2.58-1.04,0-1.85.74-2.12,1.62-.07.2-.11.47-.11.74v5.24h-1.58v-6.36Z"/><path d="M81.02,87.1c-.41.22-1.33.5-2.5.5-2.63,0-4.34-1.78-4.34-4.45s1.84-4.63,4.68-4.63c.94,0,1.76.23,2.2.45l-.36,1.22c-.38-.22-.97-.42-1.84-.42-2,0-3.08,1.48-3.08,3.3,0,2.02,1.3,3.26,3.02,3.26.9,0,1.49-.23,1.94-.43l.27,1.19Z"/><path d="M84.63,76.26c.02.54-.38.97-1.01.97-.56,0-.95-.43-.95-.97s.41-.99.99-.99.97.43.97.99ZM82.87,87.43v-8.71h1.58v8.71h-1.58Z"/><path d="M91.91,87.43l-.13-1.1h-.05c-.49.68-1.42,1.3-2.67,1.3-1.76,0-2.66-1.24-2.66-2.5,0-2.11,1.87-3.26,5.24-3.24v-.18c0-.72-.2-2.02-1.98-2.02-.81,0-1.66.25-2.27.65l-.36-1.04c.72-.47,1.76-.77,2.86-.77,2.67,0,3.31,1.82,3.31,3.57v3.26c0,.76.04,1.5.14,2.09h-1.44ZM91.67,82.98c-1.73-.04-3.69.27-3.69,1.96,0,1.03.68,1.51,1.49,1.51,1.13,0,1.85-.72,2.11-1.46.05-.16.09-.34.09-.5v-1.51Z"/><path d="M97.59,76.21v2.5h2.27v1.21h-2.27v4.7c0,1.08.31,1.69,1.19,1.69.41,0,.72-.05.92-.11l.07,1.19c-.31.13-.79.22-1.4.22-.74,0-1.33-.23-1.71-.67-.45-.47-.61-1.24-.61-2.27v-4.75h-1.35v-1.21h1.35v-2.09l1.55-.42Z"/><path d="M102.42,83.36c.04,2.14,1.4,3.03,2.99,3.03,1.13,0,1.82-.2,2.41-.45l.27,1.13c-.56.25-1.51.54-2.9.54-2.68,0-4.28-1.76-4.28-4.39s1.55-4.7,4.09-4.7c2.84,0,3.6,2.5,3.6,4.11,0,.32-.04.58-.05.74h-6.12ZM107.06,82.22c.02-1.01-.41-2.58-2.2-2.58-1.6,0-2.3,1.48-2.43,2.58h4.63Z"/><path d="M115.25,83.36c.04,2.14,1.4,3.03,2.99,3.03,1.13,0,1.82-.2,2.41-.45l.27,1.13c-.56.25-1.51.54-2.9.54-2.68,0-4.29-1.76-4.29-4.39s1.55-4.7,4.09-4.7c2.84,0,3.6,2.5,3.6,4.11,0,.32-.04.58-.05.74h-6.12ZM119.9,82.22c.02-1.01-.41-2.58-2.2-2.58-1.6,0-2.3,1.48-2.43,2.58h4.63Z"/><path d="M123.39,81.07c0-.9-.02-1.64-.07-2.36h1.41l.09,1.44h.04c.43-.83,1.44-1.64,2.88-1.64,1.21,0,3.08.72,3.08,3.71v5.2h-1.58v-5.02c0-1.4-.52-2.58-2.02-2.58-1.04,0-1.85.74-2.12,1.62-.07.2-.11.47-.11.74v5.24h-1.58v-6.36Z"/><path d="M138.81,76.62h-3.69v-1.33h8.99v1.33h-3.71v10.8h-1.58v-10.8Z"/><path d="M145.28,74.64h1.58v5.44h.04c.25-.45.65-.85,1.13-1.12.47-.27,1.03-.45,1.62-.45,1.17,0,3.04.72,3.04,3.73v5.19h-1.58v-5.01c0-1.4-.52-2.59-2.02-2.59-1.03,0-1.84.72-2.12,1.58-.09.22-.11.45-.11.76v5.26h-1.58v-12.78Z"/><path d="M156.15,83.36c.04,2.14,1.4,3.03,2.99,3.03,1.13,0,1.82-.2,2.41-.45l.27,1.13c-.56.25-1.51.54-2.9.54-2.68,0-4.29-1.76-4.29-4.39s1.55-4.7,4.09-4.7c2.84,0,3.6,2.5,3.6,4.11,0,.32-.04.58-.05.74h-6.12ZM160.79,82.22c.02-1.01-.41-2.58-2.2-2.58-1.6,0-2.3,1.48-2.43,2.58h4.63Z"/><path d="M167.94,85.52c.7.43,1.73.79,2.81.79,1.6,0,2.54-.85,2.54-2.07,0-1.13-.65-1.78-2.29-2.41-1.98-.7-3.21-1.73-3.21-3.44,0-1.89,1.57-3.29,3.92-3.29,1.24,0,2.14.29,2.68.59l-.43,1.28c-.4-.22-1.21-.58-2.3-.58-1.66,0-2.29.99-2.29,1.82,0,1.13.74,1.69,2.41,2.34,2.05.79,3.1,1.78,3.1,3.57,0,1.87-1.39,3.49-4.25,3.49-1.17,0-2.45-.34-3.1-.77l.4-1.31Z"/><path d="M184.26,85.05c0,.9.02,1.69.07,2.38h-1.4l-.09-1.42h-.04c-.41.7-1.33,1.62-2.88,1.62-1.37,0-3.01-.76-3.01-3.82v-5.1h1.58v4.83c0,1.66.5,2.77,1.95,2.77,1.06,0,1.8-.74,2.09-1.44.09-.23.14-.52.14-.81v-5.35h1.58v6.34Z"/><path d="M186.89,81.07c0-.9-.02-1.64-.07-2.36h1.41l.09,1.44h.04c.43-.83,1.44-1.64,2.88-1.64,1.21,0,3.08.72,3.08,3.71v5.2h-1.58v-5.02c0-1.4-.52-2.58-2.02-2.58-1.04,0-1.85.74-2.12,1.62-.07.2-.11.47-.11.74v5.24h-1.58v-6.36Z"/><path d="M196.66,85.81c.47.31,1.3.63,2.09.63,1.15,0,1.69-.58,1.69-1.3s-.45-1.17-1.62-1.6c-1.57-.56-2.3-1.42-2.3-2.47,0-1.41,1.13-2.56,3.01-2.56.88,0,1.66.25,2.14.54l-.4,1.15c-.34-.22-.97-.5-1.78-.5-.94,0-1.46.54-1.46,1.19,0,.72.52,1.04,1.66,1.48,1.51.58,2.29,1.33,2.29,2.63,0,1.53-1.19,2.61-3.26,2.61-.95,0-1.84-.23-2.45-.59l.4-1.21Z"/><path d="M204.89,83.36c.04,2.14,1.4,3.03,2.99,3.03,1.13,0,1.82-.2,2.41-.45l.27,1.13c-.56.25-1.51.54-2.9.54-2.68,0-4.29-1.76-4.29-4.39s1.55-4.7,4.09-4.7c2.84,0,3.6,2.5,3.6,4.11,0,.32-.04.58-.05.74h-6.12ZM209.54,82.22c.02-1.01-.41-2.58-2.2-2.58-1.6,0-2.3,1.48-2.43,2.58h4.63Z"/><path d="M214.94,76.21v2.5h2.27v1.21h-2.27v4.7c0,1.08.31,1.69,1.19,1.69.41,0,.72-.05.92-.11l.07,1.19c-.31.13-.79.22-1.4.22-.74,0-1.33-.23-1.71-.67-.45-.47-.61-1.24-.61-2.27v-4.75h-1.35v-1.21h1.35v-2.09l1.55-.42Z"/><path d="M222.85,75.44c.76-.13,1.75-.23,3.01-.23,1.55,0,2.68.36,3.4,1.01.67.58,1.06,1.46,1.06,2.54s-.32,1.96-.94,2.59c-.83.88-2.18,1.33-3.71,1.33-.47,0-.9-.02-1.26-.11v4.86h-1.57v-11.99ZM224.42,81.29c.34.09.77.13,1.3.13,1.89,0,3.04-.92,3.04-2.59s-1.13-2.38-2.86-2.38c-.68,0-1.21.05-1.48.13v4.72Z"/><path d="M239.81,83c0,3.22-2.23,4.63-4.34,4.63-2.36,0-4.18-1.73-4.18-4.48,0-2.92,1.91-4.63,4.32-4.63s4.2,1.82,4.2,4.48ZM232.9,83.09c0,1.91,1.1,3.35,2.65,3.35s2.65-1.42,2.65-3.38c0-1.48-.74-3.35-2.61-3.35s-2.68,1.73-2.68,3.39Z"/><path d="M241.59,85.81c.47.31,1.3.63,2.09.63,1.15,0,1.69-.58,1.69-1.3s-.45-1.17-1.62-1.6c-1.57-.56-2.3-1.42-2.3-2.47,0-1.41,1.13-2.56,3.01-2.56.88,0,1.66.25,2.14.54l-.4,1.15c-.34-.22-.97-.5-1.78-.5-.94,0-1.46.54-1.46,1.19,0,.72.52,1.04,1.66,1.48,1.51.58,2.29,1.33,2.29,2.63,0,1.53-1.19,2.61-3.26,2.61-.95,0-1.84-.23-2.45-.59l.4-1.21Z"/><path d="M250.85,76.21v2.5h2.27v1.21h-2.27v4.7c0,1.08.31,1.69,1.19,1.69.41,0,.72-.05.92-.11l.07,1.19c-.31.13-.79.22-1.4.22-.74,0-1.33-.23-1.71-.67-.45-.47-.61-1.24-.61-2.27v-4.75h-1.35v-1.21h1.35v-2.09l1.55-.42Z"/><path d="M258.71,74.64h1.58v5.44h.04c.25-.45.65-.85,1.13-1.12.47-.27,1.03-.45,1.62-.45,1.17,0,3.04.72,3.04,3.73v5.19h-1.58v-5.01c0-1.4-.52-2.59-2.02-2.59-1.03,0-1.84.72-2.12,1.58-.09.22-.11.45-.11.76v5.26h-1.58v-12.78Z"/><path d="M276.59,83c0,3.22-2.23,4.63-4.34,4.63-2.36,0-4.18-1.73-4.18-4.48,0-2.92,1.91-4.63,4.32-4.63s4.2,1.82,4.2,4.48ZM269.67,83.09c0,1.91,1.1,3.35,2.65,3.35s2.65-1.42,2.65-3.38c0-1.48-.74-3.35-2.61-3.35s-2.68,1.73-2.68,3.39Z"/><path d="M279.03,78.71l1.91,5.15c.2.58.41,1.26.56,1.78h.04c.16-.52.34-1.19.56-1.82l1.73-5.11h1.67l-2.38,6.21c-1.13,2.99-1.91,4.52-2.99,5.46-.77.68-1.55.95-1.94,1.03l-.4-1.33c.4-.13.92-.38,1.39-.77.43-.34.97-.96,1.33-1.76.07-.16.13-.29.13-.38s-.04-.22-.11-.41l-3.22-8.03h1.73Z"/><path d="M285.85,86.49c0-.67.45-1.13,1.08-1.13s1.06.47,1.06,1.13-.41,1.13-1.08,1.13c-.63,0-1.06-.49-1.06-1.13Z"/></svg>