<?xml version="1.0" encoding="UTF-8"?><svg id="Layer_1" xmlns="http://www.w3.org/2000/svg" viewBox="0 0 320 100"><path d="M14.66,22.03h1.33v6.53c0,.68-.03,1.42-.09,2.2-.06.78-.17,1.57-.33,2.37s-.41,1.56-.74,2.29c-.33.73-.76,1.4-1.3,2-.06-.1-.16-.2-.29-.32-.13-.11-.26-.22-.4-.33-.13-.11-.25-.19-.36-.23.5-.56.9-1.18,1.19-1.84.29-.66.5-1.34.65-2.04.14-.7.24-1.4.28-2.1.04-.7.06-1.36.06-2v-6.53ZM15.32,30.53h11.75v1.28h-11.75v-1.28ZM15.43,22.03h11.65v1.3h-11.65v-1.3ZM15.43,26.23h11.61v1.28h-11.61v-1.28ZM20.31,22.52h1.37v14.65h-1.37v-14.65ZM26.54,22.03h1.33v13.46c0,.43-.06.76-.19.99-.13.23-.34.4-.64.52-.3.11-.72.17-1.26.2-.54.02-1.24.03-2.09.02-.04-.17-.1-.38-.19-.64-.09-.26-.18-.48-.28-.66.42.01.83.02,1.22.03.39,0,.73,0,1.02,0,.29,0,.49,0,.59,0,.18-.01.31-.05.38-.11.07-.06.11-.17.11-.34v-13.46Z"/><path d="M34.69,20.85l1.26.38c-.38,1.01-.84,2.01-1.37,3-.53.99-1.1,1.92-1.71,2.79s-1.24,1.64-1.89,2.31c-.04-.1-.1-.23-.19-.4s-.19-.34-.29-.5c-.1-.17-.2-.3-.28-.4.6-.59,1.18-1.27,1.73-2.03.55-.77,1.07-1.59,1.54-2.47.47-.88.87-1.77,1.2-2.67ZM32.78,25.47l1.31-1.3.02.02v13.1h-1.33v-11.83ZM34.78,28.21l10.84-4.19.5,1.19-10.82,4.21-.52-1.21ZM37.07,22.57h1.33v12.02c0,.35.04.61.11.79s.22.3.44.37c.22.07.54.1.96.1h4.62c.37,0,.65-.07.85-.21.19-.14.33-.4.41-.77s.14-.92.18-1.63c.17.11.37.21.61.32.24.1.46.18.65.22-.07.83-.19,1.49-.35,1.97-.16.49-.42.83-.77,1.04-.35.2-.87.31-1.54.31h-4.7c-.72,0-1.29-.07-1.7-.22-.41-.14-.7-.4-.86-.76-.16-.36-.24-.87-.24-1.53v-12.02ZM41.06,20.81h1.28v12.51h-1.28v-12.51ZM45.15,24.32h-.14l.31-.27.25-.2.94.38-.07.23c0,1.08,0,2.08-.02,2.99-.01.91-.03,1.68-.06,2.31s-.08,1.08-.13,1.34c-.07.41-.2.71-.39.9-.19.19-.42.33-.69.41-.25.06-.55.1-.9.12-.35.02-.66.02-.94,0-.01-.19-.05-.41-.11-.66s-.13-.45-.22-.6c.25.01.52.02.79.02h.58c.16,0,.29-.03.39-.09.1-.06.18-.21.24-.45.05-.19.08-.57.11-1.14.02-.57.04-1.3.05-2.2.01-.89.02-1.93.02-3.11Z"/><path d="M51.95,20.88l1.26.34c-.3,1.03-.65,2.06-1.05,3.08-.4,1.02-.85,1.98-1.33,2.89-.49.91-1,1.71-1.56,2.42-.04-.11-.1-.25-.19-.42-.09-.17-.18-.35-.27-.52s-.18-.32-.26-.42c.47-.61.92-1.31,1.34-2.11s.82-1.64,1.17-2.54.65-1.81.89-2.72ZM50.53,25.4l1.24-1.24.04.04v13.12h-1.28v-11.92ZM53.99,24.41h1.31v12.92h-1.31v-12.92ZM54.76,21.35l1.04-.56c.26.35.53.73.81,1.15.28.42.53.83.77,1.23s.43.76.58,1.07l-1.12.65c-.13-.31-.31-.67-.54-1.08-.23-.41-.48-.83-.75-1.26-.27-.43-.54-.83-.8-1.21ZM58.25,21.44h5.42v1.22h-5.42v-1.22ZM63.15,21.44h1.35v14.18c0,.41-.05.72-.16.94s-.3.38-.58.5c-.28.1-.65.16-1.12.18-.47.02-1.06.04-1.77.04-.02-.17-.08-.38-.16-.64s-.17-.47-.27-.64c.52.01,1,.02,1.45.03.45,0,.75,0,.89,0,.14-.01.24-.04.3-.1s.08-.16.08-.32v-14.17Z"/><path d="M67.47,23.67h1.24v13.19h-1.24v-13.19ZM68.17,28.68h4.97v1.19h-4.97v-1.19ZM68.26,23.67h5.47v11.77h-5.47v-1.22h4.23v-9.34h-4.23v-1.21ZM70.22,20.74l1.46.25c-.18.56-.38,1.13-.58,1.71-.21.58-.41,1.07-.58,1.48l-1.1-.27c.11-.3.21-.64.31-1.01s.2-.75.29-1.13c.09-.38.16-.73.21-1.03ZM76.67,20.7l1.3.29c-.22.9-.48,1.78-.78,2.64-.31.86-.64,1.67-1.01,2.42s-.75,1.42-1.16,2c-.08-.07-.2-.16-.33-.26-.14-.1-.28-.2-.42-.29-.14-.09-.27-.16-.38-.22.42-.54.8-1.16,1.15-1.86.35-.7.66-1.45.94-2.26.28-.8.51-1.62.7-2.45ZM75.84,28.28l1.06-.59c.34.42.69.88,1.05,1.39.37.5.71.99,1.03,1.46s.57.88.77,1.24l-1.15.72c-.18-.37-.42-.8-.73-1.29-.31-.49-.64-.98-.99-1.49-.35-.51-.7-.99-1.04-1.43ZM76.31,23.62h5.53v1.24h-5.53v-1.24ZM81.35,23.62h1.28v.42c0,.11,0,.2-.02.26-.07,2.06-.14,3.81-.21,5.24-.07,1.43-.15,2.59-.24,3.5-.1.91-.21,1.61-.33,2.11-.12.5-.28.86-.46,1.08-.2.26-.42.45-.64.55-.22.1-.49.17-.82.21-.3.02-.69.03-1.18.03s-.99-.03-1.5-.06c-.01-.19-.06-.41-.13-.67-.08-.25-.18-.46-.32-.63.6.05,1.14.08,1.63.09.49.01.84.02,1.05.02.18,0,.33-.02.44-.06.11-.04.23-.12.33-.24.14-.16.27-.48.39-.96.11-.49.21-1.18.3-2.08.08-.9.16-2.05.23-3.45.07-1.4.14-3.09.2-5.07v-.29Z"/><path d="M84.71,26.41h3.22v1.31h-3.22v-1.31ZM85.67,22.09l.86-.83c.32.26.66.56,1.02.88s.69.64,1.01.95.57.59.75.85l-.92.97c-.19-.26-.44-.56-.74-.89-.3-.33-.62-.67-.97-1.01s-.68-.65-1.01-.93ZM87.25,36.79c-.04-.12-.09-.26-.17-.41-.08-.15-.16-.3-.26-.44-.1-.14-.18-.26-.25-.36.13-.1.27-.25.42-.46.15-.21.23-.5.23-.87v-7.85h1.26v9.05c-.24.18-.44.34-.61.48s-.31.28-.43.43c-.12.15-.18.29-.18.42ZM87.25,36.79l-.2-1.26.4-.56,3.19-2.11c.04.17.09.36.16.58.07.22.14.41.2.55-.76.52-1.37.94-1.83,1.27s-.82.59-1.08.78c-.26.19-.44.34-.56.44-.12.1-.21.2-.28.3ZM89.66,28.3h11.48v1.22h-11.48v-1.22ZM90.29,21.42h10.24v1.21h-10.24v-1.21ZM90.94,24.66h7.47v1.17h-7.47v-1.17ZM91.16,31.02h8.77v6.26h-1.33v-5.06h-6.14v5.11h-1.29v-6.32ZM91.8,35.44h7.33v1.19h-7.33v-1.19ZM94.07,21.89l1.35.14c-.13.74-.29,1.55-.49,2.4-.19.86-.38,1.69-.57,2.48-.19.8-.35,1.48-.5,2.06h-1.42c.13-.44.27-.96.42-1.55s.3-1.2.44-1.84c.14-.64.28-1.28.41-1.92.13-.64.25-1.24.34-1.79ZM98.09,24.66h.13l.22-.07.95.09c-.05.67-.11,1.39-.19,2.16-.08.77-.16,1.47-.24,2.11l-1.28-.09c.06-.44.12-.92.17-1.41s.1-.98.14-1.45c.04-.47.08-.86.1-1.17v-.16Z"/><path d="M102.87,23.47h16.15v1.19h-16.15v-1.19ZM105.32,31.66h11.23v5.6h-1.37v-4.45h-8.53v4.5h-1.33v-5.65ZM105.5,26.14h10.85v1.12h-10.85v-1.12ZM105.5,28.84h10.85v1.12h-10.85v-1.12ZM106.19,35.41h9.52v1.15h-9.52v-1.15ZM109.32,21.13l1.31-.4c.35.38.7.81,1.04,1.28s.6.88.76,1.24l-1.37.45c-.16-.35-.4-.77-.73-1.25-.33-.49-.67-.93-1.02-1.32Z"/><path d="M121.58,37.82l-.4-.95c.73-.3,1.29-.68,1.68-1.15.39-.47.58-1.04.58-1.73l-.32-1.51.97,1.37c-.13.16-.28.26-.45.31-.17.05-.34.08-.5.08-.37,0-.69-.11-.96-.32-.26-.22-.4-.53-.4-.95s.13-.76.41-.97c.27-.22.59-.32.96-.32.5,0,.88.19,1.14.57s.39.88.39,1.5c0,.97-.28,1.81-.85,2.52s-1.32,1.23-2.27,1.57Z"/><path d="M129.59,33.46c.62-.08,1.35-.19,2.17-.32.82-.13,1.69-.26,2.62-.41.92-.14,1.85-.29,2.77-.43l.07,1.17c-1.31.22-2.61.44-3.92.67-1.3.23-2.45.43-3.45.61l-.27-1.3ZM129.75,21.55h6.77v1.22h-6.77v-1.22ZM130.72,22.16h1.22v11.52h-1.22v-11.52ZM131.48,25.33h3.49v1.13h-3.49v-1.13ZM131.48,29.04h3.49v1.15h-3.49v-1.15ZM134.54,22.16h1.19v15.17h-1.19v-15.17ZM140.35,25.45h1.35v2.5c0,.67-.04,1.41-.13,2.21-.09.8-.29,1.62-.59,2.46-.31.84-.78,1.68-1.41,2.51s-1.49,1.62-2.57,2.35c-.11-.14-.26-.31-.46-.5-.2-.19-.39-.34-.57-.46,1.04-.66,1.86-1.37,2.46-2.12.59-.76,1.03-1.52,1.3-2.29.28-.77.45-1.51.52-2.22s.11-1.37.11-1.95v-2.48ZM136.61,29.04h9.5v1.26h-9.5v-1.26ZM137.06,24.52h8.37v1.24h-8.37v-1.24ZM137.63,21.6l1.1-.54c.37.41.73.87,1.08,1.38.35.51.6.96.76,1.36l-1.15.61c-.17-.38-.42-.84-.75-1.38-.33-.53-.67-1.01-1.04-1.43ZM141.57,30.1c.38,1.39.97,2.63,1.77,3.71s1.78,1.88,2.94,2.39c-.1.08-.2.19-.32.32-.11.13-.22.27-.32.41-.1.14-.19.27-.26.39-1.22-.64-2.25-1.56-3.08-2.76-.83-1.21-1.46-2.59-1.89-4.17l1.15-.29ZM143.48,21.06l1.38.41c-.35.61-.72,1.24-1.12,1.88-.4.64-.78,1.19-1.14,1.65l-1.12-.38c.23-.32.47-.69.72-1.11.25-.41.49-.84.72-1.27.23-.43.41-.83.56-1.19Z"/><path d="M152.05,31.86l1.35.49c-.36.48-.77.96-1.22,1.44-.46.48-.93.93-1.41,1.35-.49.42-.96.79-1.41,1.12-.08-.08-.2-.18-.34-.3-.14-.11-.29-.23-.44-.33-.15-.11-.29-.2-.4-.27.72-.43,1.43-.96,2.12-1.58.7-.62,1.29-1.26,1.76-1.91ZM149.22,31.48c-.01-.1-.04-.22-.09-.37-.05-.15-.1-.31-.15-.47-.05-.16-.11-.3-.17-.42.29-.04.63-.14,1.04-.31s.89-.39,1.46-.67c.31-.14.77-.38,1.37-.72s1.28-.74,2.05-1.21c.77-.47,1.56-.98,2.38-1.55.82-.56,1.6-1.15,2.35-1.76l1.04.86c-1.69,1.28-3.41,2.43-5.16,3.43-1.75,1-3.47,1.86-5.18,2.58v.05c-.19.06-.35.12-.48.17-.13.05-.24.11-.33.18-.1.07-.14.13-.14.19ZM161.36,20.9l.94,1.13c-.84.2-1.79.39-2.84.55-1.06.16-2.16.3-3.32.42s-2.33.22-3.52.31c-1.19.08-2.33.15-3.44.2-.01-.17-.05-.37-.13-.59-.07-.23-.14-.42-.22-.58,1.09-.06,2.22-.13,3.38-.22,1.16-.08,2.31-.19,3.43-.31s2.17-.25,3.15-.41c.98-.15,1.83-.32,2.56-.51ZM149.22,31.48l-.04-.97.92-.49,11.52-.77c-.02.18-.04.38-.04.58s0,.38.02.51c-1.79.13-3.32.25-4.6.34-1.28.1-2.35.18-3.23.24-.88.07-1.59.13-2.13.18-.55.05-.97.1-1.29.14-.31.04-.55.07-.72.11s-.31.08-.41.13ZM150.2,27.72c-.01-.08-.04-.2-.08-.35-.04-.15-.09-.3-.14-.46-.05-.16-.11-.29-.15-.4.18-.02.38-.1.6-.23.22-.13.46-.29.73-.49.14-.1.36-.26.64-.49.28-.23.6-.5.96-.81.36-.31.73-.65,1.1-1.03s.72-.75,1.04-1.13l1.15.65c-.78.8-1.59,1.56-2.44,2.27-.85.71-1.69,1.32-2.53,1.84v.04c-.18.07-.33.14-.44.2-.11.06-.22.13-.31.2-.09.07-.14.14-.14.2ZM150.2,27.72v-.92l.76-.4,6.23-.32c-.04.17-.07.36-.09.57-.02.21-.04.38-.05.51-1.43.07-2.57.14-3.43.2-.86.06-1.51.11-1.96.14-.45.04-.77.07-.97.11s-.36.07-.48.11ZM155.38,30.42h1.37v5.13c0,.37-.05.66-.15.86-.1.2-.3.37-.6.49-.3.11-.68.17-1.13.2-.46.02-1.01.04-1.67.04-.04-.2-.11-.44-.21-.69s-.21-.48-.31-.66c.37.01.72.02,1.04.04.32.01.59.02.83,0,.23,0,.4,0,.49,0,.16-.01.26-.04.3-.08.04-.04.06-.11.06-.21v-5.11ZM158.35,32.47l1.06-.7c.5.37,1.03.78,1.57,1.22.55.44,1.06.88,1.55,1.31s.89.82,1.21,1.17l-1.15.81c-.29-.34-.67-.73-1.15-1.18-.48-.45-.99-.91-1.53-1.37-.54-.46-1.06-.88-1.57-1.27ZM158.85,27.9l1.04-.54c.46.41.92.85,1.39,1.33.47.48.91.95,1.31,1.42.4.47.72.88.96,1.24l-1.08.65c-.23-.37-.54-.8-.95-1.28-.4-.48-.84-.97-1.3-1.47-.47-.5-.93-.95-1.39-1.36Z"/><path d="M168.07,22h11.81v15.05h-1.44v-13.7h-8.98v13.79h-1.39v-15.14ZM168.97,34.62h10.1v1.35h-10.1v-1.35ZM169.01,28.23h10.04v1.33h-10.04v-1.33Z"/><path d="M183.64,28.96l.79-.94c.35.14.72.32,1.12.52s.77.41,1.12.62.64.42.85.62l-.81,1.03c-.22-.19-.5-.4-.85-.62-.35-.22-.72-.44-1.11-.67-.39-.22-.76-.41-1.12-.57ZM184,22.03h15.84v1.21h-15.84v-1.21ZM184.02,36.22c.34-.36.71-.79,1.12-1.29.41-.5.83-1.03,1.26-1.58.43-.56.83-1.11,1.21-1.65l.83.95c-.34.5-.7,1.03-1.09,1.57s-.78,1.07-1.18,1.59c-.4.52-.79,1-1.17,1.45l-.97-1.04ZM184.86,25.47l.77-.92c.34.16.7.34,1.09.56.39.22.76.43,1.12.65s.65.41.87.59l-.81,1.03c-.23-.18-.52-.38-.86-.61-.35-.23-.71-.46-1.1-.68-.38-.23-.74-.43-1.08-.61ZM188.09,20.77h1.31v4h-1.31v-4ZM192.26,24.18l1.33.27c-.5.82-1.12,1.65-1.86,2.49s-1.6,1.64-2.58,2.37c-.11-.13-.26-.28-.45-.45-.19-.17-.36-.29-.5-.38.94-.62,1.75-1.33,2.45-2.11.7-.78,1.23-1.51,1.62-2.2ZM197.61,25.53h.25l.23-.05.85.52c-.48.82-1.09,1.56-1.84,2.24-.74.68-1.57,1.28-2.47,1.82-.9.53-1.84,1-2.81,1.39-.97.4-1.93.72-2.88.97-.06-.17-.16-.36-.29-.58-.13-.22-.26-.4-.4-.53.9-.19,1.81-.46,2.75-.82.93-.35,1.82-.77,2.67-1.25.85-.48,1.62-1.01,2.29-1.6s1.22-1.22,1.63-1.89v-.22ZM190.16,31.95h8.32v5.38h-1.33v-4.3h-5.71v4.3h-1.28v-5.38ZM191.81,26.57c.46.49,1.01.97,1.66,1.43s1.36.9,2.13,1.3c.77.41,1.57.77,2.4,1.09.83.32,1.64.57,2.43.76-.14.14-.3.32-.46.54-.16.22-.29.41-.39.58-.79-.23-1.6-.52-2.43-.86-.83-.35-1.64-.75-2.42-1.21-.79-.46-1.52-.94-2.21-1.46-.69-.52-1.29-1.06-1.79-1.62l1.08-.56ZM190.98,35.48h6.61v1.08h-6.61v-1.08ZM191.96,25.53h5.94v1.06h-5.94v-1.06ZM194.3,20.77h1.31v4h-1.31v-4Z"/><path d="M206.73,21.3l1.44.4c-.4.98-.87,1.94-1.41,2.85s-1.13,1.77-1.75,2.55-1.27,1.47-1.94,2.07c-.08-.1-.2-.2-.35-.32s-.31-.24-.47-.36c-.16-.12-.3-.22-.42-.29.68-.54,1.33-1.17,1.94-1.9.61-.73,1.17-1.52,1.68-2.37.51-.85.94-1.73,1.29-2.63ZM203.8,36.15c-.02-.1-.07-.23-.13-.41s-.12-.36-.19-.55c-.07-.19-.13-.35-.21-.47.24-.06.49-.22.75-.49.26-.26.55-.61.89-1.03.17-.2.42-.54.76-1,.34-.46.72-1.01,1.14-1.66s.84-1.33,1.27-2.07c.43-.74.82-1.48,1.18-2.22l1.48.63c-.58,1.04-1.19,2.08-1.83,3.1-.64,1.02-1.3,1.98-1.98,2.89-.68.91-1.37,1.72-2.06,2.44v.05c-.22.1-.39.18-.53.26s-.26.16-.38.25-.17.18-.17.26ZM203.8,36.15l-.02-1.13.96-.54,10.1-.58c.04.19.08.41.14.67.06.25.11.46.14.61-1.61.11-2.99.2-4.15.29s-2.13.15-2.92.21c-.79.05-1.44.1-1.94.14s-.91.08-1.21.12c-.3.04-.53.07-.68.11-.16.04-.29.07-.41.11ZM212.87,21.15c.3.62.66,1.26,1.08,1.91s.87,1.28,1.36,1.89c.49.61.98,1.18,1.49,1.7.5.52.99.98,1.46,1.36-.12.08-.25.2-.39.33-.14.14-.27.28-.41.41s-.25.27-.34.4c-.47-.44-.96-.95-1.47-1.52s-1.01-1.18-1.5-1.84c-.49-.66-.96-1.34-1.4-2.03-.44-.7-.84-1.39-1.19-2.07l1.31-.54ZM211.9,30.96l1.26-.58c.54.64,1.08,1.32,1.63,2.06.55.74,1.06,1.46,1.54,2.16.48.7.87,1.33,1.17,1.88l-1.33.72c-.29-.55-.67-1.19-1.14-1.92-.47-.73-.98-1.47-1.53-2.22-.54-.76-1.08-1.46-1.59-2.11Z"/><path d="M220.38,21.62h15.08v15.71h-1.39v-14.45h-12.37v14.45h-1.33v-15.71ZM221.17,35.25h13.46v1.26h-13.46v-1.26ZM225.42,28.12h1.22c-.04.89-.11,1.68-.23,2.38-.11.7-.3,1.31-.57,1.85s-.63,1-1.11,1.39c-.47.4-1.09.73-1.84,1.01-.06-.14-.17-.32-.32-.52-.15-.2-.29-.36-.42-.47.9-.31,1.57-.71,2.03-1.2.45-.49.76-1.09.93-1.82.17-.73.27-1.6.31-2.62ZM222.45,27.78h10.82v1.15h-10.82v-1.15ZM223.62,24.68h8.6v1.13h-8.6v-1.13ZM228.69,28.12h1.19v4.48c0,.2.03.34.09.4.06.06.2.09.41.09h1.48c.14,0,.25-.04.32-.13s.11-.25.14-.51c.03-.26.05-.65.06-1.18.12.1.29.19.5.28s.4.15.57.19c-.04.65-.1,1.15-.2,1.5-.1.35-.24.6-.43.75-.19.14-.46.22-.81.22h-1.78c-.41,0-.72-.05-.94-.14-.22-.1-.38-.26-.46-.49-.08-.23-.13-.55-.13-.95v-4.5Z"/><path d="M238.47,23.67h1.24v13.19h-1.24v-13.19ZM239.17,28.68h4.97v1.19h-4.97v-1.19ZM239.26,23.67h5.47v11.77h-5.47v-1.22h4.23v-9.34h-4.23v-1.21ZM241.22,20.74l1.46.25c-.18.56-.38,1.13-.58,1.71-.21.58-.41,1.07-.58,1.48l-1.1-.27c.11-.3.21-.64.31-1.01s.2-.75.29-1.13c.09-.38.16-.73.21-1.03ZM247.67,20.7l1.3.29c-.22.9-.48,1.78-.78,2.64-.31.86-.64,1.67-1.01,2.42s-.75,1.42-1.16,2c-.08-.07-.2-.16-.33-.26-.14-.1-.28-.2-.42-.29-.14-.09-.27-.16-.38-.22.42-.54.8-1.16,1.15-1.86.35-.7.66-1.45.94-2.26.28-.8.51-1.62.7-2.45ZM246.84,28.28l1.06-.59c.34.42.69.88,1.05,1.39.37.5.71.99,1.03,1.46s.57.88.77,1.24l-1.15.72c-.18-.37-.42-.8-.73-1.29-.31-.49-.64-.98-.99-1.49-.35-.51-.7-.99-1.04-1.43ZM247.31,23.62h5.53v1.24h-5.53v-1.24ZM252.35,23.62h1.28v.42c0,.11,0,.2-.02.26-.07,2.06-.14,3.81-.21,5.24-.07,1.43-.15,2.59-.24,3.5-.1.91-.21,1.61-.33,2.11-.12.5-.28.86-.46,1.08-.2.26-.42.45-.64.55-.22.1-.49.17-.82.21-.3.02-.69.03-1.18.03s-.99-.03-1.5-.06c-.01-.19-.06-.41-.13-.67-.08-.25-.18-.46-.32-.63.6.05,1.14.08,1.63.09.49.01.84.02,1.05.02.18,0,.33-.02.44-.06.11-.04.23-.12.33-.24.14-.16.27-.48.39-.96.11-.49.21-1.18.3-2.08.08-.9.16-2.05.23-3.45.07-1.4.14-3.09.2-5.07v-.29Z"/><path d="M256.7,21.49h1.21v7.04c0,.66-.02,1.38-.04,2.15-.03.77-.09,1.56-.19,2.36-.1.8-.23,1.57-.41,2.31s-.42,1.42-.72,2.03c-.06-.08-.15-.17-.28-.26-.13-.09-.25-.18-.39-.26s-.25-.15-.34-.2c.36-.78.62-1.64.79-2.58.17-.94.27-1.89.31-2.85s.06-1.85.06-2.68v-7.06ZM257.24,21.49h6.32v1.19h-6.32v-1.19ZM258.86,36.83c-.04-.16-.1-.35-.18-.59s-.18-.44-.29-.59c.13-.05.26-.14.39-.27.12-.13.19-.36.19-.68v-9.99h1.17v11.18c-.26.12-.48.22-.65.31s-.32.19-.44.31c-.13.11-.19.23-.19.33ZM258.86,36.83l-.14-1.13.49-.5,3.8-1.64c.02.18.06.37.1.58.04.2.08.37.12.49-.88.41-1.59.74-2.13,1-.55.26-.97.46-1.26.61-.29.15-.51.27-.65.36-.14.09-.24.17-.32.24ZM259.67,24.7h3.13v1.13h-3.13v-1.13ZM262.19,24.7h1.1v5.76c0,.28-.03.5-.09.67-.06.17-.18.3-.36.4-.18.1-.41.15-.7.17-.29.02-.64.03-1.04.03-.01-.16-.05-.33-.11-.53-.06-.2-.13-.38-.22-.53.3.01.56.02.78.02s.37,0,.44-.02c.08,0,.14-.01.16-.04s.04-.08.04-.16v-5.76ZM267.39,27h1.17v3.65c0,.55-.05,1.13-.14,1.74-.1.61-.29,1.21-.57,1.8-.28.59-.71,1.16-1.28,1.7-.57.54-1.33,1.03-2.28,1.46-.08-.13-.2-.29-.35-.47-.15-.18-.29-.32-.42-.43.88-.36,1.57-.78,2.09-1.25.52-.47.9-.98,1.16-1.51.26-.53.43-1.06.5-1.58.08-.52.12-1.01.12-1.48v-3.64ZM264.26,21.58h7.74v1.17h-7.74v-1.17ZM264.69,24.55h6.73v8.55h-1.22v-7.49h-4.34v7.49h-1.17v-8.55ZM267.61,22.21l1.33.2c-.19.47-.39.95-.6,1.44s-.41.91-.6,1.26l-1.01-.22c.1-.25.2-.54.31-.85.11-.32.22-.64.32-.96.1-.32.18-.61.24-.86ZM268.26,34.42l.74-.76c.37.26.76.56,1.16.88.4.32.78.65,1.14.97s.65.61.86.86l-.77.86c-.22-.26-.5-.56-.85-.9-.35-.34-.73-.67-1.12-1.01-.4-.34-.78-.64-1.15-.92Z"/><path d="M285.45,25.31h.25l.25-.07.92.56c-.61.94-1.38,1.78-2.31,2.53-.93.75-1.96,1.41-3.11,1.99-1.14.58-2.33,1.07-3.56,1.48-1.24.41-2.47.74-3.69.99-.04-.12-.09-.25-.16-.4-.07-.15-.15-.3-.24-.44s-.18-.26-.26-.36c1.16-.2,2.34-.49,3.53-.85,1.19-.37,2.32-.8,3.4-1.31,1.08-.51,2.05-1.09,2.92-1.75.86-.65,1.55-1.36,2.07-2.13v-.22ZM274.29,22.41h15.23v3.38h-1.37v-2.16h-12.53v2.16h-1.33v-3.38ZM279.71,23.96l1.46.27c-.61.88-1.39,1.73-2.32,2.55-.94.82-2.06,1.56-3.37,2.22-.07-.11-.16-.23-.26-.35s-.21-.24-.33-.35c-.12-.11-.23-.2-.32-.27,1.25-.55,2.31-1.19,3.18-1.93.87-.73,1.53-1.45,1.97-2.14ZM277.06,31.79h9.85v5.51h-1.39v-4.37h-7.13v4.39h-1.33v-5.53ZM277.78,35.57h8.44v1.13h-8.44v-1.13ZM278.99,26.14c.71.9,1.64,1.69,2.79,2.38,1.15.68,2.46,1.25,3.92,1.7,1.46.45,2.98.78,4.58.98-.1.11-.2.24-.31.39-.11.15-.21.3-.31.46-.1.16-.18.3-.25.43-1.61-.25-3.14-.63-4.61-1.14-1.46-.51-2.79-1.15-3.99-1.93-1.19-.77-2.19-1.68-3-2.73l1.17-.54ZM279.56,25.31h6.26v1.06h-7.24l.97-1.06ZM280.68,20.95l1.31-.34c.23.35.47.74.72,1.17.25.43.44.8.56,1.12l-1.37.4c-.12-.3-.3-.67-.53-1.12s-.46-.85-.69-1.22Z"/><path d="M22.8,75.1c-.04.14-.18.22-.36.25,1.76,2.41,5.06,5.26,7.85,6.79-.31.29-.59.68-.81,1.04-2.84-1.71-6.1-4.57-7.78-6.93-1.46,2.25-4.48,5.13-7.6,7.06-.16-.27-.5-.68-.76-.94,3.15-1.85,6.3-4.93,7.72-7.4l1.73.13ZM26.69,84.43l.23-.05.86.34c-.04.11-.09.18-.16.27-.76,1.66-2.18,4.65-3.35,6.9l-1.24-.34c.97-1.84,2.14-4.27,2.92-5.96h-10.5v-1.15h11.24ZM17.78,80.88h8.05v1.13h-8.05v-1.13Z"/><path d="M47.32,83.46h-6.63c1.19,3.73,3.57,6.28,7.54,7.26-.27.27-.63.79-.83,1.13-3.8-1.08-6.14-3.47-7.51-7.08-.72,2.7-2.68,5.31-7.71,7.08-.13-.31-.49-.81-.74-1.04,5.33-1.87,6.95-4.63,7.42-7.35h-6.54v-1.24h6.66c.04-.38.04-.76.04-1.12v-3.33h-7.26v-1.24h16.02v1.24h-7.49v3.33c0,.36,0,.74-.04,1.12h7.04v1.24Z"/><path d="M52.46,86.62c-.04.14-.18.2-.36.18-.4,1.4-1.1,2.97-1.93,3.91-.18-.2-.58-.58-.81-.76.72-.85,1.33-2.29,1.69-3.73l1.4.4ZM58.57,77.6v1.15h-9.06v-1.15h3.93v-2.54l1.57.09c-.02.14-.11.22-.34.25v2.2h3.91ZM57.31,85.31h-2.68v5.11c0,1.33-.65,1.37-2.83,1.37-.05-.32-.23-.81-.4-1.13.86.02,1.53.02,1.76.02.22-.02.27-.09.27-.27v-5.1h-2.77v-5.02h6.64v5.02ZM51.82,81.35v2.9h4.3v-2.9h-4.3ZM56.37,86.19c.7.83,1.44,1.96,1.78,2.72l-1.03.52c-.32-.76-1.06-1.94-1.71-2.79l.95-.45ZM62.58,89.87c0,.76.13.86.7.86h.88c.97,0,1.03-.11,1.03-2.59.23.22.63.41.94.5-.05,2.52-.18,3.1-1.89,3.1h-1.21c-.4,0-.85-.09-1.15-.31-.32-.22-.43-.5-.43-1.73v-5.6c-.52,2.72-1.66,5.49-4.05,7.74-.23-.23-.72-.56-1.04-.7,3.21-2.92,4.05-6.75,4.27-10.03h-2.45v-1.15h2.5c.02-.41.02-.83.02-1.21v-3.69l1.55.09c-.02.13-.13.22-.36.25v3.33c0,.4,0,.81-.02,1.22h4.21v1.15h-4.27c-.02.32-.04.63-.07.95.65.05.94.07,1.21.09-.02.13-.11.2-.36.23v7.47ZM63.68,75.66c.94.88,1.84,2.11,2.23,2.99l-1.03.54c-.36-.88-1.24-2.16-2.16-3.06l.96-.47Z"/><path d="M75.45,75.5c-.05.13-.2.2-.41.2-.23.74-.49,1.51-.79,2.27h9.52v1.17h-10.05c-.59,1.28-1.3,2.54-2.16,3.71l.2.05c-.04.13-.14.22-.36.23v8.7h-1.21v-7.31c-.65.7-1.35,1.33-2.12,1.91-.14-.32-.47-.83-.67-1.1,1.04-.76,1.98-1.67,2.79-2.7v-.13l.07.02c.81-1.04,1.51-2.2,2.09-3.38h-4.52v-1.17h5.06c.4-.95.72-1.93.99-2.88l1.57.41ZM78.8,84.86v5.38h4.97v1.13h-11.05v-1.13h4.86v-5.38h-4.14v-1.13h4.14v-3.62l1.57.11c-.02.13-.11.2-.34.23v3.28h4.25v1.13h-4.25Z"/><path d="M91.54,79.48h-3.69v-1.33h8.99v1.33h-3.71v10.8h-1.58v-10.8Z"/><path d="M98,77.5h1.58v5.44h.04c.25-.45.65-.85,1.13-1.12.47-.27,1.03-.45,1.62-.45,1.17,0,3.04.72,3.04,3.73v5.19h-1.58v-5.01c0-1.4-.52-2.59-2.02-2.59-1.03,0-1.84.72-2.12,1.58-.09.22-.11.45-.11.76v5.26h-1.58v-12.78Z"/><path d="M108.88,86.21c.04,2.14,1.4,3.03,2.99,3.03,1.13,0,1.82-.2,2.41-.45l.27,1.13c-.56.25-1.51.54-2.9.54-2.68,0-4.29-1.76-4.29-4.39s1.55-4.7,4.09-4.7c2.84,0,3.6,2.5,3.6,4.11,0,.32-.04.58-.05.74h-6.12ZM113.52,85.08c.02-1.01-.41-2.58-2.2-2.58-1.6,0-2.3,1.48-2.43,2.58h4.63Z"/><path d="M120.67,88.37c.7.43,1.73.79,2.81.79,1.6,0,2.54-.85,2.54-2.07,0-1.13-.65-1.78-2.29-2.41-1.98-.7-3.21-1.73-3.21-3.44,0-1.89,1.57-3.29,3.92-3.29,1.24,0,2.14.29,2.68.59l-.43,1.28c-.4-.22-1.21-.58-2.3-.58-1.66,0-2.29.99-2.29,1.82,0,1.13.74,1.69,2.41,2.34,2.05.79,3.1,1.78,3.1,3.57,0,1.87-1.39,3.49-4.25,3.49-1.17,0-2.45-.34-3.1-.77l.4-1.31Z"/><path d="M136.99,87.9c0,.9.02,1.69.07,2.38h-1.4l-.09-1.42h-.04c-.41.7-1.33,1.62-2.88,1.62-1.37,0-3.01-.76-3.01-3.82v-5.1h1.58v4.83c0,1.66.5,2.77,1.95,2.77,1.06,0,1.8-.74,2.09-1.44.09-.23.14-.52.14-.81v-5.35h1.58v6.34Z"/><path d="M139.62,83.92c0-.9-.02-1.64-.07-2.36h1.41l.09,1.44h.04c.43-.83,1.44-1.64,2.88-1.64,1.21,0,3.08.72,3.08,3.71v5.2h-1.58v-5.02c0-1.4-.52-2.58-2.02-2.58-1.04,0-1.85.74-2.12,1.62-.07.2-.11.47-.11.74v5.24h-1.58v-6.36Z"/><path d="M149.39,88.66c.47.31,1.3.63,2.09.63,1.15,0,1.69-.58,1.69-1.3s-.45-1.17-1.62-1.6c-1.57-.56-2.3-1.42-2.3-2.47,0-1.41,1.13-2.56,3.01-2.56.88,0,1.66.25,2.14.54l-.4,1.15c-.34-.22-.97-.5-1.78-.5-.94,0-1.46.54-1.46,1.19,0,.72.52,1.04,1.66,1.48,1.51.58,2.29,1.33,2.29,2.63,0,1.53-1.19,2.61-3.26,2.61-.95,0-1.84-.23-2.45-.59l.4-1.21Z"/><path d="M157.62,86.21c.04,2.14,1.4,3.03,2.99,3.03,1.13,0,1.82-.2,2.41-.45l.27,1.13c-.56.25-1.51.54-2.9.54-2.68,0-4.29-1.76-4.29-4.39s1.55-4.7,4.09-4.7c2.84,0,3.6,2.5,3.6,4.11,0,.32-.04.58-.05.74h-6.12ZM162.26,85.08c.02-1.01-.41-2.58-2.2-2.58-1.6,0-2.3,1.48-2.43,2.58h4.63Z"/><path d="M167.67,79.06v2.5h2.27v1.21h-2.27v4.7c0,1.08.31,1.69,1.19,1.69.41,0,.72-.05.92-.11l.07,1.19c-.31.13-.79.22-1.4.22-.74,0-1.33-.23-1.71-.67-.45-.47-.61-1.24-.61-2.27v-4.75h-1.35v-1.21h1.35v-2.09l1.55-.42Z"/><path d="M175.58,78.29c.76-.13,1.75-.23,3.01-.23,1.55,0,2.68.36,3.4,1.01.67.58,1.06,1.46,1.06,2.54s-.32,1.96-.94,2.59c-.83.88-2.18,1.33-3.71,1.33-.47,0-.9-.02-1.26-.11v4.86h-1.57v-11.99ZM177.15,84.14c.34.09.77.13,1.3.13,1.89,0,3.04-.92,3.04-2.59s-1.13-2.38-2.86-2.38c-.68,0-1.21.05-1.48.13v4.72Z"/><path d="M192.54,85.85c0,3.22-2.23,4.63-4.34,4.63-2.36,0-4.18-1.73-4.18-4.48,0-2.92,1.91-4.63,4.32-4.63s4.2,1.82,4.2,4.48ZM185.63,85.94c0,1.91,1.1,3.35,2.65,3.35s2.65-1.42,2.65-3.38c0-1.48-.74-3.35-2.61-3.35s-2.68,1.73-2.68,3.39Z"/><path d="M194.32,88.66c.47.31,1.3.63,2.09.63,1.15,0,1.69-.58,1.69-1.3s-.45-1.17-1.62-1.6c-1.57-.56-2.3-1.42-2.3-2.47,0-1.41,1.13-2.56,3.01-2.56.88,0,1.66.25,2.14.54l-.4,1.15c-.34-.22-.97-.5-1.78-.5-.94,0-1.46.54-1.46,1.19,0,.72.52,1.04,1.66,1.48,1.51.58,2.29,1.33,2.29,2.63,0,1.53-1.19,2.61-3.26,2.61-.95,0-1.84-.23-2.45-.59l.4-1.21Z"/><path d="M203.57,79.06v2.5h2.27v1.21h-2.27v4.7c0,1.08.31,1.69,1.19,1.69.41,0,.72-.05.92-.11l.07,1.19c-.31.13-.79.22-1.4.22-.74,0-1.33-.23-1.71-.67-.45-.47-.61-1.24-.61-2.27v-4.75h-1.35v-1.21h1.35v-2.09l1.55-.42Z"/><path d="M219.15,89.72h8.17v1.22h-16.37v-1.22h6.93v-14.35l1.64.11c-.02.13-.13.22-.38.25v5.33h6.91v1.22h-6.91v7.44Z"/><path d="M234.86,84.14l-2.09.76v5.44c0,1.3-.59,1.5-2.99,1.46-.05-.29-.23-.79-.4-1.12.85.02,1.62.02,1.85.02.23-.02.34-.09.34-.34v-5.04c-.85.31-1.62.58-2.23.77,0,.14-.09.25-.22.29l-.5-1.42c.81-.22,1.84-.52,2.95-.88v-4.21h-2.74v-1.13h2.74v-3.64l1.55.09c-.02.14-.11.22-.36.25v3.29h2.07v1.13h-2.07v3.83l1.94-.61.14,1.06ZM243.45,82.93l.81.36c-.04.09-.11.13-.16.18-.68,2.11-1.84,3.78-3.28,5.11,1.33.99,2.97,1.73,4.86,2.14-.29.25-.63.74-.81,1.08-1.96-.5-3.64-1.31-5.02-2.43-1.53,1.12-3.29,1.93-5.15,2.43-.13-.31-.41-.81-.67-1.06,1.76-.41,3.46-1.15,4.92-2.2-1.15-1.15-2.05-2.54-2.68-4.18l.92-.27h-1.58v-1.12h7.63l.22-.05ZM237.83,76.96v.7c0,1.57-.47,3.53-2.47,4.84-.16-.25-.59-.7-.83-.88,1.82-1.15,2.14-2.72,2.14-3.98v-1.82h5.94v4.45c0,.4.07.47.41.47h1.08c.36,0,.43-.27.47-2.21.25.2.72.38,1.03.47-.09,2.23-.38,2.79-1.37,2.79h-1.39c-1.08,0-1.4-.31-1.4-1.51v-3.31h-3.62ZM237.38,84.1c.58,1.42,1.42,2.68,2.5,3.71,1.15-1.01,2.07-2.25,2.68-3.71h-5.19Z"/><path d="M253.22,81.85l.63.04c-.02.11-.02.27-.02.41-.13,6.23-.27,8.25-.74,8.88-.38.54-.86.58-1.84.58-.38,0-.79,0-1.22-.04-.02-.34-.14-.81-.31-1.12.77.05,1.49.07,1.78.07.27,0,.41-.04.56-.23.32-.43.47-2.27.58-7.45h-2.5c-.22,3.46-.79,6.72-2.52,8.84-.2-.25-.61-.61-.94-.79,2.12-2.54,2.34-7.2,2.43-11.79h-2.29v-1.15h3.4v-2.97l1.55.09c-.02.13-.11.22-.36.25v2.63h3.53v1.15h-4.66c-.02.86-.04,1.75-.07,2.61h3.01ZM263.5,79.64h-1.33c-.49,2.99-1.24,5.47-2.47,7.49,1.03,1.62,2.3,2.88,3.94,3.66-.29.25-.67.7-.85,1.04-1.57-.83-2.83-2.07-3.82-3.6-1.15,1.51-2.63,2.72-4.54,3.62-.13-.29-.43-.77-.65-1.03,1.94-.86,3.42-2.09,4.54-3.71-.83-1.57-1.44-3.37-1.91-5.37-.38.85-.79,1.62-1.24,2.25-.22-.22-.67-.58-.95-.76,1.33-1.82,2.32-4.99,2.88-8.16l1.55.34c-.04.13-.16.2-.4.2-.18.97-.41,1.94-.68,2.88h5.92v1.13ZM257.23,79.64c-.04.09-.05.18-.09.27.41,2.21,1.03,4.29,1.89,6.03.94-1.73,1.53-3.84,1.93-6.3h-3.73Z"/><path d="M281.19,77.53v1.17h-13.34v3.82c0,2.75-.29,6.73-2.14,9.42-.2-.25-.68-.67-.97-.81,1.73-2.52,1.91-6.03,1.91-8.61v-4.99h6.36v-2.45l1.6.11c-.02.13-.11.22-.36.25v2.09h6.95Z"/><path d="M291.72,82h7.56v1.15h-16.26v-1.15h7.45v-3.06h-3.96c-.49,1.03-1.03,1.98-1.58,2.7-.25-.2-.72-.49-1.04-.63,1.08-1.31,2.07-3.58,2.67-5.74l1.51.41c-.04.13-.16.2-.38.2-.2.65-.43,1.3-.68,1.94h3.47v-2.75l1.6.11c-.02.13-.11.22-.36.25v2.39h6.14v1.12h-6.14v3.06ZM285.71,91.81v-6.91h10.95v6.9h-1.26v-.74h-8.46v.76h-1.22ZM295.4,86.03h-8.46v3.89h8.46v-3.89Z"/><path d="M305.44,89.29c0,1.39-1.13,2.52-2.52,2.52s-2.52-1.13-2.52-2.52,1.13-2.52,2.52-2.52,2.52,1.17,2.52,2.52ZM304.79,89.29c0-1.04-.83-1.87-1.87-1.87s-1.85.83-1.85,1.87.83,1.85,1.85,1.85c1.08,0,1.87-.86,1.87-1.85Z"/></svg>