<?xml version="1.0" encoding="UTF-8"?><svg id="Layer_1" xmlns="http://www.w3.org/2000/svg" viewBox="0 0 320 100"><path d="M10.13,11.03c.79-.16,1.93-.25,3.01-.25,1.67,0,2.75.31,3.51.99.61.54.95,1.37.95,2.3,0,1.6-1.01,2.67-2.29,3.1v.05c.94.32,1.49,1.19,1.78,2.45.4,1.69.68,2.86.94,3.33h-1.62c-.2-.34-.47-1.39-.81-2.9-.36-1.67-1.01-2.3-2.43-2.36h-1.48v5.26h-1.57v-11.97ZM11.7,16.56h1.6c1.67,0,2.74-.92,2.74-2.3,0-1.57-1.13-2.25-2.79-2.27-.76,0-1.3.07-1.55.14v4.43Z"/><path d="M20.71,18.94c.04,2.14,1.4,3.03,2.99,3.03,1.13,0,1.82-.2,2.41-.45l.27,1.13c-.56.25-1.51.54-2.9.54-2.68,0-4.29-1.76-4.29-4.39s1.55-4.7,4.09-4.7c2.84,0,3.6,2.5,3.6,4.11,0,.32-.04.58-.05.74h-6.12ZM25.36,17.8c.02-1.01-.41-2.58-2.2-2.58-1.6,0-2.3,1.48-2.43,2.58h4.63Z"/><path d="M33.67,23.01l-.13-1.1h-.05c-.49.68-1.42,1.3-2.67,1.3-1.76,0-2.66-1.24-2.66-2.5,0-2.11,1.87-3.26,5.24-3.24v-.18c0-.72-.2-2.02-1.98-2.02-.81,0-1.66.25-2.27.65l-.36-1.04c.72-.47,1.76-.77,2.86-.77,2.67,0,3.31,1.82,3.31,3.57v3.26c0,.76.04,1.5.14,2.09h-1.44ZM33.44,18.56c-1.73-.04-3.69.27-3.69,1.96,0,1.03.68,1.51,1.49,1.51,1.13,0,1.85-.72,2.11-1.46.05-.16.09-.34.09-.5v-1.51Z"/><path d="M43.74,22.68c-.41.22-1.33.5-2.5.5-2.63,0-4.34-1.78-4.34-4.45s1.84-4.63,4.68-4.63c.94,0,1.76.23,2.2.45l-.36,1.22c-.38-.22-.97-.41-1.84-.41-2,0-3.08,1.48-3.08,3.29,0,2.02,1.3,3.26,3.02,3.26.9,0,1.49-.23,1.94-.43l.27,1.19Z"/><path d="M45.59,10.22h1.58v5.44h.04c.25-.45.65-.85,1.13-1.12.47-.27,1.03-.45,1.62-.45,1.17,0,3.04.72,3.04,3.73v5.19h-1.58v-5.01c0-1.4-.52-2.59-2.02-2.59-1.03,0-1.84.72-2.12,1.58-.09.22-.11.45-.11.76v5.26h-1.58v-12.78Z"/><path d="M67.28,18.58c0,3.22-2.23,4.63-4.34,4.63-2.36,0-4.18-1.73-4.18-4.48,0-2.92,1.91-4.63,4.32-4.63s4.2,1.82,4.2,4.48ZM60.37,18.67c0,1.91,1.1,3.35,2.65,3.35s2.65-1.42,2.65-3.38c0-1.48-.74-3.35-2.61-3.35s-2.68,1.73-2.68,3.39Z"/><path d="M76.57,20.63c0,.9.02,1.69.07,2.38h-1.4l-.09-1.42h-.04c-.41.7-1.33,1.62-2.88,1.62-1.37,0-3.01-.76-3.01-3.82v-5.1h1.58v4.83c0,1.66.5,2.77,1.94,2.77,1.06,0,1.8-.74,2.09-1.44.09-.23.14-.52.14-.81v-5.35h1.58v6.34Z"/><path d="M81.1,11.79v2.5h2.27v1.21h-2.27v4.7c0,1.08.31,1.69,1.19,1.69.41,0,.72-.05.92-.11l.07,1.19c-.31.13-.79.22-1.4.22-.74,0-1.33-.23-1.71-.67-.45-.47-.61-1.24-.61-2.27v-4.75h-1.35v-1.21h1.35v-2.09l1.55-.41Z"/><path d="M90.88,11.79v2.5h2.27v1.21h-2.27v4.7c0,1.08.31,1.69,1.19,1.69.41,0,.72-.05.92-.11l.07,1.19c-.31.13-.79.22-1.4.22-.74,0-1.33-.23-1.71-.67-.45-.47-.61-1.24-.61-2.27v-4.75h-1.35v-1.21h1.35v-2.09l1.55-.41Z"/><path d="M102.7,18.58c0,3.22-2.23,4.63-4.34,4.63-2.36,0-4.18-1.73-4.18-4.48,0-2.92,1.91-4.63,4.32-4.63s4.2,1.82,4.2,4.48ZM95.79,18.67c0,1.91,1.1,3.35,2.65,3.35s2.65-1.42,2.65-3.38c0-1.48-.74-3.35-2.61-3.35s-2.68,1.73-2.68,3.39Z"/><path d="M109.09,14.29l1.91,5.15c.2.58.41,1.26.56,1.78h.04c.16-.52.34-1.19.56-1.82l1.73-5.11h1.67l-2.38,6.21c-1.13,2.99-1.91,4.52-2.99,5.46-.77.68-1.55.95-1.94,1.03l-.4-1.33c.4-.13.92-.38,1.39-.77.43-.34.97-.95,1.33-1.76.07-.16.13-.29.13-.38s-.04-.22-.11-.41l-3.22-8.03h1.73Z"/><path d="M124.7,18.58c0,3.22-2.23,4.63-4.34,4.63-2.36,0-4.18-1.73-4.18-4.48,0-2.92,1.91-4.63,4.32-4.63s4.2,1.82,4.2,4.48ZM117.79,18.67c0,1.91,1.1,3.35,2.65,3.35s2.65-1.42,2.65-3.38c0-1.48-.74-3.35-2.61-3.35s-2.68,1.73-2.68,3.39Z"/><path d="M133.99,20.63c0,.9.02,1.69.07,2.38h-1.4l-.09-1.42h-.04c-.41.7-1.33,1.62-2.88,1.62-1.37,0-3.01-.76-3.01-3.82v-5.1h1.58v4.83c0,1.66.5,2.77,1.94,2.77,1.06,0,1.8-.74,2.09-1.44.09-.23.14-.52.14-.81v-5.35h1.58v6.34Z"/><path d="M136.61,17.01c0-1.03-.02-1.91-.07-2.72h1.39l.05,1.71h.07c.4-1.17,1.35-1.91,2.41-1.91.18,0,.31.02.45.05v1.49c-.16-.04-.32-.05-.54-.05-1.12,0-1.91.85-2.12,2.03-.04.22-.07.47-.07.74v4.65h-1.57v-6Z"/><path d="M146.15,21.1c.7.43,1.73.79,2.81.79,1.6,0,2.54-.85,2.54-2.07,0-1.13-.65-1.78-2.29-2.41-1.98-.7-3.21-1.73-3.21-3.44,0-1.89,1.57-3.29,3.93-3.29,1.24,0,2.14.29,2.68.59l-.43,1.28c-.4-.22-1.21-.58-2.3-.58-1.66,0-2.29.99-2.29,1.82,0,1.13.74,1.69,2.41,2.34,2.05.79,3.1,1.78,3.1,3.56,0,1.87-1.39,3.49-4.25,3.49-1.17,0-2.45-.34-3.1-.77l.4-1.31Z"/><path d="M162.48,20.63c0,.9.02,1.69.07,2.38h-1.4l-.09-1.42h-.04c-.41.7-1.33,1.62-2.88,1.62-1.37,0-3.01-.76-3.01-3.82v-5.1h1.58v4.83c0,1.66.5,2.77,1.94,2.77,1.06,0,1.8-.74,2.09-1.44.09-.23.14-.52.14-.81v-5.35h1.58v6.34Z"/><path d="M165.11,16.65c0-.9-.02-1.64-.07-2.36h1.4l.09,1.44h.04c.43-.83,1.44-1.64,2.88-1.64,1.21,0,3.08.72,3.08,3.71v5.2h-1.58v-5.02c0-1.4-.52-2.58-2.02-2.58-1.04,0-1.85.74-2.12,1.62-.07.2-.11.47-.11.74v5.24h-1.58v-6.36Z"/><path d="M174.88,21.39c.47.31,1.3.63,2.09.63,1.15,0,1.69-.58,1.69-1.3s-.45-1.17-1.62-1.6c-1.57-.56-2.3-1.42-2.3-2.47,0-1.41,1.13-2.56,3.01-2.56.88,0,1.66.25,2.14.54l-.4,1.15c-.34-.22-.97-.5-1.78-.5-.94,0-1.46.54-1.46,1.19,0,.72.52,1.04,1.66,1.48,1.51.58,2.29,1.33,2.29,2.63,0,1.53-1.19,2.61-3.26,2.61-.95,0-1.84-.23-2.45-.59l.4-1.21Z"/><path d="M183.11,18.94c.04,2.14,1.4,3.03,2.99,3.03,1.13,0,1.82-.2,2.41-.45l.27,1.13c-.56.25-1.51.54-2.9.54-2.68,0-4.29-1.76-4.29-4.39s1.55-4.7,4.09-4.7c2.84,0,3.6,2.5,3.6,4.11,0,.32-.04.58-.05.74h-6.12ZM187.75,17.8c.02-1.01-.41-2.58-2.2-2.58-1.6,0-2.3,1.48-2.43,2.58h4.63Z"/><path d="M193.15,11.79v2.5h2.27v1.21h-2.27v4.7c0,1.08.31,1.69,1.19,1.69.41,0,.72-.05.92-.11l.07,1.19c-.31.13-.79.22-1.4.22-.74,0-1.33-.23-1.71-.67-.45-.47-.61-1.24-.61-2.27v-4.75h-1.35v-1.21h1.35v-2.09l1.55-.41Z"/><path d="M201.07,11.02c.76-.13,1.75-.23,3.01-.23,1.55,0,2.68.36,3.4,1.01.67.58,1.06,1.46,1.06,2.54s-.32,1.96-.94,2.59c-.83.88-2.18,1.33-3.71,1.33-.47,0-.9-.02-1.26-.11v4.86h-1.57v-11.99ZM202.64,16.87c.34.09.77.13,1.3.13,1.89,0,3.04-.92,3.04-2.59s-1.13-2.38-2.86-2.38c-.68,0-1.21.05-1.48.13v4.72Z"/><path d="M214.95,23.01l-.13-1.1h-.05c-.49.68-1.42,1.3-2.67,1.3-1.76,0-2.66-1.24-2.66-2.5,0-2.11,1.87-3.26,5.24-3.24v-.18c0-.72-.2-2.02-1.98-2.02-.81,0-1.66.25-2.27.65l-.36-1.04c.72-.47,1.76-.77,2.86-.77,2.67,0,3.31,1.82,3.31,3.57v3.26c0,.76.04,1.5.14,2.09h-1.44ZM214.72,18.56c-1.73-.04-3.69.27-3.69,1.96,0,1.03.68,1.51,1.49,1.51,1.13,0,1.85-.72,2.11-1.46.05-.16.09-.34.09-.5v-1.51Z"/><path d="M218.8,17.01c0-1.03-.02-1.91-.07-2.72h1.39l.05,1.71h.07c.4-1.17,1.35-1.91,2.41-1.91.18,0,.31.02.45.05v1.49c-.16-.04-.32-.05-.54-.05-1.12,0-1.91.85-2.12,2.03-.04.22-.07.47-.07.74v4.65h-1.57v-6Z"/><path d="M226.32,18.29h.04c.22-.31.52-.68.77-.99l2.56-3.01h1.91l-3.37,3.58,3.83,5.13h-1.93l-3.01-4.18-.81.9v3.28h-1.57v-12.78h1.57v8.07Z"/><path d="M243.23,22.68c-.41.22-1.33.5-2.5.5-2.63,0-4.34-1.78-4.34-4.45s1.84-4.63,4.68-4.63c.94,0,1.76.23,2.2.45l-.36,1.22c-.38-.22-.97-.41-1.84-.41-2,0-3.08,1.48-3.08,3.29,0,2.02,1.3,3.26,3.02,3.26.9,0,1.49-.23,1.94-.43l.27,1.19Z"/><path d="M252.37,20.63c0,.9.02,1.69.07,2.38h-1.4l-.09-1.42h-.04c-.41.7-1.33,1.62-2.88,1.62-1.37,0-3.01-.76-3.01-3.82v-5.1h1.58v4.83c0,1.66.5,2.77,1.94,2.77,1.06,0,1.8-.74,2.09-1.44.09-.23.14-.52.14-.81v-5.35h1.58v6.34Z"/><path d="M254.78,21.39c.47.31,1.3.63,2.09.63,1.15,0,1.69-.58,1.69-1.3s-.45-1.17-1.62-1.6c-1.57-.56-2.3-1.42-2.3-2.47,0-1.41,1.13-2.56,3.01-2.56.88,0,1.66.25,2.14.54l-.4,1.15c-.34-.22-.97-.5-1.78-.5-.94,0-1.46.54-1.46,1.19,0,.72.52,1.04,1.66,1.48,1.51.58,2.29,1.33,2.29,2.63,0,1.53-1.19,2.61-3.26,2.61-.95,0-1.84-.23-2.45-.59l.4-1.21Z"/><path d="M264.03,11.79v2.5h2.27v1.21h-2.27v4.7c0,1.08.31,1.69,1.19,1.69.41,0,.72-.05.92-.11l.07,1.19c-.31.13-.79.22-1.4.22-.74,0-1.33-.23-1.71-.67-.45-.47-.61-1.24-.61-2.27v-4.75h-1.35v-1.21h1.35v-2.09l1.55-.41Z"/><path d="M275.86,18.58c0,3.22-2.23,4.63-4.34,4.63-2.36,0-4.18-1.73-4.18-4.48,0-2.92,1.91-4.63,4.32-4.63s4.2,1.82,4.2,4.48ZM268.95,18.67c0,1.91,1.1,3.35,2.65,3.35s2.65-1.42,2.65-3.38c0-1.48-.74-3.35-2.61-3.35s-2.68,1.73-2.68,3.39Z"/><path d="M277.86,16.65c0-.9-.02-1.64-.07-2.36h1.39l.07,1.4h.05c.49-.83,1.3-1.6,2.74-1.6,1.19,0,2.09.72,2.47,1.75h.04c.27-.49.61-.86.97-1.13.52-.4,1.1-.61,1.93-.61,1.15,0,2.86.76,2.86,3.78v5.13h-1.55v-4.93c0-1.67-.61-2.68-1.89-2.68-.9,0-1.6.67-1.87,1.44-.07.22-.13.5-.13.79v5.38h-1.55v-5.22c0-1.39-.61-2.39-1.82-2.39-.99,0-1.71.79-1.96,1.58-.09.23-.13.5-.13.77v5.26h-1.55v-6.36Z"/><path d="M293.75,18.94c.04,2.14,1.4,3.03,2.99,3.03,1.13,0,1.82-.2,2.41-.45l.27,1.13c-.56.25-1.51.54-2.9.54-2.68,0-4.29-1.76-4.29-4.39s1.55-4.7,4.09-4.7c2.84,0,3.6,2.5,3.6,4.11,0,.32-.04.58-.05.74h-6.12ZM298.4,17.8c.02-1.01-.41-2.58-2.2-2.58-1.6,0-2.3,1.48-2.43,2.58h4.63Z"/><path d="M301.89,17.01c0-1.03-.02-1.91-.07-2.72h1.39l.05,1.71h.07c.4-1.17,1.35-1.91,2.41-1.91.18,0,.31.02.45.05v1.49c-.16-.04-.32-.05-.54-.05-1.12,0-1.91.85-2.12,2.03-.04.22-.07.47-.07.74v4.65h-1.57v-6Z"/><path d="M307.56,21.39c.47.31,1.3.63,2.09.63,1.15,0,1.69-.58,1.69-1.3s-.45-1.17-1.62-1.6c-1.57-.56-2.3-1.42-2.3-2.47,0-1.41,1.13-2.56,3.01-2.56.88,0,1.66.25,2.14.54l-.4,1.15c-.34-.22-.97-.5-1.78-.5-.94,0-1.46.54-1.46,1.19,0,.72.52,1.04,1.66,1.48,1.51.58,2.29,1.33,2.29,2.63,0,1.53-1.19,2.61-3.26,2.61-.95,0-1.84-.23-2.45-.59l.4-1.21Z"/><path d="M11.84,33.44c.02.54-.38.97-1.01.97-.56,0-.95-.43-.95-.97s.41-.99.99-.99.97.43.97.99ZM10.08,44.61v-8.71h1.58v8.71h-1.58Z"/><path d="M14.29,38.25c0-.9-.02-1.64-.07-2.36h1.4l.09,1.44h.04c.43-.83,1.44-1.64,2.88-1.64,1.21,0,3.08.72,3.08,3.71v5.2h-1.58v-5.02c0-1.4-.52-2.58-2.02-2.58-1.04,0-1.85.74-2.12,1.62-.07.2-.11.47-.11.74v5.24h-1.58v-6.36Z"/><path d="M30,33.39v2.5h2.27v1.21h-2.27v4.7c0,1.08.31,1.69,1.19,1.69.41,0,.72-.05.92-.11l.07,1.19c-.31.13-.79.22-1.4.22-.74,0-1.33-.23-1.71-.67-.45-.47-.61-1.24-.61-2.27v-4.75h-1.35v-1.21h1.35v-2.09l1.55-.41Z"/><path d="M34.05,31.82h1.58v5.44h.04c.25-.45.65-.85,1.13-1.12.47-.27,1.03-.45,1.62-.45,1.17,0,3.04.72,3.04,3.73v5.19h-1.58v-5.01c0-1.4-.52-2.59-2.02-2.59-1.03,0-1.84.72-2.12,1.58-.09.22-.11.45-.11.76v5.26h-1.58v-12.78Z"/><path d="M44.92,40.54c.04,2.14,1.4,3.03,2.99,3.03,1.13,0,1.82-.2,2.41-.45l.27,1.13c-.56.25-1.51.54-2.9.54-2.68,0-4.29-1.76-4.29-4.39s1.55-4.7,4.09-4.7c2.84,0,3.6,2.5,3.6,4.11,0,.32-.04.58-.05.74h-6.12ZM49.57,39.4c.02-1.01-.41-2.58-2.2-2.58-1.6,0-2.3,1.48-2.43,2.58h4.63Z"/><path d="M56.87,31.82h1.58v12.78h-1.58v-12.78Z"/><path d="M65.95,44.61l-.13-1.1h-.05c-.49.68-1.42,1.3-2.67,1.3-1.76,0-2.66-1.24-2.66-2.5,0-2.11,1.87-3.26,5.24-3.24v-.18c0-.72-.2-2.02-1.98-2.02-.81,0-1.66.25-2.27.65l-.36-1.04c.72-.47,1.76-.77,2.86-.77,2.67,0,3.31,1.82,3.31,3.57v3.26c0,.76.04,1.5.14,2.09h-1.44ZM65.71,40.16c-1.73-.04-3.69.27-3.69,1.96,0,1.03.68,1.51,1.49,1.51,1.13,0,1.85-.72,2.11-1.46.05-.16.09-.34.09-.5v-1.51Z"/><path d="M69.8,38.25c0-.9-.02-1.64-.07-2.36h1.4l.09,1.44h.04c.43-.83,1.44-1.64,2.88-1.64,1.21,0,3.08.72,3.08,3.71v5.2h-1.58v-5.02c0-1.4-.52-2.58-2.02-2.58-1.04,0-1.85.74-2.12,1.62-.07.2-.11.47-.11.74v5.24h-1.58v-6.36Z"/><path d="M87.3,35.89c-.04.63-.07,1.33-.07,2.39v5.06c0,2-.4,3.22-1.24,3.98-.85.79-2.07,1.04-3.17,1.04s-2.2-.25-2.9-.72l.4-1.21c.58.36,1.48.68,2.56.68,1.62,0,2.81-.85,2.81-3.04v-.97h-.04c-.49.81-1.42,1.46-2.77,1.46-2.16,0-3.71-1.84-3.71-4.25,0-2.95,1.93-4.63,3.93-4.63,1.51,0,2.34.79,2.72,1.51h.04l.07-1.31h1.39ZM85.66,39.33c0-.27-.02-.5-.09-.72-.29-.92-1.06-1.67-2.21-1.67-1.51,0-2.59,1.28-2.59,3.29,0,1.71.86,3.13,2.57,3.13.97,0,1.85-.61,2.2-1.62.09-.27.13-.58.13-.85v-1.57Z"/><path d="M97.14,42.23c0,.9.02,1.69.07,2.38h-1.4l-.09-1.42h-.04c-.41.7-1.33,1.62-2.88,1.62-1.37,0-3.01-.76-3.01-3.82v-5.1h1.58v4.83c0,1.66.5,2.77,1.94,2.77,1.06,0,1.8-.74,2.09-1.44.09-.23.14-.52.14-.81v-5.35h1.58v6.34Z"/><path d="M104.59,44.61l-.13-1.1h-.05c-.49.68-1.42,1.3-2.67,1.3-1.76,0-2.66-1.24-2.66-2.5,0-2.11,1.87-3.26,5.24-3.24v-.18c0-.72-.2-2.02-1.98-2.02-.81,0-1.66.25-2.27.65l-.36-1.04c.72-.47,1.76-.77,2.86-.77,2.67,0,3.31,1.82,3.31,3.57v3.26c0,.76.04,1.5.14,2.09h-1.44ZM104.36,40.16c-1.73-.04-3.69.27-3.69,1.96,0,1.03.68,1.51,1.49,1.51,1.13,0,1.85-.72,2.11-1.46.05-.16.09-.34.09-.5v-1.51Z"/><path d="M115.95,35.89c-.04.63-.07,1.33-.07,2.39v5.06c0,2-.4,3.22-1.24,3.98-.85.79-2.07,1.04-3.17,1.04s-2.2-.25-2.9-.72l.4-1.21c.58.36,1.48.68,2.56.68,1.62,0,2.81-.85,2.81-3.04v-.97h-.04c-.49.81-1.42,1.46-2.77,1.46-2.16,0-3.71-1.84-3.71-4.25,0-2.95,1.93-4.63,3.93-4.63,1.51,0,2.34.79,2.72,1.51h.04l.07-1.31h1.39ZM114.31,39.33c0-.27-.02-.5-.09-.72-.29-.92-1.06-1.67-2.21-1.67-1.51,0-2.59,1.28-2.59,3.29,0,1.71.86,3.13,2.57,3.13.97,0,1.85-.61,2.2-1.62.09-.27.13-.58.13-.85v-1.57Z"/><path d="M119.39,40.54c.04,2.14,1.4,3.03,2.99,3.03,1.13,0,1.82-.2,2.41-.45l.27,1.13c-.56.25-1.51.54-2.9.54-2.68,0-4.29-1.76-4.29-4.39s1.55-4.7,4.09-4.7c2.84,0,3.6,2.5,3.6,4.11,0,.32-.04.58-.05.74h-6.12ZM124.03,39.4c.02-1.01-.41-2.58-2.2-2.58-1.6,0-2.3,1.48-2.43,2.58h4.63Z"/><path d="M133.25,33.39v2.5h2.27v1.21h-2.27v4.7c0,1.08.31,1.69,1.19,1.69.41,0,.72-.05.92-.11l.07,1.19c-.31.13-.79.22-1.4.22-.74,0-1.33-.23-1.71-.67-.45-.47-.61-1.24-.61-2.27v-4.75h-1.35v-1.21h1.35v-2.09l1.55-.41Z"/><path d="M137.3,31.82h1.58v5.44h.04c.25-.45.65-.85,1.13-1.12.47-.27,1.03-.45,1.62-.45,1.17,0,3.04.72,3.04,3.73v5.19h-1.58v-5.01c0-1.4-.52-2.59-2.02-2.59-1.03,0-1.84.72-2.12,1.58-.09.22-.11.45-.11.76v5.26h-1.58v-12.78Z"/><path d="M148.17,40.54c.04,2.14,1.4,3.03,2.99,3.03,1.13,0,1.82-.2,2.41-.45l.27,1.13c-.56.25-1.51.54-2.9.54-2.68,0-4.29-1.76-4.29-4.39s1.55-4.7,4.09-4.7c2.84,0,3.6,2.5,3.6,4.11,0,.32-.04.58-.05.74h-6.12ZM152.81,39.4c.02-1.01-.41-2.58-2.2-2.58-1.6,0-2.3,1.48-2.43,2.58h4.63Z"/><path d="M156.88,35.89l1.91,5.15c.2.58.41,1.26.56,1.78h.04c.16-.52.34-1.19.56-1.82l1.73-5.11h1.67l-2.38,6.21c-1.13,2.99-1.91,4.52-2.99,5.46-.77.68-1.55.95-1.94,1.03l-.4-1.33c.4-.13.92-.38,1.39-.77.43-.34.97-.95,1.33-1.76.07-.16.13-.29.13-.38s-.04-.22-.11-.41l-3.22-8.03h1.73Z"/><path d="M168.38,42.99c.47.31,1.3.63,2.09.63,1.15,0,1.69-.58,1.69-1.3s-.45-1.17-1.62-1.6c-1.57-.56-2.3-1.42-2.3-2.47,0-1.41,1.13-2.56,3.01-2.56.88,0,1.66.25,2.14.54l-.4,1.15c-.34-.22-.97-.5-1.78-.5-.94,0-1.46.54-1.46,1.19,0,.72.52,1.04,1.66,1.48,1.51.58,2.29,1.33,2.29,2.63,0,1.53-1.19,2.61-3.26,2.61-.95,0-1.84-.23-2.45-.59l.4-1.21Z"/><path d="M175.73,38.74c0-1.12-.04-2.02-.07-2.84h1.42l.07,1.5h.04c.65-1.06,1.67-1.69,3.1-1.69,2.11,0,3.69,1.78,3.69,4.43,0,3.13-1.91,4.68-3.96,4.68-1.15,0-2.16-.5-2.68-1.37h-.04v4.74h-1.57v-9.44ZM177.29,41.06c0,.23.04.45.07.65.29,1.1,1.24,1.85,2.38,1.85,1.67,0,2.65-1.37,2.65-3.37,0-1.75-.92-3.24-2.59-3.24-1.08,0-2.09.77-2.4,1.96-.05.2-.11.43-.11.65v1.5Z"/><path d="M186.85,40.54c.04,2.14,1.4,3.03,2.99,3.03,1.13,0,1.82-.2,2.41-.45l.27,1.13c-.56.25-1.51.54-2.9.54-2.68,0-4.29-1.76-4.29-4.39s1.55-4.7,4.09-4.7c2.84,0,3.6,2.5,3.6,4.11,0,.32-.04.58-.05.74h-6.12ZM191.5,39.4c.02-1.01-.41-2.58-2.2-2.58-1.6,0-2.3,1.48-2.43,2.58h4.63Z"/><path d="M199.81,44.61l-.13-1.1h-.05c-.49.68-1.42,1.3-2.67,1.3-1.76,0-2.66-1.24-2.66-2.5,0-2.11,1.87-3.26,5.24-3.24v-.18c0-.72-.2-2.02-1.98-2.02-.81,0-1.66.25-2.27.65l-.36-1.04c.72-.47,1.76-.77,2.86-.77,2.67,0,3.31,1.82,3.31,3.57v3.26c0,.76.04,1.5.14,2.09h-1.44ZM199.58,40.16c-1.73-.04-3.69.27-3.69,1.96,0,1.03.68,1.51,1.49,1.51,1.13,0,1.85-.72,2.11-1.46.05-.16.09-.34.09-.5v-1.51Z"/><path d="M205.23,39.89h.04c.22-.31.52-.68.77-.99l2.56-3.01h1.91l-3.37,3.58,3.83,5.13h-1.93l-3.01-4.18-.81.9v3.28h-1.57v-12.78h1.57v8.07Z"/><path d="M211.98,43.67c0-.67.45-1.13,1.08-1.13s1.06.47,1.06,1.13-.41,1.13-1.08,1.13c-.63,0-1.06-.49-1.06-1.13Z"/><path d="M33.16,81.81l-1.26,3.82h-1.62l4.12-12.14h1.89l4.14,12.14h-1.67l-1.3-3.82h-4.3ZM37.14,80.58l-1.19-3.49c-.27-.79-.45-1.51-.63-2.21h-.04c-.18.72-.38,1.46-.61,2.2l-1.19,3.51h3.65Z"/><path d="M49.47,72.84v10.53c0,.77.02,1.66.07,2.25h-1.42l-.07-1.51h-.04c-.49.97-1.55,1.71-2.97,1.71-2.11,0-3.73-1.78-3.73-4.43-.02-2.9,1.78-4.68,3.91-4.68,1.33,0,2.23.63,2.63,1.33h.04v-5.2h1.58ZM47.88,80.46c0-.2-.02-.47-.07-.67-.23-1.01-1.1-1.84-2.29-1.84-1.64,0-2.61,1.44-2.61,3.37,0,1.76.86,3.22,2.57,3.22,1.06,0,2.03-.7,2.32-1.89.05-.22.07-.43.07-.68v-1.51Z"/><path d="M52.7,76.91l1.71,4.9c.29.79.52,1.51.7,2.23h.05c.2-.72.45-1.44.74-2.23l1.69-4.9h1.66l-3.42,8.71h-1.51l-3.31-8.71h1.69Z"/><path d="M61.45,81.55c.04,2.14,1.4,3.03,2.99,3.03,1.13,0,1.82-.2,2.41-.45l.27,1.13c-.56.25-1.51.54-2.9.54-2.68,0-4.29-1.76-4.29-4.39s1.55-4.7,4.09-4.7c2.84,0,3.6,2.5,3.6,4.11,0,.32-.04.58-.05.74h-6.12ZM66.1,80.42c.02-1.01-.41-2.58-2.2-2.58-1.6,0-2.3,1.48-2.43,2.58h4.63Z"/><path d="M69.59,79.63c0-1.03-.02-1.91-.07-2.72h1.39l.05,1.71h.07c.4-1.17,1.35-1.91,2.41-1.91.18,0,.31.02.45.05v1.49c-.16-.04-.32-.05-.54-.05-1.12,0-1.91.85-2.12,2.03-.04.22-.07.47-.07.74v4.65h-1.57v-6Z"/><path d="M77.81,74.41v2.5h2.27v1.21h-2.27v4.7c0,1.08.31,1.69,1.19,1.69.41,0,.72-.05.92-.11l.07,1.19c-.31.13-.79.22-1.4.22-.74,0-1.33-.23-1.71-.67-.45-.47-.61-1.24-.61-2.27v-4.75h-1.35v-1.21h1.35v-2.09l1.55-.41Z"/><path d="M83.63,74.46c.02.54-.38.97-1.01.97-.56,0-.95-.43-.95-.97s.41-.99.99-.99.97.43.97.99ZM81.86,85.62v-8.71h1.58v8.71h-1.58Z"/><path d="M85.86,84c.47.31,1.3.63,2.09.63,1.15,0,1.69-.58,1.69-1.3s-.45-1.17-1.62-1.6c-1.57-.56-2.3-1.42-2.3-2.47,0-1.41,1.13-2.56,3.01-2.56.88,0,1.66.25,2.14.54l-.4,1.15c-.34-.22-.97-.5-1.78-.5-.94,0-1.46.54-1.46,1.19,0,.72.52,1.04,1.66,1.48,1.51.58,2.29,1.33,2.29,2.63,0,1.53-1.19,2.61-3.26,2.61-.95,0-1.84-.23-2.45-.59l.4-1.21Z"/><path d="M94.09,81.55c.04,2.14,1.4,3.03,2.99,3.03,1.13,0,1.82-.2,2.41-.45l.27,1.13c-.56.25-1.51.54-2.9.54-2.68,0-4.29-1.76-4.29-4.39s1.55-4.7,4.09-4.7c2.84,0,3.6,2.5,3.6,4.11,0,.32-.04.58-.05.74h-6.12ZM98.73,80.42c.02-1.01-.41-2.58-2.2-2.58-1.6,0-2.3,1.48-2.43,2.58h4.63Z"/><path d="M107.8,74.46c.02.54-.38.97-1.01.97-.56,0-.95-.43-.95-.97s.41-.99.99-.99.97.43.97.99ZM106.04,85.62v-8.71h1.58v8.71h-1.58Z"/><path d="M110.25,79.27c0-.9-.02-1.64-.07-2.36h1.4l.09,1.44h.04c.43-.83,1.44-1.64,2.88-1.64,1.21,0,3.08.72,3.08,3.71v5.2h-1.58v-5.02c0-1.4-.52-2.58-2.02-2.58-1.04,0-1.85.74-2.12,1.62-.07.2-.11.47-.11.74v5.24h-1.58v-6.36Z"/><path d="M125.68,74.82h-3.69v-1.33h8.98v1.33h-3.71v10.8h-1.58v-10.8Z"/><path d="M132.14,72.84h1.58v5.44h.04c.25-.45.65-.85,1.13-1.12.47-.27,1.03-.45,1.62-.45,1.17,0,3.04.72,3.04,3.73v5.19h-1.58v-5.01c0-1.4-.52-2.59-2.02-2.59-1.03,0-1.84.72-2.12,1.58-.09.22-.11.45-.11.76v5.26h-1.58v-12.78Z"/><path d="M143.01,81.55c.04,2.14,1.4,3.03,2.99,3.03,1.13,0,1.82-.2,2.41-.45l.27,1.13c-.56.25-1.51.54-2.9.54-2.68,0-4.29-1.76-4.29-4.39s1.55-4.7,4.09-4.7c2.84,0,3.6,2.5,3.6,4.11,0,.32-.04.58-.05.74h-6.12ZM147.65,80.42c.02-1.01-.41-2.58-2.2-2.58-1.6,0-2.3,1.48-2.43,2.58h4.63Z"/><path d="M154.8,83.72c.7.43,1.73.79,2.81.79,1.6,0,2.54-.85,2.54-2.07,0-1.13-.65-1.78-2.29-2.41-1.98-.7-3.21-1.73-3.21-3.44,0-1.89,1.57-3.29,3.93-3.29,1.24,0,2.14.29,2.68.59l-.43,1.28c-.4-.22-1.21-.58-2.3-.58-1.66,0-2.29.99-2.29,1.82,0,1.13.74,1.69,2.41,2.34,2.05.79,3.1,1.78,3.1,3.56,0,1.87-1.39,3.49-4.25,3.49-1.17,0-2.45-.34-3.1-.77l.4-1.31Z"/><path d="M171.13,83.25c0,.9.02,1.69.07,2.38h-1.4l-.09-1.42h-.04c-.41.7-1.33,1.62-2.88,1.62-1.37,0-3.01-.76-3.01-3.82v-5.1h1.58v4.83c0,1.66.5,2.77,1.94,2.77,1.06,0,1.8-.74,2.09-1.44.09-.23.14-.52.14-.81v-5.35h1.58v6.34Z"/><path d="M173.75,79.27c0-.9-.02-1.64-.07-2.36h1.4l.09,1.44h.04c.43-.83,1.44-1.64,2.88-1.64,1.21,0,3.08.72,3.08,3.71v5.2h-1.58v-5.02c0-1.4-.52-2.58-2.02-2.58-1.04,0-1.85.74-2.12,1.62-.07.2-.11.47-.11.74v5.24h-1.58v-6.36Z"/><path d="M183.53,84c.47.31,1.3.63,2.09.63,1.15,0,1.69-.58,1.69-1.3s-.45-1.17-1.62-1.6c-1.57-.56-2.3-1.42-2.3-2.47,0-1.41,1.13-2.56,3.01-2.56.88,0,1.66.25,2.14.54l-.4,1.15c-.34-.22-.97-.5-1.78-.5-.94,0-1.46.54-1.46,1.19,0,.72.52,1.04,1.66,1.48,1.51.58,2.29,1.33,2.29,2.63,0,1.53-1.19,2.61-3.26,2.61-.95,0-1.84-.23-2.45-.59l.4-1.21Z"/><path d="M191.75,81.55c.04,2.14,1.4,3.03,2.99,3.03,1.13,0,1.82-.2,2.41-.45l.27,1.13c-.56.25-1.51.54-2.9.54-2.68,0-4.29-1.76-4.29-4.39s1.55-4.7,4.09-4.7c2.84,0,3.6,2.5,3.6,4.11,0,.32-.04.58-.05.74h-6.12ZM196.4,80.42c.02-1.01-.41-2.58-2.2-2.58-1.6,0-2.3,1.48-2.43,2.58h4.63Z"/><path d="M201.8,74.41v2.5h2.27v1.21h-2.27v4.7c0,1.08.31,1.69,1.19,1.69.41,0,.72-.05.92-.11l.07,1.19c-.31.13-.79.22-1.4.22-.74,0-1.33-.23-1.71-.67-.45-.47-.61-1.24-.61-2.27v-4.75h-1.35v-1.21h1.35v-2.09l1.55-.41Z"/><path d="M209.72,73.63c.76-.13,1.75-.23,3.01-.23,1.55,0,2.68.36,3.4,1.01.67.58,1.06,1.46,1.06,2.54s-.32,1.96-.94,2.59c-.83.88-2.18,1.33-3.71,1.33-.47,0-.9-.02-1.26-.11v4.86h-1.57v-11.99ZM211.28,79.48c.34.09.77.13,1.3.13,1.89,0,3.04-.92,3.04-2.59s-1.13-2.38-2.86-2.38c-.68,0-1.21.05-1.48.13v4.72Z"/><path d="M226.68,81.19c0,3.22-2.23,4.63-4.34,4.63-2.36,0-4.18-1.73-4.18-4.48,0-2.92,1.91-4.63,4.32-4.63s4.2,1.82,4.2,4.48ZM219.76,81.28c0,1.91,1.1,3.35,2.65,3.35s2.65-1.42,2.65-3.38c0-1.48-.74-3.35-2.61-3.35s-2.68,1.73-2.68,3.39Z"/><path d="M228.45,84c.47.31,1.3.63,2.09.63,1.15,0,1.69-.58,1.69-1.3s-.45-1.17-1.62-1.6c-1.57-.56-2.3-1.42-2.3-2.47,0-1.41,1.13-2.56,3.01-2.56.88,0,1.66.25,2.14.54l-.4,1.15c-.34-.22-.97-.5-1.78-.5-.94,0-1.46.54-1.46,1.19,0,.72.52,1.04,1.66,1.48,1.51.58,2.29,1.33,2.29,2.63,0,1.53-1.19,2.61-3.26,2.61-.95,0-1.84-.23-2.45-.59l.4-1.21Z"/><path d="M237.71,74.41v2.5h2.27v1.21h-2.27v4.7c0,1.08.31,1.69,1.19,1.69.41,0,.72-.05.92-.11l.07,1.19c-.31.13-.79.22-1.4.22-.74,0-1.33-.23-1.71-.67-.45-.47-.61-1.24-.61-2.27v-4.75h-1.35v-1.21h1.35v-2.09l1.55-.41Z"/><path d="M247.48,74.41v2.5h2.27v1.21h-2.27v4.7c0,1.08.31,1.69,1.19,1.69.41,0,.72-.05.92-.11l.07,1.19c-.31.13-.79.22-1.4.22-.74,0-1.33-.23-1.71-.67-.45-.47-.61-1.24-.61-2.27v-4.75h-1.35v-1.21h1.35v-2.09l1.55-.41Z"/><path d="M259.31,81.19c0,3.22-2.23,4.63-4.34,4.63-2.36,0-4.18-1.73-4.18-4.48,0-2.92,1.91-4.63,4.32-4.63s4.2,1.82,4.2,4.48ZM252.39,81.28c0,1.91,1.1,3.35,2.65,3.35s2.65-1.42,2.65-3.38c0-1.48-.74-3.35-2.61-3.35s-2.68,1.73-2.68,3.39Z"/><path d="M268.83,72.84v10.53c0,.77.02,1.66.07,2.25h-1.42l-.07-1.51h-.04c-.49.97-1.55,1.71-2.97,1.71-2.11,0-3.73-1.78-3.73-4.43-.02-2.9,1.78-4.68,3.91-4.68,1.33,0,2.23.63,2.63,1.33h.04v-5.2h1.58ZM267.25,80.46c0-.2-.02-.47-.07-.67-.23-1.01-1.1-1.84-2.29-1.84-1.64,0-2.61,1.44-2.61,3.37,0,1.76.86,3.22,2.57,3.22,1.06,0,2.03-.7,2.32-1.89.05-.22.07-.43.07-.68v-1.51Z"/><path d="M276.28,85.62l-.13-1.1h-.05c-.49.68-1.42,1.3-2.67,1.3-1.76,0-2.66-1.24-2.66-2.5,0-2.11,1.87-3.26,5.24-3.24v-.18c0-.72-.2-2.02-1.98-2.02-.81,0-1.66.25-2.27.65l-.36-1.04c.72-.47,1.76-.77,2.86-.77,2.67,0,3.31,1.82,3.31,3.57v3.26c0,.76.04,1.5.14,2.09h-1.44ZM276.05,81.18c-1.73-.04-3.69.27-3.69,1.96,0,1.03.68,1.51,1.49,1.51,1.13,0,1.85-.72,2.11-1.46.05-.16.09-.34.09-.5v-1.51Z"/><path d="M280.56,76.91l1.91,5.15c.2.58.41,1.26.56,1.78h.04c.16-.52.34-1.19.56-1.82l1.73-5.11h1.67l-2.38,6.21c-1.13,2.99-1.91,4.52-2.99,5.46-.77.68-1.55.95-1.94,1.03l-.4-1.33c.4-.13.92-.38,1.39-.77.43-.34.97-.95,1.33-1.76.07-.16.13-.29.13-.38s-.04-.22-.11-.41l-3.22-8.03h1.73Z"/><path d="M287.39,84.69c0-.67.45-1.13,1.08-1.13s1.06.47,1.06,1.13-.41,1.13-1.08,1.13c-.63,0-1.06-.49-1.06-1.13Z"/></svg>